<?xml version="1.0" encoding="UTF-8" standalone="no"?>
<!-- Created with Inkscape (http://www.inkscape.org/) -->

<svg
   width="37.137104"
   height="37.137074"
   viewBox="0 0 9.8258586 9.825851"
   version="1.1"
   id="svg5"
   xml:space="preserve"
   inkscape:version="1.2.2 (732a01da63, 2022-12-09)"
   sodipodi:docname="diseñosOniria.svg"
   inkscape:export-filename="svg\private-icon.svg"
   inkscape:export-xdpi="96"
   inkscape:export-ydpi="96"
   xmlns:inkscape="http://www.inkscape.org/namespaces/inkscape"
   xmlns:sodipodi="http://sodipodi.sourceforge.net/DTD/sodipodi-0.dtd"
   xmlns="http://www.w3.org/2000/svg"
   xmlns:svg="http://www.w3.org/2000/svg"><sodipodi:namedview
     id="namedview7"
     pagecolor="#505050"
     bordercolor="#eeeeee"
     borderopacity="1"
     inkscape:showpageshadow="0"
     inkscape:pageopacity="0"
     inkscape:pagecheckerboard="0"
     inkscape:deskcolor="#505050"
     inkscape:document-units="mm"
     showgrid="false"
     inkscape:zoom="0.5"
     inkscape:cx="-1552"
     inkscape:cy="-2505"
     inkscape:window-width="1350"
     inkscape:window-height="1032"
     inkscape:window-x="93"
     inkscape:window-y="107"
     inkscape:window-maximized="0"
     inkscape:current-layer="layer7"
     showguides="true"><sodipodi:guide
       position="179.73593,-803.32255"
       orientation="0,-1"
       id="guide21335"
       inkscape:locked="false" /><sodipodi:guide
       position="453.24894,-534.63817"
       orientation="0,-1"
       id="guide3220"
       inkscape:locked="false" /><sodipodi:guide
       position="452.25675,-570.35693"
       orientation="0,-1"
       id="guide3222"
       inkscape:locked="false" /><sodipodi:guide
       position="448.62407,146.57255"
       orientation="1,0"
       id="guide3226"
       inkscape:locked="false" /><sodipodi:guide
       position="-125.32865,-93.974628"
       orientation="0,-1"
       id="guide9619"
       inkscape:locked="false" /><sodipodi:guide
       position="-156.98196,-139.67311"
       orientation="0,-1"
       id="guide12074"
       inkscape:locked="false" /><sodipodi:guide
       position="-189.95947,-16.885829"
       orientation="0,-1"
       id="guide13091"
       inkscape:locked="false" /><sodipodi:guide
       position="-217.33456,-49.973079"
       orientation="0,-1"
       id="guide13122"
       inkscape:locked="false" /><sodipodi:guide
       position="-215.26135,-24.523229"
       orientation="0,-1"
       id="guide13852"
       inkscape:locked="false" /><sodipodi:guide
       position="-206.09911,-2.0316486"
       orientation="0,-1"
       id="guide13854"
       inkscape:locked="false" /><sodipodi:guide
       position="475.7519,-335.74204"
       orientation="1,0"
       id="guide30809"
       inkscape:locked="false" /><sodipodi:guide
       position="494.7414,-310.57861"
       orientation="0,-1"
       id="guide30811"
       inkscape:locked="false" /></sodipodi:namedview><defs
     id="defs2" /><g
     inkscape:groupmode="layer"
     id="layer8"
     inkscape:label="Autenticación"
     style="display:inline"
     transform="translate(-113.95157,246.4109)"><g
       id="g13529"><g
         id="g7190"
         transform="matrix(0.12004008,0,0,0.12004008,114.76803,-207.30399)"
         inkscape:export-filename="svg\fat-dog-icon.svg"
         inkscape:export-xdpi="96"
         inkscape:export-ydpi="96"><path
           style="fill:none;stroke:#ef5350;stroke-width:3.138;stroke-linecap:round;stroke-linejoin:round;stroke-dasharray:none;stroke-opacity:1"
           d="m 46.302083,-281.51666 c 0,0 2.645398,19.66171 4.431771,20.24062 0.994917,0.32242 5.886979,0.16537 5.886979,0.16537 0.31611,-0.57421 -1.025241,-1.91119 -2.579688,-2.0836 1.911762,-11.25203 9.168353,-19.77074 8.995833,-31.48541 4.000809,-0.40246 6.193083,-3.30071 7.077604,-8.00365 0,0 -6.283854,-0.79375 -6.614583,-1.12448 -0.330729,-0.33073 -3.431941,-4.83856 -3.836458,-4.82864 -5.69073,0.13957 -7.780492,1.88703 -10.517187,6.2177 -3.91425,2.63682 -13.219209,4.65066 -21.232813,2.05052 -3.593687,-1.16603 -15.620794,-2.30362 -19.0169265,2.98484 -3.7571558,5.65253 -2.9591932,10.85573 -2.2158854,13.15475 1.7334138,5.36138 0.5261164,9.47493 -2.1166667,12.76614 -0.2070768,0.25788 2.2820313,9.95495 3.0096354,10.12032 0.7276042,0.16536 5.8669762,0.25289 5.8669762,0.25289 -0.04691,-1.48487 -1.287046,-1.33458 -2.096664,-1.77425 l -0.595312,-7.37526 c 6.93453,-2.08849 12.506416,-5.48892 13.113132,-12.86647"
           id="path5003"
           sodipodi:nodetypes="csccccsscscssscccc" /><path
           style="fill:none;stroke:#ef5350;stroke-width:3.13801;stroke-linecap:round;stroke-linejoin:round;stroke-dasharray:none;stroke-opacity:1"
           d="m 19.645396,-274.66017 c 6.029687,4.79481 14.109185,6.84102 27.859657,1.28296"
           id="path5731"
           sodipodi:nodetypes="cc" /><path
           style="fill:none;stroke:#ef5350;stroke-width:3.13801;stroke-linecap:round;stroke-linejoin:round;stroke-dasharray:none;stroke-opacity:1"
           d="m 6.117814,-286.57835 c -1.7529604,4.79221 -4.8455829,8.50918 -7.980961,10.68408 0,0 2.21667781,-5.30908 1.863147,-10.18751 -0.02057078,-0.28386 -0.02757126,-2.37923 0,-2.97551 0.29020413,-6.2762 6.5513125,-9.58919 10.341364,-9.87234"
           id="path5733"
           sodipodi:nodetypes="ccssc" /></g><rect
         style="fill:none;fill-opacity:1;stroke:#ef5350;stroke-width:0.332483;stroke-linecap:round;stroke-linejoin:round;stroke-dasharray:none;stroke-opacity:0"
         id="rect13366"
         width="9.4933767"
         height="9.4933767"
         x="114.11781"
         y="-246.24466"
         ry="0.16494396" /></g></g></svg>
