<?xml version="1.0" encoding="UTF-8" standalone="no"?>
<!-- Created with Inkscape (http://www.inkscape.org/) -->

<svg
   width="59.318359"
   height="51.4753"
   viewBox="0 0 15.694649 13.619507"
   version="1.1"
   id="svg5"
   xml:space="preserve"
   inkscape:version="1.2.2 (732a01da63, 2022-12-09)"
   sodipodi:docname="diseñosOniria.svg"
   inkscape:export-filename="svg\authentication_page_stars.svg"
   inkscape:export-xdpi="96"
   inkscape:export-ydpi="96"
   xmlns:inkscape="http://www.inkscape.org/namespaces/inkscape"
   xmlns:sodipodi="http://sodipodi.sourceforge.net/DTD/sodipodi-0.dtd"
   xmlns:xlink="http://www.w3.org/1999/xlink"
   xmlns="http://www.w3.org/2000/svg"
   xmlns:svg="http://www.w3.org/2000/svg"><sodipodi:namedview
     id="namedview7"
     pagecolor="#505050"
     bordercolor="#eeeeee"
     borderopacity="1"
     inkscape:showpageshadow="0"
     inkscape:pageopacity="0"
     inkscape:pagecheckerboard="0"
     inkscape:deskcolor="#505050"
     inkscape:document-units="mm"
     showgrid="false"
     inkscape:zoom="0.125"
     inkscape:cx="1076"
     inkscape:cy="815.99998"
     inkscape:window-width="1920"
     inkscape:window-height="1009"
     inkscape:window-x="-8"
     inkscape:window-y="-8"
     inkscape:window-maximized="1"
     inkscape:current-layer="layer1"
     showguides="true"><sodipodi:guide
       position="173.32628,-726.61244"
       orientation="0,-1"
       id="guide21335"
       inkscape:locked="false" /><sodipodi:guide
       position="-243.77254,107.36751"
       orientation="1,0"
       id="guide49534"
       inkscape:locked="false" /></sodipodi:namedview><defs
     id="defs2"><linearGradient
       inkscape:collect="always"
       id="linearGradient6551"><stop
         style="stop-color:#000000;stop-opacity:0;"
         offset="0"
         id="stop6547" /><stop
         style="stop-color:#000000;stop-opacity:1;"
         offset="1"
         id="stop6549" /></linearGradient><linearGradient
       inkscape:collect="always"
       id="linearGradient6123"><stop
         style="stop-color:#ffd140;stop-opacity:1;"
         offset="0"
         id="stop6119" /><stop
         style="stop-color:#ffe48e;stop-opacity:1;"
         offset="1"
         id="stop6121" /></linearGradient><linearGradient
       inkscape:collect="always"
       id="linearGradient5555"><stop
         style="stop-color:#283e8e;stop-opacity:1;"
         offset="0"
         id="stop5551" /><stop
         style="stop-color:#445aa5;stop-opacity:1;"
         offset="1"
         id="stop5553" /></linearGradient><linearGradient
       inkscape:collect="always"
       id="linearGradient4719"><stop
         style="stop-color:#3b9df4;stop-opacity:1;"
         offset="0"
         id="stop4715" /><stop
         style="stop-color:#62b0f6;stop-opacity:1;"
         offset="1"
         id="stop4717" /></linearGradient><filter
       inkscape:collect="always"
       style="color-interpolation-filters:sRGB"
       id="filter6555"
       x="-0.14769956"
       y="-0.10440637"
       width="1.2953991"
       height="1.2088127"><feGaussianBlur
         inkscape:collect="always"
         stdDeviation="0.7818775"
         id="feGaussianBlur6557" /></filter><clipPath
       clipPathUnits="userSpaceOnUse"
       id="clipPath6685"><path
         id="path6687"
         style="fill:#ff0000;fill-opacity:1;fill-rule:nonzero;stroke:none;stroke-width:0.264583"
         d="M 68.333297,400.81687 H 37.906214 v 30.42708 h 13.874088 c 0.112036,-0.132 0.307573,-0.23299 0.591177,-0.2527 0.108369,-0.007 0.216946,-0.014 0.325562,-0.0169 0.349097,-0.0153 0.697942,-0.0354 1.045933,-0.0677 0.228732,-0.0206 0.45721,-0.0426 0.686263,-0.0594 0.07427,-0.006 0.148415,-0.0101 0.222723,-0.0151 0.06714,-0.004 0.134448,-0.008 0.201539,-0.013 0.06575,-0.005 0.131704,-0.0111 0.197405,-0.0161 0.436481,-0.0428 0.873789,-0.0884 1.303796,-0.17671 0.493641,-0.11242 0.983104,-0.24167 1.47071,-0.37777 0.195164,-0.0606 0.272944,-0.0812 0.462505,-0.15502 0.312182,-0.12153 0.608615,-0.27959 0.894003,-0.45424 0.411038,-0.258 0.815607,-0.52679 1.193207,-0.83251 0.233315,-0.18495 0.465514,-0.37171 0.704869,-0.5488 0.173228,-0.12816 0.338532,-0.1886 0.483174,-0.19844 0.03077,-0.0262 0.05636,-0.0487 0.09198,-0.078 0.274344,-0.22564 0.562454,-0.43426 0.844394,-0.65011 0.406014,-0.29848 0.824177,-0.58216 1.205095,-0.9131 0.322734,-0.28829 0.640713,-0.58862 0.876433,-0.95499 0.238307,-0.39108 0.444648,-0.79997 0.620117,-1.2232 0.178234,-0.42071 0.348059,-0.84516 0.520898,-1.26812 0.179462,-0.43172 0.355256,-0.86466 0.529167,-1.29863 0.20379,-0.50257 0.404418,-1.00631 0.609264,-1.50844 0.118113,-0.2934 0.237839,-0.58613 0.37052,-0.87334 0.01093,-0.0238 0.07367,-0.16017 0.08733,-0.19378 0.05538,-0.13612 0.09141,-0.27831 0.122473,-0.42169 0.07685,-0.35959 0.148752,-0.72027 0.217041,-1.08156 0.03602,-0.19153 0.07105,-0.38341 0.115755,-0.57312 0.08284,-0.35147 0.268314,-0.53834 0.460438,-0.58703 -0.0578,-0.003 -0.09519,-0.028 -0.108005,-0.0605 -0.0085,0 -0.015,0.003 -0.04341,0.006 -0.160853,0.0222 -0.192426,-0.13282 -0.05788,-0.17468 -0.02751,-0.051 0.006,-0.12292 0.110588,-0.13486 0.03916,-0.004 0.07831,-0.008 0.117821,-0.008 h 0.0801 z m 0,18.56838 c -0.009,0.0251 -0.01757,0.0506 -0.02739,0.0755 -0.0349,0.0884 -0.0779,0.18055 -0.117306,0.26717 -0.126307,0.27279 -0.239686,0.55113 -0.351917,0.82992 -0.205174,0.50295 -0.406188,1.00764 -0.610296,1.51101 -0.175038,0.43683 -0.352158,0.87289 -0.532786,1.30741 -0.173564,0.42521 -0.344382,0.85143 -0.523481,1.27434 -0.169243,0.39492 -0.351343,0.78526 -0.567407,1.15705 -0.03952,0.068 -0.08125,0.13475 -0.121957,0.20206 -0.238024,0.37373 -0.539406,0.70155 -0.862481,1.00304 -0.0692,0.0646 -0.140946,0.12634 -0.211357,0.18965 -0.404691,0.35547 -0.850905,0.65805 -1.284158,0.97666 -0.271803,0.20836 -0.549449,0.41008 -0.813903,0.62788 -0.140689,0.11586 -0.258207,0.22278 -0.394293,0.34417 -0.05997,0.0555 -0.119864,0.11089 -0.179834,0.1664 -0.22533,0.20846 -0.449477,0.27768 -0.629936,0.25424 -0.02524,0.0201 -0.05069,0.0399 -0.07596,0.06 -0.407622,0.32964 -0.843426,0.61992 -1.286743,0.89866 -0.333229,0.20452 -0.679942,0.3888 -1.043866,0.53276 -0.222128,0.0879 -0.315571,0.11354 -0.530717,0.18087 h 10.165789 z" /></clipPath><linearGradient
       inkscape:collect="always"
       xlink:href="#linearGradient4719"
       id="linearGradient17340"
       gradientUnits="userSpaceOnUse"
       x1="37.906261"
       y1="416.03067"
       x2="68.333344"
       y2="416.03067" /><linearGradient
       inkscape:collect="always"
       xlink:href="#linearGradient5555"
       id="linearGradient17342"
       gradientUnits="userSpaceOnUse"
       x1="53.118263"
       y1="423.63745"
       x2="68.333344"
       y2="423.63745" /><linearGradient
       inkscape:collect="always"
       xlink:href="#linearGradient6551"
       id="linearGradient17344"
       gradientUnits="userSpaceOnUse"
       x1="46.059792"
       y1="432.36044"
       x2="53.041103"
       y2="416.17728" /><linearGradient
       inkscape:collect="always"
       xlink:href="#linearGradient6123"
       id="linearGradient17346"
       gradientUnits="userSpaceOnUse"
       gradientTransform="matrix(1.1813883,0,0,1.1813883,-9.6353351,-75.463083)"
       x1="45.719067"
       y1="423.43628"
       x2="53.118263"
       y2="423.45035" /></defs><g
     inkscape:groupmode="layer"
     id="layer8"
     inkscape:label="Autenticación"
     style="display:inline"
     transform="translate(-120.36122,173.49444)"><g
       id="g17338"
       transform="matrix(0.44761118,0,0,0.44761118,-59.049021,-142.90767)"
       style="display:inline"
       inkscape:export-filename="svg\graphic.svg"
       inkscape:export-xdpi="96"
       inkscape:export-ydpi="96"><circle
         style="fill:url(#linearGradient17340);fill-opacity:1;stroke:none;stroke-width:0.499999;paint-order:stroke markers fill"
         id="circle17330"
         r="15.213541"
         cy="416.03067"
         cx="53.119804"
         transform="rotate(-90)"
         clip-path="url(#clipPath6685)" /><path
         style="fill:url(#linearGradient17342);fill-opacity:1;stroke:none;stroke-width:0.499999;paint-order:stroke markers fill"
         id="path17332"
         sodipodi:type="arc"
         sodipodi:cx="53.119804"
         sodipodi:cy="416.03067"
         sodipodi:rx="15.213541"
         sodipodi:ry="15.213541"
         sodipodi:start="0"
         sodipodi:end="1.5708977"
         sodipodi:arc-type="slice"
         d="m 68.333345,416.03067 a 15.213541,15.213541 0 0 1 -4.456488,10.75814 15.213541,15.213541 0 0 1 -10.758595,4.4554 l 0.0015,-15.21354 z"
         transform="rotate(-90)" /><path
         style="opacity:0.370288;fill:url(#linearGradient17344);fill-opacity:1;stroke:none;stroke-width:0.590693;paint-order:stroke markers fill;filter:url(#filter6555)"
         id="path17334"
         transform="rotate(-90)"
         sodipodi:type="arc"
         sodipodi:cx="53.119778"
         sodipodi:cy="416.03067"
         sodipodi:rx="17.973099"
         sodipodi:ry="17.973099"
         sodipodi:start="1.570787"
         sodipodi:end="2.3558654"
         sodipodi:arc-type="slice"
         d="M 53.119945,434.00377 A 17.973099,17.973099 0 0 1 40.415061,428.74375 L 53.119778,416.03067 Z" /><path
         style="fill:url(#linearGradient17346);fill-opacity:1;stroke:none;stroke-width:0.590693;paint-order:stroke markers fill"
         id="path17336"
         transform="rotate(-90)"
         sodipodi:type="arc"
         sodipodi:cx="53.119778"
         sodipodi:cy="416.03067"
         sodipodi:rx="17.973099"
         sodipodi:ry="17.973099"
         sodipodi:start="1.570787"
         sodipodi:end="2.3558654"
         sodipodi:arc-type="slice"
         d="M 53.119945,434.00377 A 17.973099,17.973099 0 0 1 40.415061,428.74375 L 53.119778,416.03067 Z" /></g></g></svg>
