<?xml version="1.0" encoding="UTF-8" standalone="no"?>
<!-- Created with Inkscape (http://www.inkscape.org/) -->

<svg
   width="42.117374"
   height="42.117428"
   viewBox="0 0 11.143555 11.14357"
   version="1.1"
   id="svg5"
   xml:space="preserve"
   inkscape:version="1.2.2 (732a01da63, 2022-12-09)"
   sodipodi:docname="diseñosOniria.svg"
   inkscape:export-filename="svg\private-icon.svg"
   inkscape:export-xdpi="96"
   inkscape:export-ydpi="96"
   xmlns:inkscape="http://www.inkscape.org/namespaces/inkscape"
   xmlns:sodipodi="http://sodipodi.sourceforge.net/DTD/sodipodi-0.dtd"
   xmlns="http://www.w3.org/2000/svg"
   xmlns:svg="http://www.w3.org/2000/svg"><sodipodi:namedview
     id="namedview7"
     pagecolor="#505050"
     bordercolor="#eeeeee"
     borderopacity="1"
     inkscape:showpageshadow="0"
     inkscape:pageopacity="0"
     inkscape:pagecheckerboard="0"
     inkscape:deskcolor="#505050"
     inkscape:document-units="mm"
     showgrid="false"
     inkscape:zoom="8"
     inkscape:cx="1986.3125"
     inkscape:cy="641.75"
     inkscape:window-width="1920"
     inkscape:window-height="1009"
     inkscape:window-x="-8"
     inkscape:window-y="-8"
     inkscape:window-maximized="1"
     inkscape:current-layer="layer6"
     showguides="true"><sodipodi:guide
       position="-222.48836,-394.59948"
       orientation="0,-1"
       id="guide21335"
       inkscape:locked="false" /><sodipodi:guide
       position="-639.58718,439.38048"
       orientation="1,0"
       id="guide49534"
       inkscape:locked="false" /><sodipodi:guide
       position="-524.11336,362.10888"
       orientation="1,0"
       id="guide37938"
       inkscape:locked="false" /><sodipodi:guide
       position="-465.50815,362.77033"
       orientation="1,0"
       id="guide37940"
       inkscape:locked="false" /><sodipodi:guide
       position="-494.88843,403.11928"
       orientation="1,0"
       id="guide37944"
       inkscape:locked="false" /></sodipodi:namedview><defs
     id="defs2" /><g
     inkscape:groupmode="layer"
     id="layer6"
     inkscape:label="ICONOS"
     style="display:inline"
     transform="translate(-516.17585,-160.99446)"><circle
       style="fill:#3a4058;fill-opacity:1;stroke:#666d89;stroke-width:1;stroke-linecap:round;stroke-dasharray:none;stroke-opacity:1;paint-order:normal"
       id="circle42371"
       cx="521.74762"
       cy="166.56624"
       r="5.0717826"
       inkscape:export-filename="..\2324-pi-nereagonzalez12\oniria_angular_project\src\assets\svg\public-icon.svg"
       inkscape:export-xdpi="96"
       inkscape:export-ydpi="96" /><path
       style="fill:#666d89;fill-opacity:1;stroke:none;stroke-width:0.716001;stroke-linecap:round;stroke-dasharray:none;stroke-opacity:1"
       d="m 524.93798,162.62356 c -0.0573,0.0716 -1.15113,1.25719 -0.83628,1.42893 0.31485,0.17174 0.61539,0.0143 0.5009,0.20036 -1.07328,1.08279 -1.34544,1.59995 -2.04653,3.10557 -0.24401,0.88673 0.60496,0.71844 1.25937,0.77281 0.17173,0.0573 0.28622,-0.0286 0.32916,0.31485 0.0638,0.49629 0.22673,0.95376 0.40072,1.41983 0.0429,0.11149 0.21979,0.77679 0.21979,0.77679 2.21446,-1.45968 3.16669,-5.56819 0.17283,-8.01914 z"
       id="path42373"
       sodipodi:nodetypes="cscccccccc" /><path
       style="fill:#666d89;fill-opacity:1;stroke:none;stroke-width:0.716001;stroke-linecap:round;stroke-dasharray:none;stroke-opacity:1"
       d="m 521.07415,161.53937 c 0,0 -0.10518,0.0792 -0.10574,0.15816 0.76028,0.32539 0.22477,0.96828 0.39462,1.73051 0.0405,0.0708 0.0607,0.20239 0.16192,0.19227 0.10119,-0.0101 0.17203,-0.11131 0.22262,-0.15179 0.67929,-0.49752 1.39838,-0.89847 1.45474,-1.76092 -0.61625,-0.21323 -1.46745,-0.26029 -2.12821,-0.16819 z"
       id="path42375"
       sodipodi:nodetypes="cccscccc" /><path
       style="fill:#666d89;fill-opacity:1;stroke:none;stroke-width:0.716001;stroke-linecap:round;stroke-dasharray:none;stroke-opacity:1"
       d="m 520.252,171.41248 c 0.82804,-0.78757 1.76542,-1.33945 1.44338,-2.28813 -5.50392,-1.97642 0.9995,-7.43124 -3.10825,-6.27037 -0.17944,0.0844 -0.51215,0.21482 -0.51215,0.21482 -0.83497,0.66756 -1.7824,2.0825 -1.39414,3.7205 0.18899,0.90472 1.74378,0.84898 1.85351,1.40031 0.23155,0.98254 0.64877,1.80149 0.69239,2.77775 0.30605,0.17416 0.64155,0.32714 1.02536,0.44538 z"
       id="path42377"
       sodipodi:nodetypes="ccccccccc" /></g></svg>
