<?xml version="1.0" encoding="UTF-8" standalone="no"?>
<!-- Created with Inkscape (http://www.inkscape.org/) -->

<svg
   width="486.63171"
   height="578.49713"
   viewBox="0 0 128.75464 153.0607"
   version="1.1"
   id="svg5"
   xml:space="preserve"
   inkscape:version="1.2.2 (732a01da63, 2022-12-09)"
   sodipodi:docname="diseñosOniria.svg"
   inkscape:export-filename="svg\authentication_page_stars.svg"
   inkscape:export-xdpi="96"
   inkscape:export-ydpi="96"
   xmlns:inkscape="http://www.inkscape.org/namespaces/inkscape"
   xmlns:sodipodi="http://sodipodi.sourceforge.net/DTD/sodipodi-0.dtd"
   xmlns:xlink="http://www.w3.org/1999/xlink"
   xmlns="http://www.w3.org/2000/svg"
   xmlns:svg="http://www.w3.org/2000/svg"><sodipodi:namedview
     id="namedview7"
     pagecolor="#505050"
     bordercolor="#eeeeee"
     borderopacity="1"
     inkscape:showpageshadow="0"
     inkscape:pageopacity="0"
     inkscape:pagecheckerboard="0"
     inkscape:deskcolor="#505050"
     inkscape:document-units="mm"
     showgrid="false"
     inkscape:zoom="0.1767767"
     inkscape:cx="1394.4146"
     inkscape:cy="526.08744"
     inkscape:window-width="1920"
     inkscape:window-height="1009"
     inkscape:window-x="-8"
     inkscape:window-y="-8"
     inkscape:window-maximized="1"
     inkscape:current-layer="layer7"
     showguides="true"><sodipodi:guide
       position="745.3238,-199.56447"
       orientation="0,-1"
       id="guide21335"
       inkscape:locked="false" /><sodipodi:guide
       position="328.22498,634.41547"
       orientation="1,0"
       id="guide49534"
       inkscape:locked="false" /></sodipodi:namedview><defs
     id="defs2"><linearGradient
       inkscape:collect="always"
       id="linearGradient14746"><stop
         style="stop-color:#a860e7;stop-opacity:1;"
         offset="0"
         id="stop14740" /><stop
         style="stop-color:#a860e7;stop-opacity:1;"
         offset="0.49431309"
         id="stop14742" /><stop
         style="stop-color:#5fabf5;stop-opacity:1;"
         offset="1"
         id="stop14744" /></linearGradient><linearGradient
       inkscape:collect="always"
       id="linearGradient24283"><stop
         style="stop-color:#af66ec;stop-opacity:1;"
         offset="0"
         id="stop24277" /><stop
         style="stop-color:#581fae;stop-opacity:1;"
         offset="0.25"
         id="stop24287" /><stop
         style="stop-color:#3b1da1;stop-opacity:1;"
         offset="0.5"
         id="stop24279" /><stop
         style="stop-color:#2d2ca3;stop-opacity:1;"
         offset="0.75"
         id="stop24285" /><stop
         style="stop-color:#3770d2;stop-opacity:1;"
         offset="1"
         id="stop24281" /></linearGradient><linearGradient
       inkscape:collect="always"
       id="linearGradient9215"><stop
         style="stop-color:#af66ec;stop-opacity:1;"
         offset="0"
         id="stop9209" /><stop
         style="stop-color:#8259e5;stop-opacity:1;"
         offset="0.5"
         id="stop9211" /><stop
         style="stop-color:#36a0f5;stop-opacity:1;"
         offset="1"
         id="stop9213" /></linearGradient><filter
       inkscape:collect="always"
       style="color-interpolation-filters:sRGB"
       id="filter3968-0"
       x="-0.099491291"
       y="-0.083450548"
       width="1.1989746"
       height="1.1669799"><feGaussianBlur
         inkscape:collect="always"
         stdDeviation="5.1793269"
         id="feGaussianBlur3970-8" /></filter><filter
       inkscape:collect="always"
       style="color-interpolation-filters:sRGB"
       id="filter4026-7"
       x="-0.1350361"
       y="-0.13503613"
       width="1.2700722"
       height="1.2700723"><feGaussianBlur
         inkscape:collect="always"
         stdDeviation="6.4376814"
         id="feGaussianBlur4028-2" /></filter><clipPath
       clipPathUnits="userSpaceOnUse"
       id="clipPath15263-8"><path
         id="path15265-5"
         style="fill:#ff0000;fill-opacity:1;fill-rule:nonzero;stroke:none;stroke-width:0.264583"
         d="m 487.29479,-601.12611 v 35.97301 c 0.0973,-0.29546 0.20236,-0.58824 0.32507,-0.87436 0.25096,-0.61696 0.49689,-1.23611 0.74517,-1.85415 0.40077,-0.91726 0.8522,-1.81052 1.30069,-2.70526 0.44466,-0.85008 0.9125,-1.68929 1.43661,-2.49341 0.31626,-0.48289 0.54129,-1.02145 0.78444,-1.54305 0.32729,-0.6935 0.65836,-1.38364 0.96427,-2.08719 0.50242,-1.04571 1.02733,-2.08349 1.63145,-3.07475 0.7869,-1.26955 1.64595,-2.49079 2.6267,-3.61995 1.21198,-1.43433 2.46949,-2.83112 3.84784,-4.10932 1.37335,-1.25291 2.83459,-2.394 4.43952,-3.34034 1.08511,-0.67262 2.18229,-1.32686 3.29851,-1.94667 0.97814,-0.53745 1.96472,-1.06019 2.9197,-1.63865 1.02677,-0.60922 2.03925,-1.2443 3.0887,-1.81385 1.19247,-0.60944 2.42541,-1.11606 3.69281,-1.54924 1.33787,-0.48315 2.69026,-0.91969 4.06591,-1.28365 0.34671,-0.0938 0.6945,-0.18365 1.0423,-0.27337 -0.24612,-0.55893 -0.33949,-1.16284 -0.27284,-1.7658 z m 86.7291,0 c 0.53901,0.11263 1.07762,0.22693 1.61591,0.34314 0.14902,-0.12777 0.30927,-0.24231 0.47956,-0.34314 z m 6.02959,0 c 0.72472,0.33287 1.48002,0.84431 2.24173,1.56737 0.46781,0.44407 0.99158,0.77964 1.5136,1.15599 1.13782,0.81227 2.24859,1.65933 3.3445,2.52698 1.07005,0.84248 2.11021,1.72238 3.17656,2.56934 1.28161,1.02981 2.55053,2.07415 3.84005,3.09438 0.93755,0.74168 1.88056,1.47643 2.82102,2.21435 -0.78322,-3.70784 1.21216,-6.00014 3.55433,-5.99342 1.78882,0.005 3.77849,1.35017 4.88445,4.42865 0.1221,0.33986 0.24585,0.67982 0.38962,1.01132 0.74121,1.76784 1.55956,3.50157 2.3699,5.23843 0.92562,2.02364 1.81377,4.06432 2.65925,6.12262 0.841,0.80213 1.69886,1.58657 2.52442,2.4045 0.32324,0.31782 0.62695,0.65257 0.91672,0.99891 v -27.33942 z m -31.02343,3.78635 c -0.88667,0.62859 -2.08026,1.11305 -3.60442,1.33376 -0.9765,0.14142 -1.93638,0.38894 -2.90163,0.59272 -1.45775,0.28022 -2.90306,0.61706 -4.3434,0.97462 -1.08307,0.25839 -2.14405,0.59764 -3.20757,0.92501 -1.65793,0.547 -3.34624,0.98338 -5.04156,1.39631 -1.74453,0.42093 -3.49483,0.82169 -5.22655,1.29344 -1.14922,0.30255 -2.27804,0.66662 -3.39463,1.07178 -0.90673,0.32578 -1.81301,0.64238 -2.66391,1.09762 -0.89873,0.50567 -1.77495,1.05085 -2.66184,1.57716 -1.03544,0.62735 -2.10473,1.19562 -3.16521,1.77871 -0.98139,0.54811 -1.95019,1.12099 -2.9042,1.71564 -1.14075,0.67146 -2.19125,1.45973 -3.15536,2.36368 -1.11377,1.03738 -2.12686,2.17286 -3.10627,3.33571 -0.70516,0.80708 -1.3245,1.67788 -1.88259,2.59106 -0.441,0.73586 -0.8283,1.50358 -1.19681,2.27791 -0.28832,0.68093 -0.6227,1.34088 -0.92914,2.01332 -0.35102,0.81388 -0.76824,1.59512 -1.21957,2.35696 -0.42106,0.64738 -0.80915,1.31643 -1.16168,2.00348 -0.32647,0.71178 -0.73567,1.39038 -1.02372,2.11926 -0.2262,0.57282 -0.45588,1.14437 -0.68729,1.71513 -0.1492,0.34703 -0.24574,0.7144 -0.35761,1.07487 -0.17539,0.69069 -0.34337,1.3857 -0.53226,2.07481 -0.20116,0.69122 -0.33472,1.39967 -0.47646,2.10479 -0.19873,1.08167 -0.49956,2.14 -0.81907,3.19103 -0.2748,0.81635 -0.50575,1.64187 -0.63148,2.49441 -0.1169,0.80722 -0.15923,1.62269 -0.18913,2.43705 -0.0318,0.99267 -0.0379,1.98607 -0.0439,2.97916 -0.006,0.88683 -0.007,1.77395 -0.008,2.66081 v 2.52182 c -1e-4,0.72279 0,1.44553 0,2.16834 -0.006,0.55764 -0.0103,1.11387 0.0579,1.66812 0.11277,0.76507 0.16116,1.53749 0.23874,2.30632 0.0544,0.6532 0.18986,1.29418 0.30956,1.93733 0.0838,0.53597 0.22394,1.06032 0.35293,1.58647 0.19203,0.8151 0.39174,1.62806 0.55451,2.44946 0.1224,0.83727 0.34491,1.65433 0.51779,2.4815 0.17857,0.88752 0.28038,1.78821 0.35346,2.68978 0.054,0.67956 0.0655,1.36091 0.0755,2.04224 0.008,0.63799 0.009,1.27606 0.0114,1.9141 -0.0183,0.52239 0.0101,1.04061 0.0522,1.56062 0.006,0.23963 0.0153,0.48276 0.0718,0.71572 1.70527,7.03869 -5.35363,9.06677 -7.79436,3.63181 v 64.40953 H 614.2895 v -90.33867 c -0.79396,-0.70554 -1.52299,-1.73096 -2.08825,-3.11402 -0.25958,-0.63524 -0.6132,-1.23224 -0.93792,-1.8366 -0.86598,-1.50418 -1.46709,-3.12904 -1.9725,-4.78317 -0.34247,-1.30021 -0.67297,-2.60289 -1.01751,-3.9026 -0.28032,-0.98486 -0.44439,-1.99401 -0.54467,-3.0112 -0.0843,-0.91559 -0.0707,-1.83607 -0.11938,-2.7533 -0.0492,-0.88284 -0.12414,-1.76676 -0.34104,-2.62568 -0.28284,-1.25661 -0.71885,-2.46422 -1.16168,-3.67059 -0.75637,-2.03102 -1.52983,-4.05611 -2.32442,-6.0725 -0.0512,-0.13023 -0.10451,-0.25956 -0.15605,-0.38963 -0.31359,-0.28109 -0.6304,-0.55877 -0.95862,-0.82216 -1.03192,-0.80246 -2.10751,-1.54776 -3.1569,-2.32699 -1.73254,-1.26735 -3.47694,-2.51986 -5.16972,-3.84008 -1.83303,-1.42809 -3.66098,-2.8625 -5.48338,-4.30414 -1.2954,-1.0251 -2.57067,-2.07433 -3.85816,-3.10885 -1.06015,-0.8446 -2.09843,-1.71651 -3.16155,-2.55746 -0.99656,-0.78952 -2.00663,-1.56012 -3.04221,-2.29807 -0.37349,-0.27035 -0.75142,-0.5353 -1.11879,-0.81388 -0.97097,0.2195 -2.13778,0.23018 -3.49332,-0.0641 -1.9504,-0.42338 -3.90705,-0.81639 -5.86219,-1.2175 -2.34942,-0.48879 -4.69974,-0.97436 -7.059,-1.41335 -2.43047,-0.44919 -4.86524,-0.87617 -7.28999,-1.35546 -1.65391,-0.30139 -3.28435,-0.73644 -4.94234,-1.01338 z" /></clipPath><linearGradient
       inkscape:collect="always"
       xlink:href="#linearGradient9215"
       id="linearGradient6548"
       gradientUnits="userSpaceOnUse"
       gradientTransform="matrix(0.6601095,0,0,0.6601095,-986.52737,913.57731)"
       x1="839.26239"
       y1="-1009.6912"
       x2="961.02582"
       y2="-904.94556" /><linearGradient
       inkscape:collect="always"
       xlink:href="#linearGradient14746"
       id="linearGradient14738"
       x1="948.73602"
       y1="277.89825"
       x2="955.42749"
       y2="294.71371"
       gradientUnits="userSpaceOnUse"
       gradientTransform="translate(-1343.0396,9.736879)" /><linearGradient
       inkscape:collect="always"
       xlink:href="#linearGradient24283"
       id="linearGradient14969"
       gradientUnits="userSpaceOnUse"
       gradientTransform="matrix(1.003898,0,0,1.003898,-1346.4552,8.787014)"
       x1="930.41156"
       y1="235.49992"
       x2="969.48114"
       y2="303.30005" /></defs><g
     inkscape:groupmode="layer"
     id="layer7"
     inkscape:label="ILUSTRACIONES"
     transform="translate(451.6363,-214.11233)"><path
       style="display:inline;opacity:0.45666;mix-blend-mode:normal;fill:#030128;fill-opacity:1;stroke:#030128;stroke-width:7.543;stroke-dasharray:none;stroke-opacity:1;filter:url(#filter3968-0)"
       d="m 906.65696,-844.14115 c -0.734,-0.49264 -3.64957,-3.15602 -6.47904,-5.91862 -2.82948,-2.7626 -8.31064,-8.1184 -12.18036,-11.9018 -3.86972,-3.78338 -10.66423,-10.42049 -15.09891,-14.74913 -30.43522,-29.70756 -35.99366,-36.9539 -41.83755,-54.54208 -21.23846,-63.92092 39.5549,-123.31392 103.77594,-101.38552 46.13337,15.7523 67.88416,68.77969 46.07267,112.32309 -6.26967,12.51648 -11.04508,17.83392 -50.89129,56.66775 -23.72696,23.12413 -21.16207,20.98249 -23.36146,19.50631 z m 11.2629,-42.18507 c 58.19351,-8.04604 82.79754,-79.00717 41.63426,-120.07878 -41.80205,-41.7088 -113.3836,-18.9547 -122.54476,38.95426 -7.29007,46.08147 34.11374,87.5948 80.9105,81.12452 z"
       id="path6442"
       sodipodi:nodetypes="sssssssssssss"
       transform="matrix(0.66010949,0,0,0.66010949,-986.69661,913.15461)" /><path
       id="circle6444"
       style="display:inline;opacity:0.623679;fill:#030128;stroke:#030128;stroke-width:8.23035;stroke-linecap:round;paint-order:stroke markers fill;filter:url(#filter4026-7)"
       transform="matrix(0.66010949,0,0,0.66010949,-986.69661,913.15461)"
       d="m 979.99773,-966.9679 a 72.445854,72.445854 0 0 1 -72.44585,72.44586 72.445854,72.445854 0 0 1 -72.44585,-72.44586 72.445854,72.445854 0 0 1 72.44585,-72.4458 72.445854,72.445854 0 0 1 72.44585,72.4458 z"
       inkscape:export-filename="svg\circle6444.svg"
       inkscape:export-xdpi="96"
       inkscape:export-ydpi="96" /><path
       style="fill:url(#linearGradient14738);fill-opacity:1;stroke:none;stroke-width:0.264583;stroke-linecap:round;stroke-dasharray:none;stroke-opacity:1"
       d="m -427.6411,278.19769 11.18732,0.0116 c 2.64849,0.0175 2.47309,-3.65742 0,-3.63442 l -3.52489,0.0618 c 1.61438,0 1.62058,-2.59301 0.007,-2.59301 l -4.47942,0.076 c -0.11475,-1.45498 -1.16389,-2.64896 -2.59622,-3.2868 6.99187,-32.62674 41.26744,-40.0934 62.28834,-25.35372 15.9801,11.20507 24.2229,36.22845 8.9472,57.03359 -4.3022,-5.28434 -11.2795,-2.08943 -13.196,3.83555 -1.6718,-0.0141 -3.3643,0.20639 -4.2465,0.98559 -0.4138,0.3655 -0.6877,0.88261 -1.2086,1.62552 -0.523,0.74586 -1.0574,1.02735 -1.7062,1.06065 h -15.4436 c -2.1433,0 -1.97042,3.8002 0.17288,3.8208 h 4.66147 c 1.317,0 1.05975,2.13508 -0.27425,2.13508 l -8.13935,-0.48139 c -0.838,-3.35268 -4.71485,-7.14396 -8.77157,-7.49202 l -5.88436,0.013 c -2.26979,-0.61937 -2.62309,-2.89729 -0.85114,-3.93197 l 10.36926,1.8e-4 c 2.45887,0 2.19286,-3.66026 -0.26601,-3.66026 l -18.74644,-0.071 c -1.72112,-0.34376 -2.756,-2.93342 -1.37519,-4.20584 l 34.67435,1.8e-4 c 2.4523,0 2.20675,-3.51924 -0.24555,-3.51924 l -38.55152,0.25449 c -0.52188,-1.3272 -0.9996,-2.67244 -1.38032,-4.0573 l 4.80898,-0.0618 c 2.08156,0 2.08156,-3.25887 -0.002,-3.25887 l -5.57352,0.0706 c -0.3399,-1.79002 -0.57097,-3.58202 -0.65439,-5.3767 z"
       id="path11770"
       sodipodi:nodetypes="cccccccsccsscccccccccccccccccccccc" /><path
       style="fill:#f3a3ef;stroke-width:0.265614;stroke-linecap:round"
       d="m -427.75163,278.19521 0.25864,0.003 0.006,0.0967 c 0.27259,4.11369 7.63485,0.5339 11.47238,0.79203 2.4827,0 3.32606,-5.24264 0.84336,-5.21955 l -2.90401,0.17534 c 1.6206,0 1.05836,-2.66686 -0.56154,-2.66686 l -5.41245,0.39729 c -0.10779,-1.36654 -1.37499,-2.19656 -2.69329,-2.83882 -0.0383,-0.0187 -0.11182,-0.0227 -0.15015,-0.0411 -0.0525,-0.0252 -0.18274,-0.0719 -0.23626,-0.0953 5.80302,-32.57891 42.40921,-41.66504 62.98299,-25.47885 15.3987,12.11481 23.6312,35.8395 8.296,56.72574 -4.319,-5.30494 -11.1224,-1.90496 -13.04636,4.04311 -1.67842,-0.0141 -3.36098,0.67022 -4.24658,1.45245 -0.4154,0.36693 -0.6903,0.88605 -1.2133,1.63186 -0.525,0.74877 -1.27197,0.21284 -1.92337,0.24627 l -15.29333,0.81851 c -2.1516,0 -2.1516,3.69647 0,3.71715 l 4.595,-0.0207 c 1.3221,0 1.3221,2.28263 -0.017,2.28263 l -7.89159,-0.46435 c -0.8413,-3.36575 -4.23322,-7.20544 -8.30582,-7.55486 l -5.89165,-0.0124 c -2.2786,-0.62178 -2.79883,-1.9247 -1.01993,-2.96341 l 10.07523,0.51808 c 2.4685,0 2.36928,-5.86386 -0.0992,-5.86386 l -18.85257,-0.0382 c -1.7278,-0.3451 -2.83595,-1.53029 -1.44975,-2.80767 l 36.20181,-0.0534 c 2.4618,0 2.27471,-4.79581 -0.18719,-4.79581 -12.90057,0.0852 -27.2999,0.68095 -40.51412,0.85183 -0.5239,-1.33237 -1.03657,-2.82032 -1.41877,-4.21058 0.0773,-0.002 0.17831,0.002 0.25543,0.002 0,0 0.0305,0.13153 0.029,0.13251 1.97705,0 3.87604,0.27602 5.81658,0.40426 2.0897,0 2.48658,-4.01571 0.39688,-4.01571 -2.4108,0.11734 -4.72003,0.32086 -7.23241,0.35202 -0.31561,-1.83683 -0.66907,-5.50097 -0.66907,-5.50097 z"
       id="path35650"
       sodipodi:nodetypes="ccscccccsscsccssccccccccccccccccccccccc" /><path
       style="fill:url(#linearGradient14969);stroke-width:0.265614;stroke-linecap:round"
       d="m -427.48838,278.29428 11.231,0.0116 c 0.26072,0 0.58298,0.0793 0.78894,0.007 1.30861,-0.46033 1.55606,-2.49378 0.62897,-3.38026 -0.31647,-0.30261 -0.85245,-0.28046 -1.41791,-0.2752 l -3.03793,-0.0424 c 1.4663,0 1.14244,-2.10819 -0.0441,-2.50072 -0.12486,-0.0413 -0.29542,0.002 -0.44965,0.002 l -4.4898,7.2e-4 c -0.1152,-1.46065 -1.1755,-2.58372 -2.6134,-3.22405 7.0191,-32.75392 41.4283,-40.24968 62.5312,-25.45255 16.0423,11.24875 23.9768,36.06447 8.6416,56.95071 -4.319,-5.30494 -10.9831,-1.79237 -12.907,4.1557 -1.6784,-0.0141 -3.3775,0.2072 -4.2631,0.98943 -0.4154,0.36693 -0.6903,0.88605 -1.2133,1.63186 -0.525,0.74877 -1.0615,1.03135 -1.7129,1.06478 h -15.5038 c -2.1516,0 -2.1516,3.69647 0,3.71715 l 4.595,-0.0207 c 1.3221,0 1.3221,2.28263 -0.017,2.28263 l -8.8011,-0.0344 c -0.8413,-3.36575 -4.1032,-7.62064 -8.1758,-7.97006 l -5.9073,0.013 c -2.2786,-0.62178 -3.1438,-2.90037 -1.3649,-3.93908 l 10.6531,-0.0347 c 2.4685,0 2.4685,-3.64798 0,-3.64798 l -18.8195,-0.0713 c -1.7278,-0.3451 -3.1336,-2.90281 -1.7474,-4.18019 l 34.9299,-0.0419 c 2.4618,0 2.4618,-3.53296 -10e-5,-3.53296 l -38.7017,0.25548 c -0.5239,-1.33237 -1.00503,-2.68188 -1.38723,-4.07214 l 4.82923,-0.063 c 2.0897,0 2.0897,-3.27157 0,-3.27157 l -5.5953,0.0709 c -0.3412,-1.79699 -0.5732,-3.59598 -0.6569,-5.39765 z"
       id="path35647"
       sodipodi:nodetypes="ccssccscccsccsscccccccccccccccccccccc" /><path
       id="path35644"
       style="fill:#fefefe;stroke-width:0.965866"
       d="m -381.64558,270.027 c 0,10.8224 -8.77355,19.59569 -19.59627,19.59569 -7.86327,0 -14.6374,-4.63131 -17.75824,-11.31483 l 2.8777,-0.006 c 2.32418,-0.005 2.32418,-3.64189 0.005,-3.6422 l -3.55836,-0.03 c 1.4251,0 1.4251,-2.51515 -3e-5,-2.51348 l -1.05185,0.001 c -0.0729,-0.68692 -0.11022,-1.38444 -0.11022,-2.09068 0,-10.8224 8.77355,-19.5957 19.59627,-19.5957 10.82272,0 19.59627,8.7733 19.59627,19.5957 z"
       sodipodi:nodetypes="sscsccscssss" /><path
       style="fill:#e3e3e3;stroke-width:0.689135;stroke-linecap:round;paint-order:stroke markers fill"
       d="m -383.49568,261.71551 c 5.47711,11.46922 -1.29661,23.55646 -11.59919,26.91813 -8.33803,2.72063 -19.29849,0.0297 -24.09878,-10.74881 3.03178,6.78284 11.2681,8.48544 19.26383,7.51285 10.94896,-1.33182 20.21746,-11.19161 16.43414,-23.68217 z"
       id="path35641"
       sodipodi:nodetypes="cscsc"
       clip-path="none" /><path
       style="color:#000000;fill:#4e30b7;stroke-width:0.853697;stroke-linecap:round;-inkscape-stroke:none;paint-order:stroke markers fill"
       d="m -413.81777,267.74098 a 0.99999995,0.99999995 0 0 0 -1.01043,0.98875 c -0.0444,3.96089 5.49021,6.59019 9.00385,3.21638 a 0.99999995,0.99999995 0 0 0 0.0299,-1.41389 0.99999995,0.99999995 0 0 0 -1.41398,-0.0299 c -2.40298,2.30737 -5.64293,0.23093 -5.62074,-1.74905 a 0.99999995,0.99999995 0 0 0 -0.98875,-1.01214 z"
       id="path35638" /><path
       style="color:#000000;fill:#492eaf;stroke-width:0.853697;stroke-linecap:round;-inkscape-stroke:none;paint-order:stroke markers fill"
       d="m -403.71009,274.23709 a 0.99999995,0.99999995 0 0 0 -0.8554,1.12714 c 0.53578,3.92487 6.39743,5.71294 9.37897,1.8608 a 0.99999995,0.99999995 0 0 0 -0.17834,-1.40228 0.99999995,0.99999995 0 0 0 -1.40399,0.17842 c -2.03897,2.63443 -5.548,1.05287 -5.81581,-0.90867 a 0.99999995,0.99999995 0 0 0 -1.12543,-0.85541 z"
       id="path35635" /><path
       style="color:#000000;fill:#492eaf;stroke-width:0.853697;stroke-linecap:round;-inkscape-stroke:none;paint-order:stroke markers fill"
       d="m -391.47158,273.1733 a 0.99999995,0.99999995 0 0 0 -0.76534,0.0384 0.99999995,0.99999995 0 0 0 -0.47516,1.33228 c 2.08626,4.40174 8.19591,3.91044 9.56072,0.19174 a 0.99999995,0.99999995 0 0 0 -0.59529,-1.28388 0.99999995,0.99999995 0 0 0 -1.28216,0.5952 c -0.68219,1.85867 -4.44904,2.65022 -5.87583,-0.36009 a 0.99999995,0.99999995 0 0 0 -0.56694,-0.51358 z"
       id="path35632" /><path
       style="fill:#f1f1f1;stroke-width:0.190479;stroke-linecap:round;paint-order:stroke markers fill"
       d="m -373.14737,281.03361 c 3.99419,-0.82561 4.42582,-1.51241 5.00147,-5.69424 0.63122,4.17304 0.99498,4.76909 4.63258,5.69424 -3.77129,0.51153 -4.13215,2.19127 -4.63258,6.08404 -0.59358,-3.86323 -1.03904,-5.49132 -5.00147,-6.08404 z"
       id="path35629"
       sodipodi:nodetypes="ccccc"
       clip-path="none" /><path
       style="fill:#f1f1f1;stroke-width:0.128871;stroke-linecap:round;paint-order:stroke markers fill"
       d="m -362.65331,268.84077 c 2.7023,-0.55857 2.99435,-1.02324 3.38389,-3.85247 0.42693,2.82326 0.67314,3.22654 3.13417,3.85247 -2.55161,0.34609 -2.79568,1.48253 -3.13417,4.11627 -0.40158,-2.61376 -0.70311,-3.7152 -3.38389,-4.11627 z"
       id="path35626"
       sodipodi:nodetypes="ccccc"
       clip-path="none" /><path
       style="fill:#f1f1f1;stroke-width:0.103954;stroke-linecap:round;paint-order:stroke markers fill"
       d="m -370.23277,258.34406 c 2.17992,-0.45058 2.41545,-0.82535 2.72961,-3.10763 0.34439,2.2775 0.54304,2.60275 2.52814,3.10763 -2.05818,0.27925 -2.25495,1.19594 -2.52814,3.32045 -0.32397,-2.10837 -0.56711,-2.9969 -2.72961,-3.32045 z"
       id="path35623"
       sodipodi:nodetypes="ccccc"
       clip-path="none" /><path
       id="path35620"
       clip-path="none"
       style="fill:#f1f1f1;stroke-width:1.47027;stroke-linecap:round;paint-order:stroke markers fill"
       inkscape:transform-center-x="3.0034112e-05"
       inkscape:transform-center-y="2.1346695e-05"
       d="m -383.86711,250.85717 c -0.15386,0.0575 -0.59964,-0.36328 -0.74908,-0.43145 -0.14943,-0.0681 -0.7594,-0.12897 -0.81686,-0.28284 -0.0575,-0.15386 0.36328,-0.59964 0.43145,-0.74907 0.0682,-0.14944 0.12897,-0.7594 0.28284,-0.81687 0.15386,-0.0575 0.59964,0.36329 0.74907,0.43145 0.14944,0.0681 0.7594,0.12898 0.81687,0.28284 0.0575,0.15387 -0.36329,0.59964 -0.43145,0.74908 -0.0681,0.14944 -0.12898,0.7594 -0.28284,0.81686 z" /><path
       id="path35617"
       clip-path="none"
       style="fill:#f1f1f1;stroke-width:1.47027;stroke-linecap:round;paint-order:stroke markers fill"
       inkscape:transform-center-x="2.7264566e-05"
       inkscape:transform-center-y="2.6245014e-05"
       d="m -373.75712,245.70605 c -0.15386,0.0575 -0.59964,-0.36328 -0.74908,-0.43145 -0.14943,-0.0681 -0.7594,-0.12897 -0.81686,-0.28284 -0.0575,-0.15386 0.36328,-0.59964 0.43145,-0.74907 0.0682,-0.14944 0.12897,-0.7594 0.28284,-0.81687 0.15386,-0.0575 0.59964,0.36329 0.74907,0.43145 0.14944,0.0681 0.7594,0.12898 0.81687,0.28284 0.0575,0.15387 -0.36329,0.59964 -0.43145,0.74908 -0.0681,0.14944 -0.12898,0.7594 -0.28284,0.81686 z" /><path
       style="fill:#e79beb;fill-opacity:1;stroke-width:0.262137"
       d="m 548.22161,-453.6588 c -0.56233,-0.37535 -2.79597,-2.40463 -4.96364,-4.50951 -2.16767,-2.10487 -6.36682,-6.18555 -9.33144,-9.0682 -2.96461,-2.88263 -8.16994,-7.93958 -11.56736,-11.23764 -23.31664,-22.63475 -27.6532,-26.59143 -32.13024,-39.99219 -16.27089,-48.70253 30.38148,-95.51963 79.58159,-78.81196 35.34307,12.00197 52.00649,52.40453 35.29656,85.58105 -4.80322,9.53656 -8.46168,13.58801 -38.98813,43.17622 -18.17736,17.61872 -16.21238,15.98696 -17.89734,14.86223 z m 14.10411,-28.54338 c 44.58239,-6.13041 60.45925,-64.42103 28.92383,-95.71426 -32.02482,-31.77871 -89.36695,-13.81614 -96.38539,30.30575 -3.45683,21.73157 5.81334,46.04084 23.07336,57.2619 10.62591,6.90811 30.7271,10.02511 44.3882,8.14661 z"
       id="path3122"
       sodipodi:nodetypes="ssssssssssssss"
       transform="matrix(0.84561664,0,0,0.84561664,-853.01662,730.68388)" /><path
       id="path35614"
       clip-path="none"
       style="fill:#f1f1f1;stroke-width:1.10883;stroke-linecap:round;paint-order:stroke markers fill"
       inkscape:transform-center-x="-1.2542398e-05"
       inkscape:transform-center-y="3.499375e-05"
       d="m -393.69024,243.37818 c -0.11604,0.0434 -0.45223,-0.27398 -0.56493,-0.32539 -0.1127,-0.0514 -0.57272,-0.0973 -0.61606,-0.21331 -0.0434,-0.11604 0.27398,-0.45223 0.32539,-0.56493 0.0514,-0.1127 0.0973,-0.57272 0.21331,-0.61606 0.11604,-0.0434 0.45224,0.27398 0.56493,0.32539 0.1127,0.0514 0.57272,0.0973 0.61606,0.21331 0.0434,0.11604 -0.27398,0.45223 -0.32539,0.56493 -0.0514,0.1127 -0.0973,0.57272 -0.21331,0.61606 z" /><path
       id="path35611"
       clip-path="none"
       style="fill:#f1f1f1;stroke-width:1.47027;stroke-linecap:round;paint-order:stroke markers fill"
       inkscape:transform-center-x="3.4235133e-05"
       inkscape:transform-center-y="-4.1313008e-05"
       d="m -371.66403,266.50999 c -0.15386,-0.0575 -0.59964,0.36328 -0.74908,0.43145 -0.14943,0.0681 -0.7594,0.12897 -0.81686,0.28284 -0.0575,0.15386 0.36328,0.59964 0.43145,0.74907 0.0682,0.14944 0.12897,0.7594 0.28284,0.81687 0.15386,0.0575 0.59964,-0.36329 0.74907,-0.43145 0.14944,-0.0681 0.7594,-0.12898 0.81687,-0.28284 0.0575,-0.15387 -0.36329,-0.59964 -0.43145,-0.74908 -0.0681,-0.14944 -0.12898,-0.7594 -0.28284,-0.81686 z" /><path
       id="path35608"
       clip-path="none"
       style="fill:#f1f1f1;stroke-width:1.22093;stroke-linecap:round;paint-order:stroke markers fill"
       inkscape:transform-center-x="1.2294411e-05"
       inkscape:transform-center-y="-3.231447e-06"
       d="m -353.04496,271.59239 c -0.12777,-0.0478 -0.49795,0.30168 -0.62204,0.35828 -0.1241,0.0566 -0.63062,0.10711 -0.67834,0.23488 -0.0477,0.12777 0.30168,0.49795 0.35829,0.62204 0.0566,0.12409 0.1071,0.63062 0.23487,0.67833 0.12777,0.0478 0.49795,-0.30167 0.62204,-0.35828 0.12409,-0.0566 0.63062,-0.1071 0.67834,-0.23487 0.0478,-0.12777 -0.30168,-0.49795 -0.35829,-0.62204 -0.0566,-0.1241 -0.1071,-0.63062 -0.23487,-0.67834 z" /><path
       id="path35605"
       clip-path="none"
       style="fill:#f1f1f1;stroke-width:1.22093;stroke-linecap:round;paint-order:stroke markers fill"
       inkscape:transform-center-x="3.1331787e-05"
       inkscape:transform-center-y="1.6228542e-05"
       d="m -368.71848,299.22601 c 0.0478,0.12777 -0.30168,0.49795 -0.35828,0.62204 -0.0566,0.1241 -0.10711,0.63062 -0.23488,0.67834 -0.12777,0.0478 -0.49795,-0.30168 -0.62204,-0.35829 -0.12409,-0.0566 -0.63062,-0.1071 -0.67833,-0.23487 -0.0478,-0.12777 0.30167,-0.49795 0.35828,-0.62204 0.0566,-0.12409 0.1071,-0.63062 0.23487,-0.67834 0.12777,-0.0478 0.49795,0.30168 0.62204,0.35829 0.1241,0.0566 0.63062,0.1071 0.67834,0.23487 z" /><path
       id="path35602"
       clip-path="none"
       style="fill:#f1f1f1;stroke-width:1.22093;stroke-linecap:round;paint-order:stroke markers fill"
       inkscape:transform-center-x="-6.132753e-05"
       inkscape:transform-center-y="7.8911952e-06"
       d="m -356.47278,290.76536 c 0.0478,0.12777 -0.30168,0.49795 -0.35828,0.62204 -0.0566,0.1241 -0.10711,0.63062 -0.23488,0.67834 -0.12777,0.0478 -0.49795,-0.30168 -0.62204,-0.35829 -0.12409,-0.0566 -0.63062,-0.1071 -0.67833,-0.23487 -0.0478,-0.12777 0.30167,-0.49795 0.35828,-0.62204 0.0566,-0.12409 0.1071,-0.63062 0.23487,-0.67834 0.12777,-0.0477 0.49795,0.30168 0.62204,0.35829 0.1241,0.0566 0.63062,0.1071 0.67834,0.23487 z" /><path
       id="path35599"
       clip-path="none"
       style="fill:#f1f1f1;stroke-width:1.22093;stroke-linecap:round;paint-order:stroke markers fill"
       inkscape:transform-center-x="3.5575968e-05"
       inkscape:transform-center-y="1.3142805e-05"
       d="m -374.54498,291.84999 c 0.0478,0.12777 -0.30168,0.49795 -0.35828,0.62204 -0.0566,0.1241 -0.10711,0.63062 -0.23488,0.67834 -0.12777,0.0478 -0.49795,-0.30168 -0.62204,-0.35829 -0.12409,-0.0566 -0.63062,-0.1071 -0.67833,-0.23487 -0.0478,-0.12777 0.30167,-0.49795 0.35828,-0.62204 0.0566,-0.12409 0.1071,-0.63062 0.23487,-0.67834 0.12777,-0.0478 0.49795,0.30168 0.62204,0.35829 0.1241,0.0566 0.63062,0.1071 0.67834,0.23487 z" /><path
       style="fill:#93c8fe;fill-opacity:1;stroke-width:0.267839"
       d="m 549.67366,-450.35548 c -0.57298,-0.38456 -2.84895,-2.46366 -5.0577,-4.62022 -2.20876,-2.15655 -6.48749,-6.33742 -9.50829,-9.29084 -3.0208,-2.9534 -8.32477,-8.1345 -11.78659,-11.51354 -23.7585,-23.19047 -28.09755,-28.84714 -32.65944,-42.57691 -16.57927,-49.89826 30.87754,-96.26193 81.01009,-79.14407 36.01287,12.29664 52.99208,53.69114 35.96548,87.68221 -4.89426,9.77068 -8.62206,13.9216 -39.72701,44.23626 -18.52186,18.05128 -16.51964,16.37946 -18.23654,15.22711 z m 8.7921,-32.93072 c 45.42731,-6.28094 64.63383,-61.67497 32.50075,-93.73649 -32.63173,-32.55893 -88.51008,-14.79651 -95.66151,30.40866 -5.69081,35.97235 26.63004,68.3787 63.16076,63.32783 z"
       id="path6446"
       sodipodi:nodetypes="sssssssssssss"
       clip-path="url(#clipPath15263-8)"
       transform="matrix(0.84561664,0,0,0.84561664,-853.01665,730.68388)" /><path
       style="fill:url(#linearGradient6548);fill-opacity:1;stroke-width:0.226489"
       d="m -388.03424,350.27851 c -0.48452,-0.3252 -2.40912,-2.08332 -4.27687,-3.90694 -1.86777,-1.82361 -5.48593,-5.35903 -8.04037,-7.85649 -2.55444,-2.49744 -7.09103,-7.07833 -10.2008,-9.73604 -16.95891,-14.88235 -30.99145,-29.45361 -30.29583,-54.05731 1.0075,-34.62179 35.14186,-61.25779 71.4158,-48.87198 30.45308,10.39826 44.81099,45.40213 30.41301,74.14554 -4.13866,8.26225 -7.29095,11.77234 -33.59382,37.40692 -15.66239,15.26446 -13.96928,13.85074 -15.42112,12.8763 z m 7.43475,-27.84677 c 38.41409,-5.31127 54.65544,-52.15338 27.48317,-79.26514 -27.59393,-27.53237 -74.84559,-12.51217 -80.89296,25.71407 -4.81225,30.41882 22.5188,57.82217 53.40979,53.55107 z"
       id="path6450"
       sodipodi:nodetypes="sssccssssssss" /></g></svg>
