<?xml version="1.0" encoding="UTF-8" standalone="no"?>
<!-- Created with Inkscape (http://www.inkscape.org/) -->

<svg
   width="172.35115"
   height="45.109459"
   viewBox="0 0 45.601242 11.935211"
   version="1.1"
   id="svg5"
   xml:space="preserve"
   inkscape:version="1.2.2 (732a01da63, 2022-12-09)"
   sodipodi:docname="diseñosOniria.svg"
   inkscape:export-filename="svg\oniria_with_moon.svg"
   inkscape:export-xdpi="96"
   inkscape:export-ydpi="96"
   xmlns:inkscape="http://www.inkscape.org/namespaces/inkscape"
   xmlns:sodipodi="http://sodipodi.sourceforge.net/DTD/sodipodi-0.dtd"
   xmlns="http://www.w3.org/2000/svg"
   xmlns:svg="http://www.w3.org/2000/svg"><sodipodi:namedview
     id="namedview7"
     pagecolor="#505050"
     bordercolor="#eeeeee"
     borderopacity="1"
     inkscape:showpageshadow="0"
     inkscape:pageopacity="0"
     inkscape:pagecheckerboard="0"
     inkscape:deskcolor="#505050"
     inkscape:document-units="mm"
     showgrid="false"
     inkscape:zoom="1.4142136"
     inkscape:cx="882.11571"
     inkscape:cy="1024.5977"
     inkscape:window-width="1920"
     inkscape:window-height="1009"
     inkscape:window-x="-8"
     inkscape:window-y="-8"
     inkscape:window-maximized="1"
     inkscape:current-layer="g102750"
     showguides="true"><sodipodi:guide
       position="437.47729,-517.41866"
       orientation="0,-1"
       id="guide21335"
       inkscape:locked="false" /><sodipodi:guide
       position="20.378477,316.56128"
       orientation="1,0"
       id="guide49534"
       inkscape:locked="false" /></sodipodi:namedview><defs
     id="defs2" /><g
     inkscape:groupmode="layer"
     id="layer8"
     inkscape:label="Autenticación"
     transform="translate(143.78979,-37.38362)"><ellipse
       style="fill:#292d3e;fill-opacity:1;stroke:none;stroke-width:0.293956;stroke-linecap:butt;stroke-dasharray:none;stroke-opacity:1"
       id="path107934"
       cx="-137.82581"
       cy="43.355003"
       rx="5.9640002"
       ry="5.9638247"
       inkscape:export-filename="svg\path107934.svg"
       inkscape:export-xdpi="96"
       inkscape:export-ydpi="96" /><g
       id="g30889"
       transform="matrix(0.36312079,0,0,0.34448995,-275.83247,656.68366)"><g
         id="g30887"
         transform="translate(-3.5365,-1221.0234)"><path
           style="color:#000000;fill:#292d3e;stroke-linecap:round;-inkscape-stroke:none;paint-order:stroke markers fill"
           d="m 417.31721,-566.50637 c -3.66764,-0.24984 -5.84047,1.28986 -8.2253,3.46222 -3.17979,2.89649 -5.83108,6.96001 -4.88847,14.3474 0.22415,1.75645 1.8294,2.99886 3.58594,2.77539 1.75645,-0.22415 2.78165,-1.87819 2.71091,-3.69301 -0.2398,-6.15184 0.77997,-8.50057 2.05575,-9.66269 2.72678,-2.03553 4.90533,-0.49226 5.38982,1.76414 0.35227,1.66393 0.45254,4.43717 0.6482,8.56226 0.0832,1.76975 1.58575,3.13672 3.35547,3.05274 1.76897,-0.0843 3.13477,-1.58648 3.05078,-3.35547 -0.18414,-3.88237 0.29827,-7.27332 -0.32719,-10.20796 -0.84404,-3.96022 -3.01122,-6.50023 -7.35591,-7.04502 z"
           id="path30867"
           sodipodi:nodetypes="csscscccccsc" /><path
           style="color:#000000;fill:#292d3e;stroke-linecap:round;-inkscape-stroke:none;paint-order:stroke markers fill"
           d="m 407.62446,-566.62585 c -1.77196,10e-4 -3.54021,2.16434 -3.53804,3.61523 l -1.9e-4,13.12442 c 10e-4,1.77196 1.43898,3.20725 3.21094,3.20507 1.77044,-0.002 3.20421,-1.43854 3.20312,-3.20898 l -0.0117,-13.83984 c -10e-4,-1.7712 -1.09293,-2.897 -2.86413,-2.8959 z"
           id="path30869"
           sodipodi:nodetypes="sccsccs" /><path
           style="color:#000000;fill:#292d3e;stroke-linecap:round;-inkscape-stroke:none;paint-order:stroke markers fill"
           d="m 433.67578,-566.03516 a 3.207,3.207 0 0 0 -3.20703,3.20704 v 13.72265 a 3.207,3.207 0 0 0 3.20703,3.20703 3.207,3.207 0 0 0 3.20703,-3.20703 v -13.72265 a 3.207,3.207 0 0 0 -3.20703,-3.20704 z"
           id="path30871" /><circle
           style="fill:#292d3e;stroke-width:13.0106;stroke-linecap:round;stroke-opacity:0.656818;paint-order:stroke markers fill"
           id="circle30873"
           cx="433.59357"
           cy="-571.47473"
           r="3.5954335" /><path
           style="color:#000000;fill:#292d3e;stroke-linecap:round;-inkscape-stroke:none;paint-order:stroke markers fill"
           d="m 453.72102,-566.61081 c -0.79829,-0.29414 -1.64616,-0.17182 -2.45313,0.0976 -0.79224,0.2645 -1.76332,0.67829 -2.57565,1.87376 -1.34489,1.97919 -3.94883,1.99179 -5.00638,4.1282 -1.48414,2.99819 -1.31256,6.34678 -1.16992,11.5371 0.0904,1.76912 1.59808,3.12986 3.36719,3.03907 1.76992,-0.0904 3.13097,-1.59929 3.03906,-3.36914 -0.25691,-4.99026 0.0295,-7.39864 0.5,-8.33985 0.4705,-0.94121 1.41988,-1.60442 4.53711,-3.04492 1.608,-0.74354 2.30852,-2.65005 1.56445,-4.25781 -0.35661,-0.7717 -1.00502,-1.37023 -1.80273,-1.66406 z"
           id="path30875"
           sodipodi:nodetypes="sssscccsccss" /><path
           style="color:#000000;fill:#292d3e;stroke-linecap:round;-inkscape-stroke:none;paint-order:stroke markers fill"
           d="m 446.29249,-565.70362 c -1.7712,0.003 -3.88233,4.30748 -3.86709,6.35221 l 0.0769,10.32067 c 0.003,1.77121 1.44168,3.20444 3.21289,3.20118 1.77197,-0.003 3.20551,-1.44288 3.20117,-3.21485 l -0.0293,-14.19531 c -0.003,-1.7712 -0.82334,-2.46716 -2.59454,-2.4639 z"
           id="path30877"
           sodipodi:nodetypes="sscsccss" /><path
           style="color:#000000;fill:#292d3e;stroke-linecap:round;-inkscape-stroke:none;paint-order:stroke markers fill"
           d="m 462.7793,-565.96875 a 3.207,3.207 0 0 0 -3.20508,3.20703 v 13.72266 a 3.207,3.207 0 0 0 3.20703,3.20703 3.207,3.207 0 0 0 3.20703,-3.20703 v -13.72266 a 3.207,3.207 0 0 0 -3.20898,-3.20703 z"
           id="path30879" /><circle
           style="fill:#292d3e;stroke-width:13.0106;stroke-linecap:round;stroke-opacity:0.656818;paint-order:stroke markers fill"
           id="circle30881"
           cx="462.69791"
           cy="-571.40845"
           r="3.5954335" /><path
           style="color:#000000;fill:#292d3e;stroke-linecap:round;-inkscape-stroke:none;paint-order:stroke markers fill"
           d="m 480.76397,-566.5004 c -5.85897,0.0282 -10.03319,4.55327 -10.03319,10.38373 0,5.83045 4.98277,10.45507 10.8418,10.45507 1.88726,0 4.26629,-1.46682 5.37071,-2.57383 2.64803,-2.65426 5.47109,-3.92885 5.47109,-7.88124 0,-4.09434 -3.17073,-4.98313 -5.98305,-7.67556 -1.24539,-1.19229 -3.19736,-2.72006 -5.66736,-2.70817 z m 0.80861,6.45795 c 2.50957,0 4.31055,1.81487 4.31055,3.92578 0,2.1109 -1.80098,3.92382 -4.31055,3.92382 -2.50957,0 -4.31055,-1.81292 -4.31055,-3.92382 0,-2.11091 1.80098,-3.92579 4.31055,-3.92578 z"
           id="path30883"
           sodipodi:nodetypes="ssssssssssss" /><path
           style="color:#000000;fill:#292d3e;stroke-linecap:round;-inkscape-stroke:none;paint-order:stroke markers fill"
           d="m 488.38276,-566.51527 c -1.76515,0.14226 -2.04949,1.18588 -2.01681,2.95645 l -0.0297,14.54566 c 0.0321,1.77133 1.49431,3.18112 3.26563,3.14844 1.77133,-0.032 3.18111,-1.49431 3.14843,-3.26563 l -0.11494,-13.82224 c 0.0145,-2.1392 -2.24437,-3.72454 -4.25261,-3.56268 z"
           id="path30885"
           sodipodi:nodetypes="scccccs" /></g></g><path
       style="fill:#32364b;fill-opacity:1;stroke:none;stroke-width:0.21247;stroke-linecap:round;stroke-dasharray:none;stroke-opacity:1;paint-order:stroke markers fill"
       d="m -140.61045,38.081163 c 3.61698,-1.881901 7.52282,0.30332 8.52781,3.463959 0.66421,2.088898 0.10155,5.818299 -3.48928,7.33143 2.01109,-0.992446 2.74003,-3.454579 2.43993,-5.917781 -0.41095,-3.372986 -3.72957,-5.972958 -7.47846,-4.877608 z"
       id="path30893"
       clip-path="none"
       sodipodi:nodetypes="cscsc" /><path
       style="display:inline;fill:none;fill-opacity:1;stroke:#1b1e2b;stroke-width:0.577302;stroke-linecap:round;stroke-dasharray:none;stroke-opacity:1;paint-order:stroke markers fill"
       d="m -141.8091,43.111581 c -0.0104,0.921694 1.35112,1.651851 2.26904,0.770444"
       id="path30895"
       sodipodi:nodetypes="cc" /><path
       style="display:inline;fill:none;fill-opacity:1;stroke:#1b1e2b;stroke-width:0.577302;stroke-linecap:round;stroke-dasharray:none;stroke-opacity:1;paint-order:stroke markers fill"
       d="m -138.62731,45.124431 c 0.12466,0.913241 1.57851,1.436138 2.35742,0.429787"
       id="path30897"
       sodipodi:nodetypes="cc" /><path
       style="display:inline;fill:none;fill-opacity:1;stroke:#1b1e2b;stroke-width:0.577302;stroke-linecap:round;stroke-dasharray:none;stroke-opacity:1;paint-order:stroke markers fill"
       d="m -132.58151,44.864702 c -0.31756,0.865296 -1.84969,1.064261 -2.39474,-0.0857"
       id="path30899"
       sodipodi:nodetypes="cc" /></g></svg>
