<?xml version="1.0" encoding="UTF-8" standalone="no"?>
<!-- Created with Inkscape (http://www.inkscape.org/) -->

<svg
   width="30.968643"
   height="30.968699"
   viewBox="0 0 8.1937867 8.1938018"
   version="1.1"
   id="svg5"
   xml:space="preserve"
   inkscape:version="1.2.2 (732a01da63, 2022-12-09)"
   sodipodi:docname="diseñosOniria.svg"
   inkscape:export-filename="svg\authentication_page_stars.svg"
   inkscape:export-xdpi="96"
   inkscape:export-ydpi="96"
   xmlns:inkscape="http://www.inkscape.org/namespaces/inkscape"
   xmlns:sodipodi="http://sodipodi.sourceforge.net/DTD/sodipodi-0.dtd"
   xmlns="http://www.w3.org/2000/svg"
   xmlns:svg="http://www.w3.org/2000/svg"><sodipodi:namedview
     id="namedview7"
     pagecolor="#505050"
     bordercolor="#eeeeee"
     borderopacity="1"
     inkscape:showpageshadow="0"
     inkscape:pageopacity="0"
     inkscape:pagecheckerboard="0"
     inkscape:deskcolor="#505050"
     inkscape:document-units="mm"
     showgrid="false"
     inkscape:zoom="0.125"
     inkscape:cx="1076"
     inkscape:cy="815.99998"
     inkscape:window-width="1920"
     inkscape:window-height="1009"
     inkscape:window-x="-8"
     inkscape:window-y="-8"
     inkscape:window-maximized="1"
     inkscape:current-layer="layer1"
     showguides="true"><sodipodi:guide
       position="165.21226,-784.85032"
       orientation="0,-1"
       id="guide21335"
       inkscape:locked="false" /><sodipodi:guide
       position="-251.88656,49.12963"
       orientation="1,0"
       id="guide49534"
       inkscape:locked="false" /></sodipodi:namedview><defs
     id="defs2" /><g
     inkscape:groupmode="layer"
     id="layer8"
     inkscape:label="Autenticación"
     style="display:inline"
     transform="translate(-128.47524,226.30662)"><g
       id="g29975"
       transform="translate(-4.6388083e-6,10.980208)"><path
         sodipodi:type="star"
         style="display:inline;fill:#f1f1f1;fill-opacity:1;stroke:none;stroke-width:1.8;stroke-linecap:round;stroke-dasharray:none;stroke-opacity:1;paint-order:stroke markers fill"
         id="path2079"
         inkscape:flatsided="false"
         sodipodi:sides="4"
         sodipodi:cx="403.25388"
         sodipodi:cy="-197.29655"
         sodipodi:r1="1.4899863"
         sodipodi:r2="0.95359123"
         sodipodi:arg1="1.2133467"
         sodipodi:arg2="1.9987448"
         inkscape:rounded="0.19"
         inkscape:randomized="0"
         inkscape:transform-center-x="5.3729589e-06"
         transform="matrix(0.62656739,0,0,-0.62656739,-123.3118,-353.59131)"
         d="m 403.7752,-195.90075 c -0.18837,0.0704 -0.73412,-0.44476 -0.91707,-0.52821 -0.18295,-0.0834 -0.92971,-0.1579 -1.00006,-0.34627 -0.0704,-0.18837 0.44476,-0.73412 0.52821,-0.91707 0.0835,-0.18295 0.1579,-0.92971 0.34627,-1.00006 0.18837,-0.0704 0.73413,0.44476 0.91707,0.52821 0.18295,0.0834 0.92971,0.1579 1.00006,0.34627 0.0704,0.18837 -0.44476,0.73412 -0.52821,0.91707 -0.0834,0.18295 -0.1579,0.92971 -0.34627,1.00006 z" /><path
         sodipodi:type="star"
         style="display:inline;fill:#f1f1f1;fill-opacity:1;stroke:none;stroke-width:1.8;stroke-linecap:round;stroke-dasharray:none;stroke-opacity:1;paint-order:stroke markers fill"
         id="path2229"
         inkscape:flatsided="false"
         sodipodi:sides="4"
         sodipodi:cx="403.25388"
         sodipodi:cy="-197.29655"
         sodipodi:r1="1.4899863"
         sodipodi:r2="0.95359123"
         sodipodi:arg1="1.2133467"
         sodipodi:arg2="1.9987448"
         inkscape:rounded="0.19"
         inkscape:randomized="0"
         inkscape:transform-center-x="-4.6270414e-06"
         transform="matrix(0.62656739,0,0,0.62656739,-116.8754,-112.78854)"
         d="m 403.7752,-195.90075 c -0.18837,0.0704 -0.73412,-0.44476 -0.91707,-0.52821 -0.18295,-0.0834 -0.92971,-0.1579 -1.00006,-0.34627 -0.0704,-0.18837 0.44476,-0.73412 0.52821,-0.91707 0.0835,-0.18295 0.1579,-0.92971 0.34627,-1.00006 0.18837,-0.0704 0.73413,0.44476 0.91707,0.52821 0.18295,0.0834 0.92971,0.1579 1.00006,0.34627 0.0704,0.18837 -0.44476,0.73412 -0.52821,0.91707 -0.0834,0.18295 -0.1579,0.92971 -0.34627,1.00006 z"
         inkscape:transform-center-y="-5.6751019e-06" /><path
         sodipodi:type="star"
         style="display:inline;fill:#ffffff;fill-opacity:1;stroke:none;stroke-width:0.499999;stroke-linecap:butt;stroke-dasharray:none;stroke-opacity:1;paint-order:stroke markers fill"
         id="path2327"
         inkscape:flatsided="false"
         sodipodi:sides="4"
         sodipodi:cx="18.533472"
         sodipodi:cy="53.285191"
         sodipodi:r1="0.42354"
         sodipodi:r2="0.20922875"
         sodipodi:arg1="1.5707963"
         sodipodi:arg2="2.3561945"
         inkscape:rounded="0.19"
         inkscape:randomized="0"
         d="m 18.533472,53.708731 c -0.05943,0 -0.105923,-0.233569 -0.147947,-0.275593 -0.04202,-0.04202 -0.275593,-0.08852 -0.275593,-0.147947 0,-0.05943 0.233569,-0.105924 0.275593,-0.147947 0.04202,-0.04202 0.08852,-0.275593 0.147947,-0.275593 0.05943,0 0.105923,0.233569 0.147947,0.275593 0.04202,0.04202 0.275593,0.08852 0.275593,0.147947 0,0.05943 -0.233569,0.105923 -0.275593,0.147947 -0.04202,0.04202 -0.08852,0.275593 -0.147947,0.275593 z"
         transform="matrix(7.5983412,0,0,7.5983412,-8.2515206,-638.06898)" /></g></g></svg>
