<?xml version="1.0" encoding="UTF-8" standalone="no"?>
<!-- Created with Inkscape (http://www.inkscape.org/) -->

<svg
   width="8.0716352"
   height="15.868525"
   viewBox="0 0 2.1356201 4.1985473"
   version="1.1"
   id="svg5"
   xml:space="preserve"
   inkscape:version="1.2.2 (732a01da63, 2022-12-09)"
   sodipodi:docname="diseñosOniria.svg"
   inkscape:export-filename="svg\private-icon.svg"
   inkscape:export-xdpi="96"
   inkscape:export-ydpi="96"
   xmlns:inkscape="http://www.inkscape.org/namespaces/inkscape"
   xmlns:sodipodi="http://sodipodi.sourceforge.net/DTD/sodipodi-0.dtd"
   xmlns="http://www.w3.org/2000/svg"
   xmlns:svg="http://www.w3.org/2000/svg"><sodipodi:namedview
     id="namedview7"
     pagecolor="#505050"
     bordercolor="#eeeeee"
     borderopacity="1"
     inkscape:showpageshadow="0"
     inkscape:pageopacity="0"
     inkscape:pagecheckerboard="0"
     inkscape:deskcolor="#505050"
     inkscape:document-units="mm"
     showgrid="false"
     inkscape:zoom="4.0000001"
     inkscape:cx="2134.1249"
     inkscape:cy="948.24997"
     inkscape:window-width="1920"
     inkscape:window-height="1009"
     inkscape:window-x="-8"
     inkscape:window-y="-8"
     inkscape:window-maximized="1"
     inkscape:current-layer="layer6"
     showguides="true"><sodipodi:guide
       position="-293.56911,-324.01711"
       orientation="0,-1"
       id="guide21335"
       inkscape:locked="false" /><sodipodi:guide
       position="-710.66793,509.96284"
       orientation="1,0"
       id="guide49534"
       inkscape:locked="false" /><sodipodi:guide
       position="-595.19411,432.69124"
       orientation="1,0"
       id="guide37938"
       inkscape:locked="false" /><sodipodi:guide
       position="-536.5889,433.35269"
       orientation="1,0"
       id="guide37940"
       inkscape:locked="false" /><sodipodi:guide
       position="-565.96918,473.70164"
       orientation="1,0"
       id="guide37944"
       inkscape:locked="false" /></sodipodi:namedview><defs
     id="defs2" /><g
     inkscape:groupmode="layer"
     id="layer6"
     inkscape:label="ICONOS"
     style="display:inline"
     transform="translate(-587.2566,-238.52184)"><g
       aria-label="1"
       id="text2896"
       style="font-size:5.64444px;font-family:Arial;-inkscape-font-specification:Arial;text-align:center;text-anchor:middle;fill:#3a4058;stroke-width:3;stroke-linecap:round"><path
         d="m 588.85395,242.70685 c 0.14675,-0.0169 0.29915,-0.096 0.37817,-0.21449 0.1016,-0.15804 0.12418,-0.36688 0.13547,-0.55315 0.0226,-0.36125 0.0282,-2.41018 0.0226,-2.77142 -0.006,-0.0621 -0.006,-0.12418 -0.0113,-0.18062 -0.006,-0.12418 -0.0621,-0.25965 -0.15804,-0.33303 -0.19192,-0.14111 -0.70556,-0.16933 -0.93134,-0.0847 -0.11289,0.0452 -0.20884,0.13546 -0.29351,0.22578 -0.079,0.0903 -0.50235,0.59831 -0.57573,0.69426 -0.0847,0.10725 -0.16369,0.24271 -0.16369,0.37818 0,0.18062 0.11853,0.38947 0.29916,0.41204 0.079,0.0113 0.16933,-0.0169 0.23706,-0.0564 0.11289,-0.0734 0.2032,-0.17498 0.29916,-0.27093 -0.0282,0.28222 -0.096,1.86266 -0.096,2.14488 0,0.1016 0.006,0.2032 0.0282,0.3048 0.0226,0.0677 0.0621,0.13547 0.12418,0.18063 0.0734,0.0564 0.16369,0.0903 0.25965,0.10724 0.14675,0.0339 0.29915,0.0395 0.44591,0.0169 z"
         style="-inkscape-font-specification:'Cute Dino'"
         id="path48298" /></g></g></svg>
