<?xml version="1.0" encoding="UTF-8" standalone="no"?>
<!-- Created with Inkscape (http://www.inkscape.org/) -->

<svg
   width="12.148746"
   height="15.998458"
   viewBox="0 0 3.2143555 4.2329255"
   version="1.1"
   id="svg5"
   xml:space="preserve"
   inkscape:version="1.2.2 (732a01da63, 2022-12-09)"
   sodipodi:docname="diseñosOniria.svg"
   inkscape:export-filename="svg\private-icon.svg"
   inkscape:export-xdpi="96"
   inkscape:export-ydpi="96"
   xmlns:inkscape="http://www.inkscape.org/namespaces/inkscape"
   xmlns:sodipodi="http://sodipodi.sourceforge.net/DTD/sodipodi-0.dtd"
   xmlns="http://www.w3.org/2000/svg"
   xmlns:svg="http://www.w3.org/2000/svg"><sodipodi:namedview
     id="namedview7"
     pagecolor="#505050"
     bordercolor="#eeeeee"
     borderopacity="1"
     inkscape:showpageshadow="0"
     inkscape:pageopacity="0"
     inkscape:pagecheckerboard="0"
     inkscape:deskcolor="#505050"
     inkscape:document-units="mm"
     showgrid="false"
     inkscape:zoom="4.0000001"
     inkscape:cx="2134.1249"
     inkscape:cy="948.24997"
     inkscape:window-width="1920"
     inkscape:window-height="1009"
     inkscape:window-x="-8"
     inkscape:window-y="-8"
     inkscape:window-maximized="1"
     inkscape:current-layer="layer6"
     showguides="true"><sodipodi:guide
       position="-305.08028,-322.98971"
       orientation="0,-1"
       id="guide21335"
       inkscape:locked="false" /><sodipodi:guide
       position="-722.1791,510.99024"
       orientation="1,0"
       id="guide49534"
       inkscape:locked="false" /><sodipodi:guide
       position="-606.70528,433.71864"
       orientation="1,0"
       id="guide37938"
       inkscape:locked="false" /><sodipodi:guide
       position="-548.10007,434.38009"
       orientation="1,0"
       id="guide37940"
       inkscape:locked="false" /><sodipodi:guide
       position="-577.48035,474.72904"
       orientation="1,0"
       id="guide37944"
       inkscape:locked="false" /></sodipodi:namedview><defs
     id="defs2" /><g
     inkscape:groupmode="layer"
     id="layer6"
     inkscape:label="ICONOS"
     style="display:inline"
     transform="translate(-598.76777,-239.51487)"><g
       aria-label="3"
       id="text2892"
       style="font-size:5.64444px;font-family:Arial;-inkscape-font-specification:Arial;text-align:center;text-anchor:middle;fill:#32364b;stroke-width:3;stroke-linecap:round"><path
         d="m 600.97386,243.68422 c 0.18062,-0.0395 0.3556,-0.12983 0.50236,-0.24836 0.24271,-0.19756 0.41768,-0.47978 0.47977,-0.78458 0.0452,-0.22013 0.0339,-0.46284 -0.0508,-0.67169 -0.11853,-0.29351 -0.37253,-0.5588 -0.6604,-0.68297 0.14111,-0.12982 0.24271,-0.31045 0.29916,-0.49107 0.0621,-0.2032 0.079,-0.44027 0.0113,-0.63782 -0.0565,-0.17498 -0.18627,-0.33867 -0.33867,-0.44027 -0.21449,-0.14111 -0.47978,-0.19755 -0.73378,-0.20884 -0.21448,-0.0113 -0.43462,0.006 -0.64911,0.0113 -0.16933,0.006 -0.34431,-0.006 -0.51364,0.0169 -0.079,0.0113 -0.16933,0.0226 -0.23707,0.0677 -0.18062,0.10725 -0.18626,0.43463 -0.12417,0.63783 0.0226,0.0847 0.0621,0.18626 0.13546,0.23706 0.0734,0.0564 0.18062,0.0677 0.27658,0.0734 0.20884,0 0.41204,-0.0452 0.62089,-0.0677 0.14675,-0.0113 0.36689,0 0.40075,0.14111 0.0169,0.0621 -0.0169,0.13546 -0.0564,0.18062 -0.0677,0.079 -0.16369,0.13547 -0.26529,0.15804 -0.0903,0.0169 -0.47978,0.0564 -0.5588,0.1016 -0.22013,0.12983 -0.24836,0.50236 -0.0452,0.6604 0.1016,0.079 0.23707,0.10725 0.36689,0.11289 0.23707,0.0169 0.49107,-0.0339 0.71685,0.0564 0.27657,0.11289 0.23706,0.508 -0.0452,0.6096 -0.11853,0.0452 -0.26529,0.0452 -0.38382,0 -0.20884,-0.0847 -0.38382,-0.25965 -0.60396,-0.3048 -0.1016,-0.0169 -0.20884,0 -0.3048,0.0339 -0.27093,0.1016 -0.49671,0.41769 -0.43462,0.69991 0.0508,0.22578 0.254,0.41205 0.46285,0.52494 0.51364,0.27657 1.16275,0.34431 1.73284,0.21449 z"
         style="-inkscape-font-specification:'Cute Dino'"
         id="path43268" /></g></g></svg>
