<?xml version="1.0" encoding="UTF-8" standalone="no"?>
<!-- Created with Inkscape (http://www.inkscape.org/) -->

<svg
   width="12.522453"
   height="15.958031"
   viewBox="0 0 3.3132324 4.2222291"
   version="1.1"
   id="svg5"
   xml:space="preserve"
   inkscape:version="1.2.2 (732a01da63, 2022-12-09)"
   sodipodi:docname="diseñosOniria.svg"
   inkscape:export-filename="svg\private-icon.svg"
   inkscape:export-xdpi="96"
   inkscape:export-ydpi="96"
   xmlns:inkscape="http://www.inkscape.org/namespaces/inkscape"
   xmlns:sodipodi="http://sodipodi.sourceforge.net/DTD/sodipodi-0.dtd"
   xmlns="http://www.w3.org/2000/svg"
   xmlns:svg="http://www.w3.org/2000/svg"><sodipodi:namedview
     id="namedview7"
     pagecolor="#505050"
     bordercolor="#eeeeee"
     borderopacity="1"
     inkscape:showpageshadow="0"
     inkscape:pageopacity="0"
     inkscape:pagecheckerboard="0"
     inkscape:deskcolor="#505050"
     inkscape:document-units="mm"
     showgrid="false"
     inkscape:zoom="4.0000001"
     inkscape:cx="2134.1249"
     inkscape:cy="948.24997"
     inkscape:window-width="1920"
     inkscape:window-height="1009"
     inkscape:window-x="-8"
     inkscape:window-y="-8"
     inkscape:window-maximized="1"
     inkscape:current-layer="layer6"
     showguides="true"><sodipodi:guide
       position="-298.73586,-325.7317"
       orientation="0,-1"
       id="guide21335"
       inkscape:locked="false" /><sodipodi:guide
       position="-715.83468,508.24826"
       orientation="1,0"
       id="guide49534"
       inkscape:locked="false" /><sodipodi:guide
       position="-600.36086,430.97666"
       orientation="1,0"
       id="guide37938"
       inkscape:locked="false" /><sodipodi:guide
       position="-541.75565,431.63811"
       orientation="1,0"
       id="guide37940"
       inkscape:locked="false" /><sodipodi:guide
       position="-571.13593,471.98706"
       orientation="1,0"
       id="guide37944"
       inkscape:locked="false" /></sodipodi:namedview><defs
     id="defs2" /><g
     inkscape:groupmode="layer"
     id="layer6"
     inkscape:label="ICONOS"
     style="display:inline"
     transform="translate(-592.42335,-236.78358)"><g
       aria-label="4"
       id="text2840"
       style="font-size:5.64444px;font-family:Arial;-inkscape-font-specification:Arial;text-align:center;text-anchor:middle;fill:#32364b;stroke-width:3;stroke-linecap:round"><path
         d="m 595.22791,240.99193 c 0.0847,-0.0113 0.16933,-0.0282 0.24271,-0.079 0.0621,-0.0452 0.10724,-0.12418 0.11853,-0.2032 0.0226,-0.13547 0.0169,-0.84667 0.0169,-0.98778 0,-0.10724 0.0169,-0.74506 0.0226,-0.85795 0.006,-0.10725 0.0677,-0.75636 0.079,-0.8636 0.0169,-0.254 0.0452,-0.51365 0.0169,-0.762 -0.0113,-0.096 -0.0282,-0.19191 -0.079,-0.27658 -0.0395,-0.0621 -0.11289,-0.10724 -0.18627,-0.12982 -0.10725,-0.0282 -0.22013,-0.0282 -0.33302,-0.0282 -0.12983,0.006 -0.26529,0.0169 -0.37818,0.0734 -0.0847,0.0452 -0.14676,0.12983 -0.18627,0.21449 -0.0903,0.19191 -0.11289,0.41205 -0.11289,0.62653 -0.006,0.42898 0,0.85796 -0.0508,1.28694 -0.16368,0.0169 -0.32737,0.0282 -0.49106,0.0395 -0.0565,0 -0.23142,0.0113 -0.27658,-0.0226 -0.0113,-0.006 -0.0226,-0.0452 -0.0226,-0.0564 -0.006,-0.0621 0.006,-0.11854 0.0169,-0.18063 0.0395,-0.15804 0.36688,-1.02728 0.42333,-1.18533 0.0452,-0.14675 0.096,-0.29915 0.0903,-0.45155 -0.006,-0.079 -0.0508,-0.16369 -0.11289,-0.22014 -0.19755,-0.16933 -0.62653,-0.19191 -0.85231,-0.0564 -0.0451,0.0282 -0.0734,0.079 -0.11289,0.11853 -0.0282,0.0395 -0.0339,0.0847 -0.0564,0.12982 -0.0169,0.0452 -0.11854,0.32174 -0.14111,0.36689 -0.15805,0.4064 -0.29351,0.81845 -0.38383,1.24178 -0.0508,0.21449 -0.0734,0.43462 -0.0395,0.64911 0.0169,0.11289 0.0564,0.23707 0.14111,0.32173 0.11289,0.10725 0.28223,0.14676 0.44027,0.16934 0.18062,0.0339 0.36124,0.0282 0.54751,0.0226 0.23142,-0.0113 0.46849,-0.0226 0.69991,-0.0451 0,0.16369 -0.0113,0.32738 -0.0226,0.49107 -0.0113,0.14111 -0.0169,0.30479 0.0565,0.42897 0.0451,0.079 0.12982,0.14111 0.22013,0.17498 0.11289,0.0452 0.24271,0.0508 0.36125,0.0621 0.11853,0.006 0.23142,0 0.34431,-0.0113 z"
         style="-inkscape-font-specification:'Cute Dino'"
         id="path38241" /></g></g></svg>
