<?xml version="1.0" encoding="UTF-8" standalone="no"?>
<!-- Created with Inkscape (http://www.inkscape.org/) -->

<svg
   width="932.73883"
   height="556.81799"
   viewBox="0 0 246.78714 147.32477"
   version="1.1"
   id="svg5"
   xml:space="preserve"
   inkscape:version="1.2.2 (732a01da63, 2022-12-09)"
   sodipodi:docname="diseñosOniria.svg"
   inkscape:export-filename="svg\private-icon.svg"
   inkscape:export-xdpi="96"
   inkscape:export-ydpi="96"
   xmlns:inkscape="http://www.inkscape.org/namespaces/inkscape"
   xmlns:sodipodi="http://sodipodi.sourceforge.net/DTD/sodipodi-0.dtd"
   xmlns:xlink="http://www.w3.org/1999/xlink"
   xmlns="http://www.w3.org/2000/svg"
   xmlns:svg="http://www.w3.org/2000/svg"><sodipodi:namedview
     id="namedview7"
     pagecolor="#505050"
     bordercolor="#eeeeee"
     borderopacity="1"
     inkscape:showpageshadow="0"
     inkscape:pageopacity="0"
     inkscape:pagecheckerboard="0"
     inkscape:deskcolor="#505050"
     inkscape:document-units="mm"
     showgrid="false"
     inkscape:zoom="1"
     inkscape:cx="-1171"
     inkscape:cy="-2789.9999"
     inkscape:window-width="1920"
     inkscape:window-height="1009"
     inkscape:window-x="-8"
     inkscape:window-y="-8"
     inkscape:window-maximized="1"
     inkscape:current-layer="layer7"
     showguides="true"><sodipodi:guide
       position="772.78563,-1210.3377"
       orientation="0,-1"
       id="guide21335"
       inkscape:locked="false" /><sodipodi:guide
       position="1046.2986,-941.65334"
       orientation="0,-1"
       id="guide3220"
       inkscape:locked="false" /><sodipodi:guide
       position="1045.3065,-977.37209"
       orientation="0,-1"
       id="guide3222"
       inkscape:locked="false" /><sodipodi:guide
       position="1041.6738,-260.44261"
       orientation="1,0"
       id="guide3226"
       inkscape:locked="false" /><sodipodi:guide
       position="467.72105,-500.98979"
       orientation="0,-1"
       id="guide9619"
       inkscape:locked="false" /><sodipodi:guide
       position="436.06774,-546.68827"
       orientation="0,-1"
       id="guide12074"
       inkscape:locked="false" /><sodipodi:guide
       position="403.09023,-423.90099"
       orientation="0,-1"
       id="guide13091"
       inkscape:locked="false" /><sodipodi:guide
       position="375.71514,-456.98824"
       orientation="0,-1"
       id="guide13122"
       inkscape:locked="false" /><sodipodi:guide
       position="377.78835,-431.53839"
       orientation="0,-1"
       id="guide13852"
       inkscape:locked="false" /><sodipodi:guide
       position="386.95059,-409.04681"
       orientation="0,-1"
       id="guide13854"
       inkscape:locked="false" /><sodipodi:guide
       position="1068.8016,-742.7572"
       orientation="1,0"
       id="guide30809"
       inkscape:locked="false" /><sodipodi:guide
       position="1087.7911,-717.59377"
       orientation="0,-1"
       id="guide30811"
       inkscape:locked="false" /></sodipodi:namedview><defs
     id="defs2"><linearGradient
       inkscape:collect="always"
       id="linearGradient4886"><stop
         style="stop-color:#434a66;stop-opacity:1;"
         offset="0"
         id="stop4882" /><stop
         style="stop-color:#434a66;stop-opacity:0;"
         offset="1"
         id="stop4884" /></linearGradient><linearGradient
       inkscape:collect="always"
       xlink:href="#linearGradient4886"
       id="linearGradient4597"
       x1="-402.15311"
       y1="-682.02234"
       x2="-404.22867"
       y2="-674.22906"
       gradientUnits="userSpaceOnUse"
       gradientTransform="matrix(1.1739184,0,0,1.1739184,66.779015,115.4242)" /><linearGradient
       inkscape:collect="always"
       xlink:href="#linearGradient4886"
       id="linearGradient4961"
       gradientUnits="userSpaceOnUse"
       gradientTransform="matrix(-1.1739184,0,0,1.1739184,-848.38972,115.4242)"
       x1="-402.15311"
       y1="-682.02234"
       x2="-404.22867"
       y2="-674.22906" /><linearGradient
       inkscape:collect="always"
       xlink:href="#linearGradient4886"
       id="linearGradient13186"
       gradientUnits="userSpaceOnUse"
       gradientTransform="matrix(1.1739184,0,0,1.1739184,66.779015,115.4242)"
       x1="-402.15311"
       y1="-682.02234"
       x2="-404.22867"
       y2="-674.22906" /><linearGradient
       inkscape:collect="always"
       xlink:href="#linearGradient4886"
       id="linearGradient13188"
       gradientUnits="userSpaceOnUse"
       gradientTransform="matrix(-1.1739184,0,0,1.1739184,-848.38972,115.4242)"
       x1="-402.15311"
       y1="-682.02234"
       x2="-404.22867"
       y2="-674.22906" /></defs><g
     inkscape:groupmode="layer"
     id="layer7"
     inkscape:label="ILUSTRACIONES"
     style="display:inline"
     transform="translate(479.09812,790.92496)"><g
       id="g5090"><rect
         style="fill:#3a4058;fill-opacity:1;stroke:none;stroke-width:0.327218;stroke-linecap:round;stroke-dasharray:none;stroke-opacity:1"
         id="rect20039"
         width="128.00041"
         height="14.173949"
         x="-360.31137"
         y="-743.91327"
         ry="7.0869646" /><path
         sodipodi:type="star"
         style="display:inline;fill:#3a4058;fill-opacity:1;stroke:none;stroke-width:1.8;stroke-linecap:round;stroke-dasharray:none;stroke-opacity:1;paint-order:stroke markers fill"
         id="path3377"
         inkscape:flatsided="false"
         sodipodi:sides="4"
         sodipodi:cx="403.25388"
         sodipodi:cy="-197.29655"
         sodipodi:r1="1.4899863"
         sodipodi:r2="0.95359123"
         sodipodi:arg1="1.2133467"
         sodipodi:arg2="1.9987448"
         inkscape:rounded="0.19"
         inkscape:randomized="0"
         inkscape:transform-center-x="-4.6270414e-06"
         transform="matrix(0.62656739,0,0,0.62656739,-710.9118,-653.59923)"
         d="m 403.7752,-195.90075 c -0.18837,0.0704 -0.73412,-0.44476 -0.91707,-0.52821 -0.18295,-0.0834 -0.92971,-0.1579 -1.00006,-0.34627 -0.0704,-0.18837 0.44476,-0.73412 0.52821,-0.91707 0.0835,-0.18295 0.1579,-0.92971 0.34627,-1.00006 0.18837,-0.0704 0.73413,0.44476 0.91707,0.52821 0.18295,0.0834 0.92971,0.1579 1.00006,0.34627 0.0704,0.18837 -0.44476,0.73412 -0.52821,0.91707 -0.0834,0.18295 -0.1579,0.92971 -0.34627,1.00006 z"
         inkscape:transform-center-y="-5.6751019e-06" /><path
         sodipodi:type="star"
         style="display:inline;fill:#3a4058;fill-opacity:1;stroke:none;stroke-width:1.8;stroke-linecap:round;stroke-dasharray:none;stroke-opacity:1;paint-order:stroke markers fill"
         id="path3379"
         inkscape:flatsided="false"
         sodipodi:sides="4"
         sodipodi:cx="403.25388"
         sodipodi:cy="-197.29655"
         sodipodi:r1="1.4899863"
         sodipodi:r2="0.95359123"
         sodipodi:arg1="1.2133467"
         sodipodi:arg2="1.9987448"
         inkscape:rounded="0.19"
         inkscape:randomized="0"
         inkscape:transform-center-x="-4.6270414e-06"
         transform="matrix(0.62656739,0,0,0.62656739,-661.6993,-621.17237)"
         d="m 403.7752,-195.90075 c -0.18837,0.0704 -0.73412,-0.44476 -0.91707,-0.52821 -0.18295,-0.0834 -0.92971,-0.1579 -1.00006,-0.34627 -0.0704,-0.18837 0.44476,-0.73412 0.52821,-0.91707 0.0835,-0.18295 0.1579,-0.92971 0.34627,-1.00006 0.18837,-0.0704 0.73413,0.44476 0.91707,0.52821 0.18295,0.0834 0.92971,0.1579 1.00006,0.34627 0.0704,0.18837 -0.44476,0.73412 -0.52821,0.91707 -0.0834,0.18295 -0.1579,0.92971 -0.34627,1.00006 z"
         inkscape:transform-center-y="-5.6751019e-06" /><path
         sodipodi:type="star"
         style="display:inline;fill:#3a4058;fill-opacity:1;stroke:none;stroke-width:1.8;stroke-linecap:round;stroke-dasharray:none;stroke-opacity:1;paint-order:stroke markers fill"
         id="path3381"
         inkscape:flatsided="false"
         sodipodi:sides="4"
         sodipodi:cx="403.25388"
         sodipodi:cy="-197.29655"
         sodipodi:r1="1.4899863"
         sodipodi:r2="0.95359123"
         sodipodi:arg1="1.2133467"
         sodipodi:arg2="1.9987448"
         inkscape:rounded="0.19"
         inkscape:randomized="0"
         transform="matrix(0,-0.62656739,-0.62656739,0,-441.82041,-510.93055)"
         d="m 403.7752,-195.90075 c -0.18837,0.0704 -0.73412,-0.44476 -0.91707,-0.52821 -0.18295,-0.0834 -0.92971,-0.1579 -1.00006,-0.34627 -0.0704,-0.18837 0.44476,-0.73412 0.52821,-0.91707 0.0835,-0.18295 0.1579,-0.92971 0.34627,-1.00006 0.18837,-0.0704 0.73413,0.44476 0.91707,0.52821 0.18295,0.0834 0.92971,0.1579 1.00006,0.34627 0.0704,0.18837 -0.44476,0.73412 -0.52821,0.91707 -0.0834,0.18295 -0.1579,0.92971 -0.34627,1.00006 z"
         inkscape:transform-center-y="3.1499043e-06"
         inkscape:transform-center-x="-2.4656578e-06" /><path
         sodipodi:type="star"
         style="display:inline;fill:#3a4058;fill-opacity:1;stroke:none;stroke-width:1.8;stroke-linecap:round;stroke-dasharray:none;stroke-opacity:1;paint-order:stroke markers fill"
         id="path3383"
         inkscape:flatsided="false"
         sodipodi:sides="4"
         sodipodi:cx="403.25388"
         sodipodi:cy="-197.29655"
         sodipodi:r1="1.4899863"
         sodipodi:r2="0.95359123"
         sodipodi:arg1="1.2133467"
         sodipodi:arg2="1.9987448"
         inkscape:rounded="0.19"
         inkscape:randomized="0"
         inkscape:transform-center-x="2.0113955e-06"
         transform="matrix(0,-0.62656739,0.62656739,0,-202.35304,-451.36952)"
         d="m 403.7752,-195.90075 c -0.18837,0.0704 -0.73412,-0.44476 -0.91707,-0.52821 -0.18295,-0.0834 -0.92971,-0.1579 -1.00006,-0.34627 -0.0704,-0.18837 0.44476,-0.73412 0.52821,-0.91707 0.0835,-0.18295 0.1579,-0.92971 0.34627,-1.00006 0.18837,-0.0704 0.73413,0.44476 0.91707,0.52821 0.18295,0.0834 0.92971,0.1579 1.00006,0.34627 0.0704,0.18837 -0.44476,0.73412 -0.52821,0.91707 -0.0834,0.18295 -0.1579,0.92971 -0.34627,1.00006 z"
         inkscape:transform-center-y="4.3248983e-06" /><path
         sodipodi:type="star"
         style="display:inline;fill:#3a4058;fill-opacity:1;stroke:none;stroke-width:1.8;stroke-linecap:round;stroke-dasharray:none;stroke-opacity:1;paint-order:stroke markers fill"
         id="path3385"
         inkscape:flatsided="false"
         sodipodi:sides="4"
         sodipodi:cx="403.25388"
         sodipodi:cy="-197.29655"
         sodipodi:r1="1.4899863"
         sodipodi:r2="0.95359123"
         sodipodi:arg1="1.2133467"
         sodipodi:arg2="1.9987448"
         inkscape:rounded="0.19"
         inkscape:randomized="0"
         inkscape:transform-center-x="5.3729589e-06"
         transform="matrix(0.62656739,0,0,-0.62656739,-695.20814,-807.34622)"
         d="m 403.7752,-195.90075 c -0.18837,0.0704 -0.73412,-0.44476 -0.91707,-0.52821 -0.18295,-0.0834 -0.92971,-0.1579 -1.00006,-0.34627 -0.0704,-0.18837 0.44476,-0.73412 0.52821,-0.91707 0.0835,-0.18295 0.1579,-0.92971 0.34627,-1.00006 0.18837,-0.0704 0.73413,0.44476 0.91707,0.52821 0.18295,0.0834 0.92971,0.1579 1.00006,0.34627 0.0704,0.18837 -0.44476,0.73412 -0.52821,0.91707 -0.0834,0.18295 -0.1579,0.92971 -0.34627,1.00006 z" /><path
         sodipodi:type="star"
         style="display:inline;fill:#3a4058;fill-opacity:1;stroke:none;stroke-width:1.8;stroke-linecap:round;stroke-dasharray:none;stroke-opacity:1;paint-order:stroke markers fill"
         id="path3387"
         inkscape:flatsided="false"
         sodipodi:sides="4"
         sodipodi:cx="403.25388"
         sodipodi:cy="-197.29655"
         sodipodi:r1="1.4899863"
         sodipodi:r2="0.95359123"
         sodipodi:arg1="1.2133467"
         sodipodi:arg2="1.9987448"
         inkscape:rounded="0.19"
         inkscape:randomized="0"
         inkscape:transform-center-x="5.3729589e-06"
         transform="matrix(0.62656739,0,0,-0.62656739,-634.80048,-878.39613)"
         d="m 403.7752,-195.90075 c -0.18837,0.0704 -0.73412,-0.44476 -0.91707,-0.52821 -0.18295,-0.0834 -0.92971,-0.1579 -1.00006,-0.34627 -0.0704,-0.18837 0.44476,-0.73412 0.52821,-0.91707 0.0835,-0.18295 0.1579,-0.92971 0.34627,-1.00006 0.18837,-0.0704 0.73413,0.44476 0.91707,0.52821 0.18295,0.0834 0.92971,0.1579 1.00006,0.34627 0.0704,0.18837 -0.44476,0.73412 -0.52821,0.91707 -0.0834,0.18295 -0.1579,0.92971 -0.34627,1.00006 z" /><path
         sodipodi:type="star"
         style="display:inline;fill:#3a4058;fill-opacity:1;stroke:none;stroke-width:1.8;stroke-linecap:round;stroke-dasharray:none;stroke-opacity:1;paint-order:stroke markers fill"
         id="path3389"
         inkscape:flatsided="false"
         sodipodi:sides="4"
         sodipodi:cx="403.25388"
         sodipodi:cy="-197.29655"
         sodipodi:r1="1.4899863"
         sodipodi:r2="0.95359123"
         sodipodi:arg1="1.2133467"
         sodipodi:arg2="1.9987448"
         inkscape:rounded="0.19"
         inkscape:randomized="0"
         inkscape:transform-center-x="5.3729589e-06"
         transform="matrix(0.62656739,0,0,-0.62656739,-620.39747,-913.66588)"
         d="m 403.7752,-195.90075 c -0.18837,0.0704 -0.73412,-0.44476 -0.91707,-0.52821 -0.18295,-0.0834 -0.92971,-0.1579 -1.00006,-0.34627 -0.0704,-0.18837 0.44476,-0.73412 0.52821,-0.91707 0.0835,-0.18295 0.1579,-0.92971 0.34627,-1.00006 0.18837,-0.0704 0.73413,0.44476 0.91707,0.52821 0.18295,0.0834 0.92971,0.1579 1.00006,0.34627 0.0704,0.18837 -0.44476,0.73412 -0.52821,0.91707 -0.0834,0.18295 -0.1579,0.92971 -0.34627,1.00006 z" /><circle
         style="fill:#3a4058;fill-opacity:1;stroke:none;stroke-width:2.80617;stroke-linecap:round;stroke-dasharray:none;stroke-opacity:1;paint-order:stroke markers fill"
         id="circle3391"
         cx="-684.37445"
         cy="387.45926"
         r="40.774208"
         clip-path="none"
         transform="rotate(90)" /><circle
         style="fill:#292d3e;fill-opacity:1;stroke:none;stroke-width:8.00309;stroke-dasharray:none;stroke-opacity:1;paint-order:normal"
         id="circle3393"
         cx="-405.87192"
         cy="-709.89355"
         r="3.5131836" /><circle
         style="fill:#292d3e;fill-opacity:1;stroke:none;stroke-width:8.00309;stroke-dasharray:none;stroke-opacity:1;paint-order:normal"
         id="circle3395"
         cx="-372.40549"
         cy="-709.89355"
         r="3.5131836" /><path
         style="fill:#292d3e;fill-opacity:1;stroke:#292d3e;stroke-width:2.915;stroke-linecap:round;stroke-dasharray:none;stroke-opacity:1;paint-order:normal"
         d="m -392.63945,-705.93341 h 5.24948"
         id="path3397" /><path
         style="fill:#434a66;fill-opacity:1;stroke:none;stroke-width:1.43705;stroke-linecap:round;stroke-dasharray:none;stroke-opacity:1;paint-order:stroke markers fill"
         d="m -350.72538,-701.88289 c 10.97028,23.19157 -1.50474,48.89562 -24.08884,56.28818 -17.86925,5.84923 -41.26138,-0.96775 -50.36568,-23.09059 6.20132,14.23843 22.93233,18.2025 39.59242,16.17272 22.81348,-2.7795 42.51359,-23.31912 34.8621,-49.37031 z"
         id="path3401"
         sodipodi:nodetypes="cscsc"
         clip-path="none" /><path
         sodipodi:type="star"
         style="fill:#3a4058;fill-opacity:1;stroke:none;stroke-width:0.499999;stroke-linecap:butt;stroke-dasharray:none;stroke-opacity:1;paint-order:stroke markers fill"
         id="path3405"
         inkscape:flatsided="false"
         sodipodi:sides="4"
         sodipodi:cx="18.533472"
         sodipodi:cy="53.285191"
         sodipodi:r1="0.42354"
         sodipodi:r2="0.20922875"
         sodipodi:arg1="1.5707963"
         sodipodi:arg2="2.3561945"
         inkscape:rounded="0.19"
         inkscape:randomized="0"
         d="m 18.533472,53.708731 c -0.05943,0 -0.105923,-0.233569 -0.147947,-0.275593 -0.04202,-0.04202 -0.275593,-0.08852 -0.275593,-0.147947 0,-0.05943 0.233569,-0.105924 0.275593,-0.147947 0.04202,-0.04202 0.08852,-0.275593 0.147947,-0.275593 0.05943,0 0.105923,0.233569 0.147947,0.275593 0.04202,0.04202 0.275593,0.08852 0.275593,0.147947 0,0.05943 -0.233569,0.105923 -0.275593,0.147947 -0.04202,0.04202 -0.08852,0.275593 -0.147947,0.275593 z"
         transform="matrix(0,-7.5983413,-7.5983413,0,73.348728,-528.18721)" /><path
         sodipodi:type="star"
         style="fill:#3a4058;fill-opacity:1;stroke:none;stroke-width:0.499999;stroke-linecap:butt;stroke-dasharray:none;stroke-opacity:1;paint-order:stroke markers fill"
         id="path3407"
         inkscape:flatsided="false"
         sodipodi:sides="4"
         sodipodi:cx="18.533472"
         sodipodi:cy="53.285191"
         sodipodi:r1="0.42354"
         sodipodi:r2="0.20922875"
         sodipodi:arg1="1.5707963"
         sodipodi:arg2="2.3561945"
         inkscape:rounded="0.19"
         inkscape:randomized="0"
         d="m 18.533472,53.708731 c -0.05943,0 -0.105923,-0.233569 -0.147947,-0.275593 -0.04202,-0.04202 -0.275593,-0.08852 -0.275593,-0.147947 0,-0.05943 0.233569,-0.105924 0.275593,-0.147947 0.04202,-0.04202 0.08852,-0.275593 0.147947,-0.275593 0.05943,0 0.105923,0.233569 0.147947,0.275593 0.04202,0.04202 0.275593,0.08852 0.275593,0.147947 0,0.05943 -0.233569,0.105923 -0.275593,0.147947 -0.04202,0.04202 -0.08852,0.275593 -0.147947,0.275593 z"
         transform="matrix(0,-7.5983413,-7.5983413,0,76.566929,-620.43315)" /><path
         sodipodi:type="star"
         style="fill:#3a4058;fill-opacity:1;stroke:none;stroke-width:0.499999;stroke-linecap:butt;stroke-dasharray:none;stroke-opacity:1;paint-order:stroke markers fill"
         id="path3409"
         inkscape:flatsided="false"
         sodipodi:sides="4"
         sodipodi:cx="18.533472"
         sodipodi:cy="53.285191"
         sodipodi:r1="0.42354"
         sodipodi:r2="0.20922875"
         sodipodi:arg1="1.5707963"
         sodipodi:arg2="2.3561945"
         inkscape:rounded="0.19"
         inkscape:randomized="0"
         d="m 18.533472,53.708731 c -0.05943,0 -0.105923,-0.233569 -0.147947,-0.275593 -0.04202,-0.04202 -0.275593,-0.08852 -0.275593,-0.147947 0,-0.05943 0.233569,-0.105924 0.275593,-0.147947 0.04202,-0.04202 0.08852,-0.275593 0.147947,-0.275593 0.05943,0 0.105923,0.233569 0.147947,0.275593 0.04202,0.04202 0.275593,0.08852 0.275593,0.147947 0,0.05943 -0.233569,0.105923 -0.275593,0.147947 -0.04202,0.04202 -0.08852,0.275593 -0.147947,0.275593 z"
         transform="matrix(7.5983413,0,0,7.5983413,-446.2687,-1109.793)" /><path
         sodipodi:type="star"
         style="fill:#3a4058;fill-opacity:1;stroke:none;stroke-width:0.499999;stroke-linecap:butt;stroke-dasharray:none;stroke-opacity:1;paint-order:stroke markers fill"
         id="path3411"
         inkscape:flatsided="false"
         sodipodi:sides="4"
         sodipodi:cx="18.533472"
         sodipodi:cy="53.285191"
         sodipodi:r1="0.42354"
         sodipodi:r2="0.20922875"
         sodipodi:arg1="1.5707963"
         sodipodi:arg2="2.3561945"
         inkscape:rounded="0.19"
         inkscape:randomized="0"
         d="m 18.533472,53.708731 c -0.05943,0 -0.105923,-0.233569 -0.147947,-0.275593 -0.04202,-0.04202 -0.275593,-0.08852 -0.275593,-0.147947 0,-0.05943 0.233569,-0.105924 0.275593,-0.147947 0.04202,-0.04202 0.08852,-0.275593 0.147947,-0.275593 0.05943,0 0.105923,0.233569 0.147947,0.275593 0.04202,0.04202 0.275593,0.08852 0.275593,0.147947 0,0.05943 -0.233569,0.105923 -0.275593,0.147947 -0.04202,0.04202 -0.08852,0.275593 -0.147947,0.275593 z"
         transform="matrix(7.5983413,0,0,7.5983413,-616.70356,-1108.0412)" /><path
         sodipodi:type="star"
         style="fill:#3a4058;fill-opacity:1;stroke:none;stroke-width:0.499999;stroke-linecap:butt;stroke-dasharray:none;stroke-opacity:1;paint-order:stroke markers fill"
         id="path3413"
         inkscape:flatsided="false"
         sodipodi:sides="4"
         sodipodi:cx="18.533472"
         sodipodi:cy="53.285191"
         sodipodi:r1="0.42354"
         sodipodi:r2="0.20922875"
         sodipodi:arg1="1.5707963"
         sodipodi:arg2="2.3561945"
         inkscape:rounded="0.19"
         inkscape:randomized="0"
         d="m 18.533472,53.708731 c -0.05943,0 -0.105923,-0.233569 -0.147947,-0.275593 -0.04202,-0.04202 -0.275593,-0.08852 -0.275593,-0.147947 0,-0.05943 0.233569,-0.105924 0.275593,-0.147947 0.04202,-0.04202 0.08852,-0.275593 0.147947,-0.275593 0.05943,0 0.105923,0.233569 0.147947,0.275593 0.04202,0.04202 0.275593,0.08852 0.275593,0.147947 0,0.05943 -0.233569,0.105923 -0.275593,0.147947 -0.04202,0.04202 -0.08852,0.275593 -0.147947,0.275593 z"
         transform="matrix(7.5983413,0,0,7.5983413,-542.57703,-1190.8285)" /><path
         sodipodi:type="star"
         style="fill:#3a4058;fill-opacity:1;stroke:none;stroke-width:0.499999;stroke-linecap:butt;stroke-dasharray:none;stroke-opacity:1;paint-order:stroke markers fill"
         id="path3415"
         inkscape:flatsided="false"
         sodipodi:sides="4"
         sodipodi:cx="18.533472"
         sodipodi:cy="53.285191"
         sodipodi:r1="0.42354"
         sodipodi:r2="0.20922875"
         sodipodi:arg1="1.5707963"
         sodipodi:arg2="2.3561945"
         inkscape:rounded="0.19"
         inkscape:randomized="0"
         d="m 18.533472,53.708731 c -0.05943,0 -0.105923,-0.233569 -0.147947,-0.275593 -0.04202,-0.04202 -0.275593,-0.08852 -0.275593,-0.147947 0,-0.05943 0.233569,-0.105924 0.275593,-0.147947 0.04202,-0.04202 0.08852,-0.275593 0.147947,-0.275593 0.05943,0 0.105923,0.233569 0.147947,0.275593 0.04202,0.04202 0.275593,0.08852 0.275593,0.147947 0,0.05943 -0.233569,0.105923 -0.275593,0.147947 -0.04202,0.04202 -0.08852,0.275593 -0.147947,0.275593 z"
         transform="matrix(7.5983413,0,0,7.5983413,-608.41654,-1157.3161)" /><g
         id="g5698"
         transform="translate(1.1411582)"><path
           style="fill:url(#linearGradient13186);fill-opacity:1;stroke:none;stroke-width:4.13811;stroke-linecap:round;stroke-dasharray:none;stroke-opacity:1;paint-order:normal"
           d="m -424.11988,-681.61686 c 0,0 24.17391,-10.94588 27.04872,-3.16764 1.27432,3.44793 -6.65944,10.07518 -6.65944,10.07518 z"
           id="path3403"
           sodipodi:nodetypes="cscc" /><path
           style="fill:#434a66;fill-opacity:1;stroke:none;stroke-width:10.1539;stroke-linecap:round"
           d="m -406.47887,-687.26739 c 4.94073,-0.88782 18.24136,-0.60335 14.95196,2.35761 -1.23059,1.10771 -6.34713,0.15285 -6.34713,0.15285"
           id="path4079"
           sodipodi:nodetypes="csc" /><g
           id="g4965"
           transform="translate(-0.40975502)"><path
             style="fill:url(#linearGradient13188);fill-opacity:1;stroke:none;stroke-width:4.13811;stroke-linecap:round;stroke-dasharray:none;stroke-opacity:1;paint-order:normal"
             d="m -357.49083,-681.61686 c 0,0 -24.17391,-10.94588 -27.04872,-3.16764 -1.27432,3.44793 6.65944,10.07518 6.65944,10.07518 z"
             id="path4957"
             sodipodi:nodetypes="cscc" /><path
             style="fill:#434a66;fill-opacity:1;stroke:none;stroke-width:10.1539;stroke-linecap:round"
             d="m -375.13184,-687.26739 c -4.94073,-0.88782 -18.24136,-0.60335 -14.95196,2.35761 1.23059,1.10771 6.34713,0.15285 6.34713,0.15285"
             id="path4959"
             sodipodi:nodetypes="csc" /></g></g><g
         id="g5710"
         transform="translate(1.1411582)"><path
           style="fill:url(#linearGradient4597);fill-opacity:1;stroke:none;stroke-width:4.13811;stroke-linecap:round;stroke-dasharray:none;stroke-opacity:1;paint-order:normal"
           d="m -424.11988,-681.61686 c 0,0 24.17391,-10.94588 27.04872,-3.16764 1.27432,3.44793 -6.65944,10.07518 -6.65944,10.07518 z"
           id="path5700"
           sodipodi:nodetypes="cscc" /><path
           style="fill:#434a66;fill-opacity:1;stroke:none;stroke-width:10.1539;stroke-linecap:round"
           d="m -406.47887,-687.26739 c 4.94073,-0.88782 18.24136,-0.60335 14.95196,2.35761 -1.23059,1.10771 -6.34713,0.15285 -6.34713,0.15285"
           id="path5702"
           sodipodi:nodetypes="csc" /><g
           id="g5708"
           transform="translate(-0.40975502)"><path
             style="fill:url(#linearGradient4961);fill-opacity:1;stroke:none;stroke-width:4.13811;stroke-linecap:round;stroke-dasharray:none;stroke-opacity:1;paint-order:normal"
             d="m -357.49083,-681.61686 c 0,0 -24.17391,-10.94588 -27.04872,-3.16764 -1.27432,3.44793 6.65944,10.07518 6.65944,10.07518 z"
             id="path5704"
             sodipodi:nodetypes="cscc" /><path
             style="fill:#434a66;fill-opacity:1;stroke:none;stroke-width:10.1539;stroke-linecap:round"
             d="m -375.13184,-687.26739 c -4.94073,-0.88782 -18.24136,-0.60335 -14.95196,2.35761 1.23059,1.10771 6.34713,0.15285 6.34713,0.15285"
             id="path5706"
             sodipodi:nodetypes="csc" /></g></g><path
         style="fill:#3a4058;fill-opacity:1;stroke:none;stroke-width:0.3;stroke-linecap:round;stroke-dasharray:none;stroke-opacity:1"
         d="m -360.31134,-736.82629 v 7.08697"
         id="path20106" /><path
         style="fill:#3a4058;fill-opacity:1;stroke:none;stroke-width:0.3;stroke-linecap:round;stroke-dasharray:none;stroke-opacity:1"
         d="m -360.31134,-736.82629 v 7.08697 h 10.41657 z"
         id="path20108" /><text
         xml:space="preserve"
         style="font-size:6.3686px;font-family:lexend;-inkscape-font-specification:lexend;text-align:center;text-anchor:middle;fill:#292d3e;fill-opacity:1;stroke:#292d3e;stroke-width:0.238;stroke-linecap:round;stroke-dasharray:none;stroke-opacity:1"
         x="-296.68549"
         y="-734.69189"
         id="text3419"><tspan
           sodipodi:role="line"
           id="tspan3417"
           style="fill:#292d3e;fill-opacity:1;stroke:#292d3e;stroke-width:0.238;stroke-dasharray:none;stroke-opacity:1"
           x="-296.68549"
           y="-734.69189">aún no hay sueños publicados por aquí</tspan></text></g></g></svg>
