<?xml version="1.0" encoding="UTF-8" standalone="no"?>
<!-- Created with Inkscape (http://www.inkscape.org/) -->

<svg
   width="904.91266"
   height="569.75482"
   viewBox="0 0 239.4248 150.74764"
   version="1.1"
   id="svg5"
   xml:space="preserve"
   inkscape:version="1.2.2 (732a01da63, 2022-12-09)"
   sodipodi:docname="diseñosOniria.svg"
   inkscape:export-filename="svg\private-icon.svg"
   inkscape:export-xdpi="96"
   inkscape:export-ydpi="96"
   xmlns:inkscape="http://www.inkscape.org/namespaces/inkscape"
   xmlns:sodipodi="http://sodipodi.sourceforge.net/DTD/sodipodi-0.dtd"
   xmlns="http://www.w3.org/2000/svg"
   xmlns:svg="http://www.w3.org/2000/svg"><sodipodi:namedview
     id="namedview7"
     pagecolor="#505050"
     bordercolor="#eeeeee"
     borderopacity="1"
     inkscape:showpageshadow="0"
     inkscape:pageopacity="0"
     inkscape:pagecheckerboard="0"
     inkscape:deskcolor="#505050"
     inkscape:document-units="mm"
     showgrid="false"
     inkscape:zoom="0.50000002"
     inkscape:cx="-2064.9999"
     inkscape:cy="-1781.9999"
     inkscape:window-width="1920"
     inkscape:window-height="1009"
     inkscape:window-x="-8"
     inkscape:window-y="-8"
     inkscape:window-maximized="1"
     inkscape:current-layer="layer7"
     showguides="true"><sodipodi:guide
       position="800.53161,-720.88617"
       orientation="0,-1"
       id="guide21335"
       inkscape:locked="false" /><sodipodi:guide
       position="383.43278,113.09379"
       orientation="1,0"
       id="guide49534"
       inkscape:locked="false" /><sodipodi:guide
       position="498.9066,35.822186"
       orientation="1,0"
       id="guide37938"
       inkscape:locked="false" /><sodipodi:guide
       position="557.51181,36.483636"
       orientation="1,0"
       id="guide37940"
       inkscape:locked="false" /><sodipodi:guide
       position="528.13153,76.832587"
       orientation="1,0"
       id="guide37944"
       inkscape:locked="false" /></sodipodi:namedview><defs
     id="defs2" /><g
     inkscape:groupmode="layer"
     id="layer7"
     inkscape:label="ILUSTRACIONES"
     style="display:inline"
     transform="translate(506.8441,304.89629)"><g
       id="g61783"
       transform="matrix(0,0.72198935,-0.72198935,0,-117.31434,-164.32447)"
       inkscape:export-filename="svg\ilustration\no-post-ilustration.svg"
       inkscape:export-xdpi="96"
       inkscape:export-ydpi="96"><circle
         style="fill:#3a4058;fill-opacity:1;stroke:none;stroke-width:3.88672;stroke-linecap:round;stroke-dasharray:none;stroke-opacity:1;paint-order:stroke markers fill"
         id="circle61777"
         cx="-42.380661"
         cy="381.08023"
         r="56.474808"
         clip-path="none" /></g><g
       id="g28050"
       transform="translate(-701.69284,-211.78115)"
       style="display:inline"
       inkscape:export-filename="svg\no-post-ilustration.svg"
       inkscape:export-xdpi="96"
       inkscape:export-ydpi="96"><rect
         style="opacity:1;fill:#3a4058;fill-opacity:1;stroke:none;stroke-width:2.91499;stroke-linecap:round;stroke-dasharray:none;stroke-opacity:1;paint-order:normal"
         id="rect27990"
         width="87.37262"
         height="14.288139"
         x="346.90094"
         y="-43.029724"
         ry="7.1440697" /><path
         style="opacity:1;fill:#3a4058;fill-opacity:1;stroke:none;stroke-width:2.91499;stroke-linecap:round;stroke-dasharray:none;stroke-opacity:1;paint-order:normal"
         d="m 346.90094,-35.885654 v 7.144068 h 10.01146 z"
         id="path28046" /></g><g
       aria-label="aún no has soñado nada"
       id="text28054"
       style="font-size:6.3803px;font-family:Lexend;-inkscape-font-specification:Lexend;text-align:center;text-anchor:middle;fill:#292d3e;stroke:#292d3e;stroke-width:0.2;stroke-linecap:round;paint-order:markers fill stroke"><g
         id="path13019"><path
           style="color:#000000;-inkscape-font-specification:Lexend;stroke:none;stroke-linecap:butt;-inkscape-stroke:none"
           d="m -347.29465,-245.14021 q -0.41472,0 -0.75925,-0.22969 -0.33816,-0.22969 -0.54233,-0.62527 -0.20417,-0.39558 -0.20417,-0.89324 0,-0.50404 0.20417,-0.89324 0.21055,-0.39558 0.56147,-0.61889 0.35729,-0.22331 0.79753,-0.22331 0.2616,0 0.47853,0.0766 0.21693,0.0766 0.37643,0.21693 0.16589,0.13399 0.26798,0.31264 0.10846,0.17865 0.13398,0.38282 l -0.14674,-0.0511 v -0.86772 h 0.66355 v 3.34966 h -0.66355 v -0.79754 l 0.15312,-0.0447 q -0.0383,0.17227 -0.1595,0.33816 -0.11485,0.1595 -0.29988,0.28711 -0.17865,0.12761 -0.40196,0.20417 -0.21693,0.0766 -0.45938,0.0766 z m 0.17227,-0.60613 q 0.29987,0 0.52956,-0.14674 0.2297,-0.14675 0.3573,-0.40196 0.13399,-0.26159 0.13399,-0.59337 0,-0.32539 -0.13399,-0.58061 -0.1276,-0.25521 -0.3573,-0.40196 -0.22969,-0.14674 -0.52956,-0.14674 -0.29349,0 -0.52318,0.14674 -0.22332,0.14675 -0.3573,0.40196 -0.12761,0.25522 -0.12761,0.58061 0,0.33178 0.12761,0.59337 0.13398,0.25521 0.3573,0.40196 0.22969,0.14674 0.52318,0.14674 z"
           id="path13058" /><path
           style="color:#000000;-inkscape-font-specification:Lexend;stroke:none;stroke-linecap:butt;-inkscape-stroke:none"
           d="m -347.23633,-248.72461 c -0.3104,0 -0.59771,0.0816 -0.85156,0.24024 -0.24887,0.15836 -0.44818,0.37907 -0.5957,0.65625 h -0.002 c -0.14436,0.27519 -0.21484,0.58992 -0.21484,0.93945 0,0.34545 0.0709,0.66054 0.21484,0.93945 0.14282,0.27671 0.3364,0.49925 0.57618,0.66211 0.24509,0.1634 0.51951,0.24609 0.81445,0.24609 0.17217,0 0.33654,-0.0271 0.49219,-0.082 0.15639,-0.0536 0.29887,-0.12451 0.42578,-0.21484 l 0.002,-0.002 c 0.0599,-0.0415 0.0982,-0.0956 0.14844,-0.14258 v 0.3789 h 0.86328 v -3.55078 h -0.86328 v 0.35547 c -0.0338,-0.0345 -0.0555,-0.0784 -0.0937,-0.10937 -0.11575,-0.10106 -0.2503,-0.17805 -0.4043,-0.23242 -0.15652,-0.0553 -0.32756,-0.084 -0.51172,-0.084 z m 0,0.20117 c 0.16464,0 0.31064,0.0234 0.44336,0.0703 0.1338,0.0472 0.24752,0.1126 0.34375,0.19726 l 0.002,0.002 0.002,0.002 c 0.091,0.0735 0.15981,0.1595 0.21875,0.2539 v 0.38282 l 0.36523,0.12695 -0.0195,-0.1582 c -0.0185,-0.1478 -0.0691,-0.28889 -0.14648,-0.41797 -3.3e-4,-5.4e-4 3.2e-4,-0.001 0,-0.002 v -0.38671 h 0.46289 v 3.14843 h -0.46289 v -0.39843 c 0.0679,-0.10388 0.12567,-0.2111 0.15039,-0.32227 l 0.0371,-0.16406 -0.38672,0.11328 v 0.32226 c -0.0679,0.0911 -0.15342,0.17396 -0.26367,0.25 v 0.002 h -0.002 c -0.11076,0.0791 -0.23451,0.14324 -0.375,0.1914 h -0.002 c -0.13359,0.0472 -0.27468,0.0703 -0.42578,0.0703 -0.25802,0 -0.48885,-0.07 -0.70313,-0.21289 -0.2111,-0.14339 -0.38035,-0.33716 -0.50976,-0.5879 -0.12828,-0.24853 -0.19336,-0.52955 -0.19336,-0.84765 0,-0.32253 0.0655,-0.60196 0.19336,-0.8457 0.1332,-0.25027 0.30832,-0.44266 0.52734,-0.58204 0.22211,-0.13841 0.46823,-0.20703 0.74414,-0.20703 z m 0.11328,0.40625 c -0.21232,0 -0.40676,0.0539 -0.57617,0.16211 h -0.002 c -0.16345,0.10741 -0.29434,0.25605 -0.39063,0.43946 v 0.002 c -0.0927,0.18535 -0.13867,0.395 -0.13867,0.625 0,0.23401 0.0463,0.44735 0.13867,0.63672 v 0.002 0.002 c 0.0963,0.1834 0.22718,0.33205 0.39063,0.43946 h 0.002 c 0.16941,0.10823 0.36385,0.16211 0.57617,0.16211 0.21623,0 0.41422,-0.0537 0.58399,-0.16211 0.16821,-0.10747 0.3002,-0.25666 0.39258,-0.44141 0.0971,-0.18966 0.14453,-0.40402 0.14453,-0.63867 0,-0.22997 -0.0477,-0.43977 -0.14453,-0.625 v -0.002 c -0.0923,-0.18412 -0.22478,-0.33225 -0.39258,-0.43946 -0.16977,-0.10845 -0.36776,-0.16211 -0.58399,-0.16211 z m 0,0.19922 c 0.1836,0 0.34008,0.0437 0.47657,0.13086 0.13805,0.0882 0.2445,0.20775 0.32226,0.36328 v 0.002 c 0.0812,0.15466 0.12305,0.33 0.12305,0.5332 0,0.20772 -0.0415,0.3897 -0.12305,0.54883 -0.0778,0.15553 -0.18421,0.27508 -0.32226,0.36328 -0.13649,0.0872 -0.29297,0.13086 -0.47657,0.13086 -0.1783,0 -0.33035,-0.0441 -0.46679,-0.13086 -0.13356,-0.0878 -0.2401,-0.20771 -0.32227,-0.36328 -0.0778,-0.15942 -0.11914,-0.34047 -0.11914,-0.54883 0,-0.20315 0.0403,-0.37865 0.11719,-0.5332 v -0.002 c 0.0823,-0.15619 0.1903,-0.27528 0.32422,-0.36328 0.13644,-0.0867 0.28849,-0.13086 0.46679,-0.13086 z"
           id="path13060" /></g><g
         id="path13021"><path
           style="color:#000000;-inkscape-font-specification:Lexend;stroke:none;stroke-linecap:butt;-inkscape-stroke:none"
           d="m -343.43457,-245.14021 q -0.3573,0 -0.62527,-0.16588 -0.26159,-0.16589 -0.40834,-0.46577 -0.14037,-0.29987 -0.14037,-0.71459 v -2.06722 h 0.65717 v 1.88857 q 0,0.2935 0.0893,0.51043 0.0957,0.21055 0.26797,0.32539 0.17865,0.11485 0.42748,0.11485 0.18503,0 0.33816,-0.0574 0.15312,-0.0638 0.26159,-0.17226 0.11484,-0.10847 0.17865,-0.2616 0.0638,-0.15312 0.0638,-0.33177 v -2.01618 h 0.65717 v 3.34966 h -0.65717 v -0.70183 l 0.11485,-0.0766 q -0.0766,0.23607 -0.2616,0.42748 -0.17864,0.19141 -0.42748,0.30626 -0.24883,0.10846 -0.53594,0.10846 z m -0.14675,-3.93026 -0.21693,-0.3254 0.91238,-0.79753 0.41472,0.52318 z"
           id="path13064" /><path
           style="color:#000000;-inkscape-font-specification:Lexend;stroke:none;stroke-linecap:butt;-inkscape-stroke:none"
           d="m -342.87305,-250.33789 -1.05664,0.92383 0.31641,0.47461 0.0801,-0.043 1.21484,-0.65625 z m -0.0254,0.28906 0.27539,0.34766 -0.92578,0.5 -0.11719,-0.17774 z m -1.81054,1.39453 v 2.16797 c 0,0.28776 0.0493,0.54187 0.15039,0.75781 0.10494,0.21446 0.25504,0.38716 0.44531,0.50782 0.19503,0.12073 0.42487,0.17936 0.67773,0.17968 6.8e-4,1e-5 0.001,0 0.002,0 0.20326,-2.5e-4 0.396,-0.0376 0.57422,-0.11523 l 0.002,-0.002 c 0.16714,-0.0772 0.30986,-0.18364 0.43359,-0.31055 v 0.36523 h 0.85742 v -3.55078 h -0.85742 v 2.11719 c 0,0.1072 -0.0194,0.20363 -0.0566,0.29297 -0.0376,0.0902 -0.0881,0.16403 -0.1543,0.22656 l -0.002,0.002 c -0.0616,0.0616 -0.13723,0.11259 -0.22656,0.15039 -5.6e-4,2.1e-4 -0.001,-2.1e-4 -0.002,0 -0.0893,0.0332 -0.18848,0.0508 -0.30079,0.0508 -0.1505,0 -0.27171,-0.0345 -0.37304,-0.0996 -0.0972,-0.0651 -0.17357,-0.15525 -0.23047,-0.2793 -0.0535,-0.12994 -0.082,-0.28713 -0.082,-0.47266 v -1.98828 z m 0.20117,0.20118 h 0.45703 v 1.7871 c 0,0.20581 0.0301,0.38953 0.0957,0.54883 l 0.002,0.002 v 0.002 c 0.0703,0.15471 0.17152,0.27972 0.30273,0.36719 h 0.002 c 0.13687,0.088 0.30115,0.13086 0.48242,0.13086 0.1337,0 0.25857,-0.0196 0.37305,-0.0625 l 0.002,-0.002 h 0.002 c 0.11204,-0.0467 0.20937,-0.11029 0.29101,-0.1914 l 0.002,-0.002 c 0.086,-0.0817 0.15207,-0.18177 0.19922,-0.29492 0.0478,-0.11482 0.0723,-0.23814 0.0723,-0.36914 v -1.91601 h 0.45703 v 3.14843 h -0.45703 v -0.46679 c 0.0334,-0.0617 0.0878,-0.1131 0.10938,-0.17969 l 0.0898,-0.27344 -0.39844,0.26563 v 0.13867 c -0.0397,0.0649 -0.062,0.1362 -0.11914,0.19531 v 0.002 h -0.002 c -0.1101,0.11797 -0.24152,0.21168 -0.39649,0.28321 -0.15189,0.0659 -0.31483,0.0994 -0.49218,0.0996 -7.1e-4,0 -0.001,0 -0.002,0 -0.22109,-3.3e-4 -0.40944,-0.0512 -0.57031,-0.15039 -0.15775,-0.10004 -0.2805,-0.23979 -0.37109,-0.42383 -0.0861,-0.18388 -0.13086,-0.40668 -0.13086,-0.67188 z"
           id="path13066" /></g><g
         id="path13023"><path
           style="color:#000000;-inkscape-font-specification:Lexend;stroke:none;stroke-linecap:butt;-inkscape-stroke:none"
           d="m -340.74847,-245.20401 v -3.34966 h 0.65717 v 0.68907 l -0.11484,0.0766 q 0.0638,-0.22331 0.24883,-0.40834 0.18503,-0.19141 0.44024,-0.30626 0.25521,-0.12122 0.52318,-0.12122 0.38282,0 0.63803,0.15313 0.25522,0.14674 0.38282,0.453 0.12761,0.30625 0.12761,0.77201 v 2.0417 h -0.65717 v -1.99703 q 0,-0.28712 -0.0766,-0.47215 -0.0766,-0.19141 -0.23607,-0.27435 -0.15951,-0.0893 -0.39558,-0.0766 -0.19141,0 -0.35091,0.0638 -0.15951,0.0574 -0.28074,0.16589 -0.11484,0.10846 -0.18502,0.25521 -0.0638,0.14037 -0.0638,0.30625 v 2.02894 h -0.32539 q -0.0829,0 -0.16589,0 -0.0829,0 -0.16589,0 z"
           id="path13070" /><path
           style="color:#000000;-inkscape-font-specification:Lexend;stroke:none;stroke-linecap:butt;-inkscape-stroke:none"
           d="m -338.99414,-248.72461 c -0.19373,0 -0.38401,0.0442 -0.56641,0.13086 -0.16605,0.0749 -0.30635,0.18085 -0.43164,0.30273 v -0.36328 h -0.85547 v 3.45118 l 0.0879,-0.0547 -0.0332,0.14258 0.14453,0.0723 v -0.0606 h 0.0664 0.16601 0.42383 v -2.1289 c 0,-0.0978 0.0202,-0.18556 0.0566,-0.26563 0.0416,-0.0862 0.0952,-0.1614 0.16211,-0.22461 0.0707,-0.0628 0.15193,-0.11064 0.2461,-0.14453 h 0.002 c 0.0935,-0.0374 0.19796,-0.0566 0.31445,-0.0566 h 0.002 0.004 c 0.14362,-0.008 0.25557,0.0162 0.3418,0.0645 h 0.002 c 0.0842,0.0438 0.14543,0.11264 0.18946,0.22265 v 0.002 c 0.0441,0.10647 0.0684,0.25108 0.0684,0.4336 v 2.09765 h 0.85743 v -2.14257 c 0,-0.31964 -0.0428,-0.58977 -0.13477,-0.81055 -0.092,-0.22079 -0.23582,-0.39078 -0.42578,-0.5 -0.18878,-0.11282 -0.41967,-0.16797 -0.6875,-0.16797 z m 0,0.20117 c 0.24188,0 0.43471,0.0479 0.58594,0.13867 h 0.002 c 0.15033,0.0864 0.26365,0.2187 0.3418,0.40625 0.0781,0.18756 0.11914,0.43105 0.11914,0.73243 v 1.9414 h -0.45703 v -1.89648 c 0,-0.20031 -0.0259,-0.36952 -0.084,-0.50977 -0.0577,-0.14428 -0.15404,-0.25725 -0.28125,-0.32422 -0.12614,-0.0701 -0.27879,-0.0971 -0.44922,-0.0879 -0.13631,7.1e-4 -0.26551,0.0234 -0.38281,0.0703 -0.11594,0.0423 -0.2211,0.10354 -0.31055,0.18359 v 0.002 h -0.002 c -0.0855,0.0808 -0.15327,0.17682 -0.20508,0.28516 l -0.002,0.002 c -0.0487,0.10709 -0.0723,0.22425 -0.0723,0.34766 v 1.92773 h -0.22461 -0.16601 -0.0664 v -3.14843 h 0.45703 v 0.45507 c -0.0336,0.0621 -0.0922,0.11457 -0.11132,0.18164 l -0.0742,0.26172 0.38476,-0.25586 v -0.14062 c 0.0361,-0.0575 0.0517,-0.12003 0.10547,-0.17383 v -0.002 h 0.002 c 0.11434,-0.11828 0.24878,-0.21341 0.40821,-0.28516 h 0.002 c 0.15789,-0.075 0.3169,-0.11133 0.48047,-0.11133 z"
           id="path13072" /></g><g
         id="path13025"><path
           style="color:#000000;-inkscape-font-specification:Lexend;stroke:none;stroke-linecap:butt;-inkscape-stroke:none"
           d="m -335.16571,-245.20401 v -3.34966 h 0.65718 v 0.68907 l -0.11485,0.0766 q 0.0638,-0.22331 0.24883,-0.40834 0.18503,-0.19141 0.44024,-0.30626 0.25521,-0.12122 0.52319,-0.12122 0.38281,0 0.63803,0.15313 0.25521,0.14674 0.38281,0.453 0.12761,0.30625 0.12761,0.77201 v 2.0417 h -0.65717 v -1.99703 q 0,-0.28712 -0.0766,-0.47215 -0.0766,-0.19141 -0.23607,-0.27435 -0.15951,-0.0893 -0.39558,-0.0766 -0.19141,0 -0.35092,0.0638 -0.15951,0.0574 -0.28073,0.16589 -0.11485,0.10846 -0.18503,0.25521 -0.0638,0.14037 -0.0638,0.30625 v 2.02894 h -0.3254 q -0.0829,0 -0.16589,0 -0.0829,0 -0.16589,0 z"
           id="path13076" /><path
           style="color:#000000;-inkscape-font-specification:Lexend;stroke:none;stroke-linecap:butt;-inkscape-stroke:none"
           d="m -333.41016,-248.72461 c -0.19373,0 -0.38401,0.0442 -0.5664,0.13086 -0.16525,0.0746 -0.30676,0.17972 -0.43164,0.30078 v -0.36133 h -0.85742 v 3.45118 l 0.0957,-0.0762 -0.0195,0.17188 0.12304,0.0312 v -0.0274 h 0.0664 0.16602 0.42578 v -2.1289 c 0,-0.0978 0.0183,-0.18556 0.0547,-0.26563 0.0416,-0.0862 0.0952,-0.1614 0.16211,-0.22461 0.0706,-0.0628 0.15193,-0.11064 0.2461,-0.14453 h 0.002 0.002 c 0.0935,-0.0374 0.19601,-0.0566 0.3125,-0.0566 h 0.004 0.002 c 0.14362,-0.008 0.25557,0.0162 0.3418,0.0645 h 0.002 c 0.0842,0.0438 0.14543,0.11264 0.18946,0.22265 v 0.002 h 0.002 c 0.0441,0.10647 0.0684,0.25108 0.0684,0.4336 v 2.09765 h 0.85742 v -2.14257 c 0,-0.31964 -0.0447,-0.58977 -0.13672,-0.81055 -0.092,-0.22079 -0.23387,-0.39078 -0.42383,-0.5 -0.18878,-0.11281 -0.41967,-0.16797 -0.6875,-0.16797 z m 0,0.20117 c 0.24188,0 0.43471,0.0479 0.58594,0.13867 h 0.002 c 0.15033,0.0864 0.2617,0.2187 0.33985,0.40625 0.0781,0.18756 0.11914,0.43105 0.11914,0.73243 v 1.9414 h -0.45703 v -1.89648 c 0,-0.20031 -0.0259,-0.36952 -0.084,-0.50977 -0.0577,-0.14427 -0.15209,-0.25725 -0.27929,-0.32422 -0.12645,-0.0708 -0.27808,-0.0971 -0.44922,-0.0879 l 0.004,-0.002 c -0.13871,0 -0.26757,0.0246 -0.38671,0.0723 -0.11659,0.0423 -0.22069,0.10317 -0.31055,0.18359 l -0.002,0.002 c -0.0856,0.0808 -0.15523,0.17682 -0.20704,0.28516 v 0.002 c -0.0487,0.10709 -0.0742,0.22425 -0.0742,0.34766 v 1.92773 h -0.22461 -0.16602 -0.0664 v -3.14843 h 0.45704 v 0.45703 c -0.0331,0.0614 -0.0904,0.11333 -0.10938,0.17968 l -0.0762,0.26172 0.38672,-0.25586 v -0.14453 c 0.0357,-0.0562 0.0509,-0.11727 0.10351,-0.16992 l 0.002,-0.002 c 0.11433,-0.11828 0.25072,-0.21341 0.41015,-0.28516 h 0.002 c 0.15788,-0.075 0.31689,-0.11133 0.48046,-0.11133 z"
           id="path13078" /></g><g
         id="path13027"><path
           style="color:#000000;-inkscape-font-specification:Lexend;stroke:none;stroke-linecap:butt;-inkscape-stroke:none"
           d="m -329.86368,-245.14021 q -0.49128,0 -0.88048,-0.22331 -0.38282,-0.22969 -0.60613,-0.61889 -0.22331,-0.39558 -0.22331,-0.89962 0,-0.50404 0.22331,-0.89324 0.22331,-0.39558 0.60613,-0.61889 0.3892,-0.22969 0.88048,-0.22969 0.4849,0 0.86772,0.22969 0.3892,0.22331 0.61251,0.61889 0.22331,0.3892 0.22331,0.89324 0,0.50404 -0.22331,0.89962 -0.22331,0.3892 -0.61251,0.61889 -0.38282,0.22331 -0.86772,0.22331 z m 0,-0.59975 q 0.29987,0 0.53594,-0.14674 0.23608,-0.15313 0.37006,-0.40834 0.13399,-0.26159 0.12761,-0.58699 0.006,-0.33177 -0.12761,-0.58699 -0.13398,-0.26159 -0.37006,-0.40834 -0.23607,-0.14674 -0.53594,-0.14674 -0.29987,0 -0.54233,0.15312 -0.23607,0.14675 -0.37005,0.40834 -0.13399,0.25522 -0.12761,0.58061 -0.006,0.3254 0.12761,0.58699 0.13398,0.25521 0.37005,0.40834 0.24246,0.14674 0.54233,0.14674 z"
           id="path13082" /><path
           style="color:#000000;-inkscape-font-specification:Lexend;stroke:none;stroke-linecap:butt;-inkscape-stroke:none"
           d="m -329.86328,-248.72461 c -0.34311,0 -0.65631,0.0817 -0.93164,0.24414 -0.2701,0.15756 -0.48564,0.37824 -0.64258,0.65625 -0.15815,0.27563 -0.23633,0.59061 -0.23633,0.94141 0,0.35079 0.0785,0.66966 0.23633,0.94922 0.15692,0.27349 0.37335,0.49471 0.64258,0.65625 h 0.002 c 0.27522,0.15791 0.58702,0.23632 0.92969,0.23632 0.33862,0 0.64688,-0.0782 0.91797,-0.23632 0.27355,-0.16144 0.49131,-0.3824 0.64844,-0.65625 0.15781,-0.27956 0.23632,-0.59843 0.23632,-0.94922 0,-0.3508 -0.0782,-0.66578 -0.23632,-0.94141 -0.15714,-0.27836 -0.37403,-0.4988 -0.64844,-0.65625 -0.27119,-0.16271 -0.57892,-0.24414 -0.91797,-0.24414 z m 0,0.20117 c 0.30748,0 0.57716,0.0713 0.81641,0.21485 l 0.002,0.002 c 0.24452,0.1403 0.43361,0.331 0.57422,0.58008 v 0.002 c 0.1396,0.2433 0.21093,0.52054 0.21093,0.8418 0,0.32126 -0.071,0.60367 -0.21093,0.85156 -0.14062,0.24508 -0.33079,0.43722 -0.57617,0.58203 -0.23935,0.13962 -0.5085,0.20899 -0.81641,0.20899 -0.31237,0 -0.58832,-0.0711 -0.83203,-0.21094 -0.24003,-0.14456 -0.42802,-0.33548 -0.56836,-0.58008 -0.13994,-0.24789 -0.20899,-0.5303 -0.20899,-0.85156 0,-0.32126 0.0694,-0.5985 0.20899,-0.8418 v -0.002 c 0.14081,-0.24943 0.32999,-0.44185 0.57031,-0.58203 0.24361,-0.14377 0.51814,-0.21485 0.83008,-0.21485 z m 0,0.39844 c -0.21694,0 -0.41833,0.0579 -0.5957,0.16992 -0.17281,0.10742 -0.30953,0.25842 -0.40625,0.44727 -0.0966,0.1847 -0.14258,0.39417 -0.13868,0.62304 v 0.002 c 2e-5,6.8e-4 -10e-6,0.001 0,0.002 -0.004,0.22954 0.0423,0.44208 0.13868,0.63086 v 0.002 c 0.0967,0.18426 0.23288,0.33413 0.40429,0.44532 h 0.002 l 0.002,0.002 c 0.17726,0.10728 0.37752,0.16016 0.59375,0.16016 0.21622,0 0.41439,-0.0543 0.58789,-0.16211 h 0.002 c 0.17142,-0.11119 0.30757,-0.26106 0.4043,-0.44532 v -0.002 c 0.0973,-0.18994 0.1432,-0.40359 0.13867,-0.63477 0.004,-0.23274 -0.0422,-0.44392 -0.13867,-0.6289 v -0.002 c -0.0967,-0.18823 -0.23385,-0.34011 -0.40625,-0.44727 -0.1735,-0.10785 -0.37167,-0.16211 -0.58789,-0.16211 z m 0,0.20117 c 0.1836,0 0.34116,0.0431 0.48242,0.13086 0.14196,0.0882 0.25207,0.20921 0.33399,0.36914 v 0.002 c 0.0805,0.15382 0.12093,0.32981 0.11718,0.5371 v 0.002 0.002 c 0.004,0.20199 -0.0364,0.38063 -0.11718,0.53906 -0.0819,0.15603 -0.19259,0.27811 -0.33594,0.3711 -0.14085,0.0871 -0.29756,0.13086 -0.48047,0.13086 -0.1836,0 -0.34422,-0.0444 -0.49024,-0.13282 -0.14178,-0.0925 -0.25259,-0.21266 -0.33398,-0.36718 v -0.002 c -0.0806,-0.15847 -0.11896,-0.337 -0.11523,-0.53906 v -0.002 -0.002 c -0.004,-0.20269 0.0343,-0.37716 0.11523,-0.53125 v -0.002 c 0.0819,-0.15993 0.19203,-0.27894 0.33398,-0.36719 v -0.002 c 0.14591,-0.0921 0.30735,-0.13672 0.49024,-0.13672 z"
           id="path13084" /></g><g
         id="path13029"><path
           style="color:#000000;-inkscape-font-specification:Lexend;stroke:none;stroke-linecap:butt;-inkscape-stroke:none"
           d="m -325.65906,-245.20401 v -4.72142 h 0.65717 v 2.06083 l -0.11485,0.0766 q 0.0638,-0.22331 0.24884,-0.40834 0.18503,-0.19141 0.44024,-0.30626 0.25521,-0.12122 0.52318,-0.12122 0.38282,0 0.63803,0.15313 0.25521,0.14674 0.38282,0.453 0.12761,0.30625 0.12761,0.77201 v 2.0417 h -0.65718 v -1.99703 q 0,-0.28712 -0.0766,-0.47215 -0.0766,-0.19141 -0.23607,-0.27435 -0.15951,-0.0893 -0.39558,-0.0766 -0.19141,0 -0.35091,0.0638 -0.15951,0.0574 -0.28074,0.16589 -0.11484,0.10846 -0.18503,0.25521 -0.0638,0.14037 -0.0638,0.30625 v 2.02894 h -0.3254 q -0.0829,0 -0.16588,0 -0.0829,0 -0.16589,0 z"
           id="path13088" /><path
           style="color:#000000;-inkscape-font-specification:Lexend;stroke:none;stroke-linecap:butt;-inkscape-stroke:none"
           d="m -325.75977,-250.02539 v 4.82227 l 0.0977,-0.0762 -0.0215,0.17188 0.125,0.0312 v -0.0274 h 0.0644 0.16602 0.42578 v -2.1289 c 0,-0.0971 0.0188,-0.18407 0.0547,-0.26367 v -0.002 c 0.0417,-0.0867 0.0969,-0.16114 0.16407,-0.22461 0.0706,-0.0628 0.14998,-0.11064 0.24414,-0.14453 h 0.002 0.002 c 0.0935,-0.0374 0.19796,-0.0566 0.31446,-0.0566 h 0.002 0.004 c 0.14361,-0.008 0.25361,0.0162 0.33984,0.0645 h 0.002 0.002 c 0.0842,0.0438 0.14542,0.11264 0.18945,0.22265 v 0.002 c 0.0441,0.10647 0.0684,0.25108 0.0684,0.4336 v 2.09765 h 0.85742 v -2.14257 c 0,-0.31964 -0.0428,-0.58977 -0.13477,-0.81055 -0.092,-0.22079 -0.23582,-0.39078 -0.42578,-0.5 -0.18878,-0.11282 -0.41967,-0.16797 -0.6875,-0.16797 -0.19372,0 -0.38401,0.0442 -0.5664,0.13086 -0.16606,0.0749 -0.30635,0.18085 -0.43164,0.30273 v -1.73437 z m 0.20118,0.19922 h 0.45703 V -248 c -0.0341,0.0626 -0.092,0.11587 -0.11133,0.18359 l -0.0742,0.26172 0.38477,-0.25586 v -0.14257 c 0.0359,-0.0569 0.0522,-0.11864 0.10547,-0.17188 v -0.002 c 0.11433,-0.11828 0.25072,-0.21341 0.41015,-0.28516 h 0.002 c 0.15789,-0.075 0.31691,-0.11133 0.48047,-0.11133 0.24188,0 0.43472,0.0479 0.58594,0.13867 h 0.002 c 0.15033,0.0864 0.2617,0.21869 0.33985,0.40625 0.0781,0.18756 0.12109,0.43105 0.12109,0.73243 v 1.9414 h -0.45703 v -1.89648 c 0,-0.20031 -0.0259,-0.36952 -0.084,-0.50977 -0.0577,-0.14428 -0.15405,-0.25725 -0.28125,-0.32422 -0.12646,-0.0708 -0.27808,-0.0971 -0.44922,-0.0879 -0.13631,7.1e-4 -0.26552,0.0234 -0.38282,0.0703 -0.11594,0.0423 -0.22109,0.10354 -0.31054,0.18359 v 0.002 h -0.002 c -0.0855,0.0808 -0.15521,0.17683 -0.20703,0.28516 v 0.002 c -0.0487,0.10709 -0.0723,0.22425 -0.0723,0.34766 v 1.92773 h -0.22656 -0.16602 -0.0644 z"
           id="path13090" /></g><g
         id="path13031"><path
           style="color:#000000;-inkscape-font-specification:Lexend;stroke:none;stroke-linecap:butt;-inkscape-stroke:none"
           d="m -320.57397,-245.14021 q -0.41472,0 -0.75925,-0.22969 -0.33816,-0.22969 -0.54233,-0.62527 -0.20417,-0.39558 -0.20417,-0.89324 0,-0.50404 0.20417,-0.89324 0.21055,-0.39558 0.56147,-0.61889 0.3573,-0.22331 0.79754,-0.22331 0.26159,0 0.47852,0.0766 0.21693,0.0766 0.37644,0.21693 0.16588,0.13399 0.26797,0.31264 0.10846,0.17865 0.13399,0.38282 l -0.14675,-0.0511 v -0.86772 h 0.66355 v 3.34966 h -0.66355 v -0.79754 l 0.15313,-0.0447 q -0.0383,0.17227 -0.15951,0.33816 -0.11485,0.1595 -0.29988,0.28711 -0.17864,0.12761 -0.40195,0.20417 -0.21693,0.0766 -0.45939,0.0766 z m 0.17227,-0.60613 q 0.29988,0 0.52957,-0.14674 0.22969,-0.14675 0.35729,-0.40196 0.13399,-0.26159 0.13399,-0.59337 0,-0.32539 -0.13399,-0.58061 -0.1276,-0.25521 -0.35729,-0.40196 -0.22969,-0.14674 -0.52957,-0.14674 -0.29349,0 -0.52318,0.14674 -0.22331,0.14675 -0.3573,0.40196 -0.12761,0.25522 -0.12761,0.58061 0,0.33178 0.12761,0.59337 0.13399,0.25521 0.3573,0.40196 0.22969,0.14674 0.52318,0.14674 z"
           id="path13094" /><path
           style="color:#000000;-inkscape-font-specification:Lexend;stroke:none;stroke-linecap:butt;-inkscape-stroke:none"
           d="m -320.51562,-248.72461 c -0.31041,0 -0.59771,0.0816 -0.85157,0.24024 -0.24887,0.15836 -0.44817,0.37907 -0.5957,0.65625 h -0.002 c -0.14437,0.27519 -0.21485,0.58992 -0.21485,0.93945 0,0.34545 0.0709,0.66054 0.21485,0.93945 0.14281,0.27671 0.33639,0.49925 0.57617,0.66211 0.24509,0.1634 0.51951,0.24609 0.81445,0.24609 0.17218,0 0.33654,-0.0271 0.49219,-0.082 0.1564,-0.0536 0.29888,-0.12451 0.42578,-0.21484 l 0.002,-0.002 c 0.0599,-0.0415 0.0982,-0.0956 0.14844,-0.14258 v 0.3789 h 0.86328 v -3.55078 h -0.86328 v 0.35547 c -0.0338,-0.0345 -0.0555,-0.0784 -0.0937,-0.10937 -0.11575,-0.10106 -0.25029,-0.17805 -0.4043,-0.23242 -0.15652,-0.0553 -0.32756,-0.084 -0.51171,-0.084 z m 0,0.20117 c 0.16463,0 0.31063,0.0234 0.44335,0.0703 0.1338,0.0472 0.24752,0.1126 0.34375,0.19726 l 0.002,0.002 0.002,0.002 c 0.091,0.0735 0.15981,0.1595 0.21875,0.2539 v 0.38282 l 0.36524,0.12695 -0.0195,-0.1582 c -0.0185,-0.14779 -0.0691,-0.28889 -0.14648,-0.41797 -3.2e-4,-5.4e-4 3.2e-4,-0.001 0,-0.002 v -0.38671 h 0.46289 v 3.14843 h -0.46289 v -0.39843 c 0.068,-0.10388 0.12567,-0.2111 0.15039,-0.32227 l 0.0371,-0.16406 -0.38672,0.11328 v 0.32226 c -0.0679,0.0911 -0.15341,0.17396 -0.26367,0.25 v 0.002 h -0.002 c -0.11076,0.0791 -0.23452,0.14324 -0.375,0.1914 h -0.002 c -0.13359,0.0472 -0.27467,0.0703 -0.42578,0.0703 -0.25802,0 -0.48885,-0.07 -0.70312,-0.21289 -0.21111,-0.14339 -0.38036,-0.33716 -0.50977,-0.5879 -0.12827,-0.24853 -0.19336,-0.52955 -0.19336,-0.84765 0,-0.32253 0.0655,-0.60196 0.19336,-0.8457 0.13321,-0.25027 0.30832,-0.44266 0.52734,-0.58204 0.22212,-0.13841 0.46823,-0.20703 0.74415,-0.20703 z m 0.11328,0.40625 c -0.21233,0 -0.40676,0.0539 -0.57618,0.16211 h -0.002 c -0.16343,0.10741 -0.29434,0.25606 -0.39062,0.43946 v 0.002 c -0.0927,0.18535 -0.13868,0.395 -0.13868,0.625 0,0.23401 0.0463,0.44735 0.13868,0.63672 v 0.002 0.002 c 0.0963,0.1834 0.22719,0.33205 0.39062,0.43946 h 0.002 c 0.16942,0.10823 0.36385,0.16211 0.57618,0.16211 0.21623,0 0.41422,-0.0537 0.58398,-0.16211 0.16821,-0.10747 0.30021,-0.25666 0.39258,-0.44141 0.0971,-0.18966 0.14453,-0.40402 0.14453,-0.63867 0,-0.22997 -0.0476,-0.43977 -0.14453,-0.625 v -0.002 c -0.0923,-0.18412 -0.22478,-0.33225 -0.39258,-0.43946 -0.16976,-0.10845 -0.36775,-0.16211 -0.58398,-0.16211 z m 0,0.19922 c 0.18361,0 0.34007,0.0437 0.47656,0.13086 0.13804,0.0882 0.2445,0.20775 0.32226,0.36328 v 0.002 c 0.0812,0.15466 0.12305,0.33 0.12305,0.5332 0,0.20772 -0.0415,0.3897 -0.12305,0.54883 -0.0778,0.15553 -0.18422,0.27508 -0.32226,0.36328 -0.13649,0.0872 -0.29295,0.13086 -0.47656,0.13086 -0.17831,0 -0.33036,-0.0441 -0.4668,-0.13086 -0.13355,-0.0878 -0.24009,-0.20771 -0.32227,-0.36328 -0.0778,-0.15942 -0.11914,-0.34047 -0.11914,-0.54883 0,-0.20315 0.0402,-0.37865 0.11719,-0.5332 v -0.002 c 0.0823,-0.15619 0.19031,-0.27528 0.32422,-0.36328 0.13644,-0.0867 0.28849,-0.13086 0.4668,-0.13086 z"
           id="path13096" /></g><g
         id="path13033"><path
           style="color:#000000;-inkscape-font-specification:Lexend;stroke:none;stroke-linecap:butt;-inkscape-stroke:none"
           d="m -316.70751,-245.14021 q -0.4211,0 -0.75925,-0.14674 -0.33816,-0.14675 -0.56147,-0.43386 l 0.44662,-0.38282 q 0.19141,0.22331 0.41472,0.32539 0.22969,0.0957 0.51681,0.0957 0.11484,0 0.21055,-0.0255 0.10208,-0.0319 0.17226,-0.0893 0.0766,-0.0574 0.11485,-0.13398 0.0383,-0.0829 0.0383,-0.17865 0,-0.16589 -0.12122,-0.26798 -0.0638,-0.0447 -0.20417,-0.0957 -0.13399,-0.0574 -0.35092,-0.11485 -0.37006,-0.0957 -0.60613,-0.21693 -0.23607,-0.12122 -0.36368,-0.27435 -0.0957,-0.12122 -0.14036,-0.26159 -0.0447,-0.14675 -0.0447,-0.31902 0,-0.21055 0.0893,-0.38281 0.0957,-0.17865 0.25521,-0.30626 0.16589,-0.13398 0.38282,-0.20417 0.22331,-0.0702 0.47214,-0.0702 0.23607,0 0.46576,0.0638 0.23607,0.0638 0.43386,0.18503 0.19779,0.12123 0.33178,0.28711 l -0.37644,0.41472 q -0.12122,-0.12122 -0.26797,-0.21055 -0.14037,-0.0957 -0.28711,-0.14674 -0.14675,-0.051 -0.26798,-0.051 -0.13398,0 -0.24245,0.0255 -0.10846,0.0255 -0.18503,0.0766 -0.0702,0.051 -0.10846,0.12761 -0.0383,0.0766 -0.0383,0.17226 0.006,0.083 0.0383,0.15951 0.0383,0.0702 0.10208,0.12123 0.0702,0.051 0.21055,0.10846 0.14037,0.0574 0.3573,0.10847 0.31901,0.0829 0.52318,0.18503 0.21055,0.0957 0.33178,0.22331 0.12761,0.12122 0.17865,0.28073 0.051,0.15951 0.051,0.3573 0,0.28711 -0.16589,0.5168 -0.15951,0.22331 -0.43386,0.35092 -0.27435,0.1276 -0.61251,0.1276 z"
           id="path13100" /><path
           style="color:#000000;-inkscape-font-specification:Lexend;stroke:none;stroke-linecap:butt;-inkscape-stroke:none"
           d="m -316.74609,-248.72461 c -0.17529,0 -0.34295,0.0262 -0.50196,0.0762 -0.15524,0.0502 -0.29548,0.12336 -0.41601,0.22071 -0.1165,0.0932 -0.20926,0.20714 -0.2793,0.33789 h -0.002 c -0.0672,0.12962 -0.0996,0.27518 -0.0996,0.42968 0,0.1235 0.0159,0.23939 0.0488,0.34766 v 0.002 c 0.0335,0.10532 0.0874,0.20336 0.1582,0.29297 v 0.002 c 0.0962,0.11541 0.2304,0.21354 0.39648,0.29882 0.16676,0.0856 0.37338,0.15954 0.625,0.22461 0.14158,0.0375 0.25542,0.076 0.33789,0.11133 h 0.002 l 0.002,0.002 c 0.0862,0.0313 0.14559,0.0579 0.17578,0.0781 1.3e-4,8e-5 -1.2e-4,0.002 0,0.002 0.0593,0.0505 0.084,0.10396 0.084,0.18946 0,0.0505 -0.01,0.0948 -0.0293,0.13671 -0.018,0.0347 -0.0449,0.0664 -0.084,0.0957 l -0.002,0.002 c -0.0344,0.0282 -0.0791,0.0524 -0.13476,0.0703 -0.0542,0.0144 -0.11639,0.0215 -0.18555,0.0215 -0.17959,0 -0.33749,-0.0302 -0.47656,-0.0879 h -0.002 c -0.13232,-0.0612 -0.25801,-0.15812 -0.37695,-0.29688 l -0.0645,-0.0762 -0.59571,0.50977 0.0586,0.0742 c 0.15882,0.2042 0.36165,0.36073 0.60156,0.46485 0.17849,0.0774 0.3873,0.0958 0.5957,0.11523 l -0.0391,0.0391 h 0.24219 c 0.23802,0 0.45715,-0.045 0.6543,-0.13671 0.1964,-0.0914 0.35579,-0.21921 0.47265,-0.38282 0.12217,-0.16916 0.18555,-0.36355 0.18555,-0.57422 0,-0.14045 -0.019,-0.27091 -0.0566,-0.38867 -0.0386,-0.12065 -0.10714,-0.22784 -0.20117,-0.31836 l -0.002,-0.002 c -0.091,-0.0952 -0.21131,-0.17528 -0.35742,-0.24219 -0.14507,-0.0726 -0.32565,-0.13688 -0.54297,-0.19336 h -0.002 c -0.14117,-0.0332 -0.25531,-0.0681 -0.3418,-0.10351 -0.0887,-0.0363 -0.15366,-0.0719 -0.18945,-0.0977 -0.0302,-0.0249 -0.0539,-0.053 -0.0723,-0.0859 -0.015,-0.0375 -0.024,-0.0767 -0.0273,-0.11718 5.5e-4,-0.0484 0.01,-0.0879 0.0273,-0.12305 0.0186,-0.0371 0.0436,-0.0667 0.0781,-0.0918 0.0388,-0.0253 0.0872,-0.0461 0.14844,-0.0605 0.0634,-0.0149 0.13577,-0.0234 0.21875,-0.0234 0.0668,0 0.14656,0.0157 0.23632,0.0469 0.0889,0.0309 0.17666,0.0754 0.26368,0.13477 l 0.002,0.002 h 0.002 c 0.0911,0.0555 0.17477,0.12204 0.25,0.19727 l 0.0742,0.0742 0.50391,-0.55664 -0.0547,-0.0664 c -0.097,-0.12003 -0.21681,-0.22437 -0.35742,-0.31055 -0.14031,-0.086 -0.293,-0.15045 -0.45899,-0.19531 -0.16163,-0.0449 -0.3258,-0.0684 -0.49218,-0.0684 z m 0,0.20117 c 0.14837,0 0.29484,0.0204 0.43945,0.0606 0.14877,0.0402 0.28479,0.0982 0.4082,0.17383 0.0974,0.0597 0.17097,0.13328 0.24219,0.20898 l -0.24609,0.27149 c -0.0655,-0.0571 -0.13045,-0.11473 -0.20508,-0.16016 -0.0985,-0.0666 -0.20171,-0.11975 -0.30664,-0.15625 -0.1059,-0.0368 -0.20594,-0.0566 -0.30078,-0.0566 -0.0957,0 -0.18243,0.0102 -0.26368,0.0293 -0.0817,0.0192 -0.15595,0.0479 -0.21875,0.0898 l -0.002,0.002 c -0.0591,0.0429 -0.10816,0.0991 -0.14062,0.16407 -0.033,0.066 -0.0488,0.13967 -0.0488,0.21679 v 0.004 0.004 c 0.005,0.066 0.0212,0.1305 0.0469,0.1914 l 0.002,0.004 0.002,0.004 c 0.0318,0.0583 0.0746,0.11045 0.12695,0.15235 l 0.002,0.002 h 0.002 c 0.058,0.0421 0.13466,0.0811 0.23242,0.12109 0.10067,0.0412 0.22302,0.0784 0.37109,0.11329 0.20669,0.0539 0.37539,0.11247 0.50196,0.17578 l 0.002,0.002 h 0.002 c 0.13171,0.0599 0.23128,0.12801 0.30079,0.20117 l 0.002,0.002 0.002,0.002 c 0.074,0.0703 0.12345,0.14798 0.15235,0.23828 0.0303,0.0949 0.0449,0.20486 0.0449,0.32812 0,0.17215 -0.0475,0.31994 -0.14649,0.45704 -0.0958,0.13413 -0.22513,0.23956 -0.39453,0.31836 -0.16865,0.0784 -0.35745,0.11914 -0.57031,0.11914 -0.26912,0 -0.50918,-0.0469 -0.7207,-0.13868 -0.18019,-0.0782 -0.31822,-0.20241 -0.44532,-0.34375 l 0.29688,-0.25195 c 0.11482,0.11705 0.23308,0.22581 0.36719,0.28711 h 0.002 l 0.002,0.002 c 0.16678,0.0695 0.35217,0.10352 0.55469,0.10352 0.084,0 0.16291,-0.01 0.23633,-0.0293 h 0.002 l 0.002,-0.002 c 0.0776,-0.0242 0.1472,-0.0604 0.20508,-0.10742 h 0.002 c 0.0596,-0.0456 0.10847,-0.10166 0.14062,-0.16602 v -0.002 c 0.0317,-0.0686 0.0488,-0.14354 0.0488,-0.2207 0,-0.13496 -0.057,-0.26046 -0.1582,-0.34571 l -0.002,-0.002 -0.004,-0.002 c -0.0548,-0.0384 -0.12835,-0.0729 -0.22266,-0.10743 l -0.006,-0.002 c -0.0954,-0.0405 -0.21409,-0.0787 -0.35937,-0.11719 -0.24179,-0.0625 -0.43794,-0.13298 -0.58594,-0.20898 -0.14867,-0.0763 -0.25807,-0.16124 -0.33203,-0.25 -0.0559,-0.0714 -0.0953,-0.14556 -0.1211,-0.22656 -0.0266,-0.0874 -0.041,-0.18287 -0.041,-0.28907 0,-0.12553 0.0268,-0.23631 0.0781,-0.33593 v -0.002 c 0.0575,-0.10686 0.13274,-0.19681 0.22852,-0.27343 h 0.002 c 0.10066,-0.0813 0.21562,-0.14415 0.34961,-0.1875 0.13874,-0.0436 0.28492,-0.0645 0.44141,-0.0645 z"
           id="path13102" /></g><g
         id="path13035"><path
           style="color:#000000;-inkscape-font-specification:Lexend;stroke:none;stroke-linecap:butt;-inkscape-stroke:none"
           d="m -311.86485,-245.14021 q -0.4211,0 -0.75926,-0.14674 -0.33816,-0.14675 -0.56147,-0.43386 l 0.44662,-0.38282 q 0.19141,0.22331 0.41472,0.32539 0.2297,0.0957 0.51681,0.0957 0.11484,0 0.21055,-0.0255 0.10208,-0.0319 0.17227,-0.0893 0.0766,-0.0574 0.11484,-0.13398 0.0383,-0.0829 0.0383,-0.17865 0,-0.16589 -0.12122,-0.26798 -0.0638,-0.0447 -0.20417,-0.0957 -0.13399,-0.0574 -0.35092,-0.11485 -0.37006,-0.0957 -0.60613,-0.21693 -0.23607,-0.12122 -0.36367,-0.27435 -0.0957,-0.12122 -0.14037,-0.26159 -0.0447,-0.14675 -0.0447,-0.31902 0,-0.21055 0.0893,-0.38281 0.0957,-0.17865 0.25521,-0.30626 0.16589,-0.13398 0.38282,-0.20417 0.22331,-0.0702 0.47214,-0.0702 0.23608,0 0.46577,0.0638 0.23607,0.0638 0.43386,0.18503 0.19779,0.12123 0.33177,0.28711 l -0.37644,0.41472 q -0.12122,-0.12122 -0.26797,-0.21055 -0.14036,-0.0957 -0.28711,-0.14674 -0.14675,-0.051 -0.26797,-0.051 -0.13399,0 -0.24246,0.0255 -0.10846,0.0255 -0.18502,0.0766 -0.0702,0.051 -0.10847,0.12761 -0.0383,0.0766 -0.0383,0.17226 0.006,0.083 0.0383,0.15951 0.0383,0.0702 0.10209,0.12123 0.0702,0.051 0.21055,0.10846 0.14036,0.0574 0.35729,0.10847 0.31902,0.0829 0.52319,0.18503 0.21055,0.0957 0.33177,0.22331 0.12761,0.12122 0.17865,0.28073 0.051,0.15951 0.051,0.3573 0,0.28711 -0.16588,0.5168 -0.15951,0.22331 -0.43387,0.35092 -0.27435,0.1276 -0.6125,0.1276 z"
           id="path13106" /><path
           style="color:#000000;-inkscape-font-specification:Lexend;stroke:none;stroke-linecap:butt;-inkscape-stroke:none"
           d="m -311.90234,-248.72461 c -0.17529,0 -0.3449,0.0262 -0.50391,0.0762 -0.15525,0.0502 -0.29353,0.12336 -0.41406,0.22071 -0.1165,0.0932 -0.21121,0.20714 -0.28125,0.33789 -0.0672,0.12962 -0.10156,0.27518 -0.10156,0.42968 0,0.1235 0.0159,0.23939 0.0488,0.34766 l 0.002,0.002 c 0.0335,0.10532 0.0855,0.20336 0.15625,0.29297 l 0.002,0.002 c 0.0962,0.11541 0.22844,0.21354 0.39453,0.29882 0.16676,0.0856 0.37533,0.15954 0.62695,0.22461 0.14158,0.0375 0.25347,0.076 0.33594,0.11133 h 0.004 l 0.002,0.002 c 0.0854,0.031 0.14334,0.0579 0.17383,0.0781 0.0604,0.0509 0.0859,0.10517 0.0859,0.19141 0,0.0505 -0.01,0.0948 -0.0293,0.13671 -0.018,0.0347 -0.0449,0.0664 -0.084,0.0957 h -0.002 l -0.002,0.002 c -0.0344,0.0282 -0.0791,0.0524 -0.13477,0.0703 -0.0542,0.0144 -0.11443,0.0215 -0.18359,0.0215 -0.1803,0 -0.33904,-0.0298 -0.47852,-0.0879 -0.13278,-0.0612 -0.25763,-0.15767 -0.37695,-0.29688 l -0.0664,-0.0762 -0.59375,0.50977 0.0586,0.0742 c 0.15882,0.2042 0.35969,0.36073 0.59961,0.46485 0.17906,0.0777 0.3885,0.0959 0.59765,0.11523 l -0.0391,0.0391 h 0.24024 c 0.23801,0 0.45715,-0.045 0.65429,-0.13671 0.19592,-0.0911 0.35587,-0.21979 0.47266,-0.38282 0.12216,-0.16916 0.18555,-0.36355 0.18555,-0.57422 0,-0.14045 -0.019,-0.27091 -0.0566,-0.38867 -0.0387,-0.12098 -0.10674,-0.22769 -0.20118,-0.31836 -0.0916,-0.0964 -0.21161,-0.17666 -0.35937,-0.24414 -0.14507,-0.0726 -0.32564,-0.13688 -0.54297,-0.19336 h -0.002 c -0.14117,-0.0332 -0.25532,-0.0681 -0.3418,-0.10351 -0.0886,-0.0363 -0.15171,-0.0719 -0.1875,-0.0977 -0.0291,-0.0239 -0.0542,-0.0506 -0.0723,-0.082 -0.0159,-0.0387 -0.0259,-0.0793 -0.0293,-0.12109 5.5e-4,-0.0484 0.01,-0.0879 0.0273,-0.12305 0.0186,-0.0371 0.0436,-0.0667 0.0781,-0.0918 0.0388,-0.0253 0.0872,-0.0461 0.14843,-0.0605 0.0634,-0.0149 0.13772,-0.0234 0.22071,-0.0234 0.0668,0 0.1446,0.0157 0.23437,0.0469 0.0889,0.0309 0.17667,0.0755 0.26367,0.13477 l 0.002,0.002 h 0.002 c 0.0911,0.0555 0.17477,0.12204 0.25,0.19727 l 0.0742,0.0742 0.5039,-0.55664 -0.0527,-0.0664 c -0.0969,-0.12004 -0.21681,-0.22437 -0.35742,-0.31055 -0.13981,-0.0857 -0.29368,-0.15046 -0.45899,-0.19531 h -0.002 c -0.16103,-0.0445 -0.32449,-0.0684 -0.49023,-0.0684 z m 0,0.20117 c 0.14837,0 0.29288,0.0204 0.4375,0.0606 h 0.002 c 0.14877,0.0402 0.28284,0.0982 0.40625,0.17383 0.0974,0.0597 0.17098,0.13328 0.24219,0.20898 l -0.2461,0.27149 c -0.064,-0.0557 -0.1264,-0.11361 -0.19922,-0.15821 l -0.004,-0.002 c -0.099,-0.067 -0.20117,-0.11957 -0.30664,-0.15625 -0.1059,-0.0368 -0.20595,-0.0566 -0.30078,-0.0566 -0.0957,0 -0.18439,0.0102 -0.26563,0.0293 -0.0817,0.0192 -0.15401,0.0479 -0.2168,0.0898 l -0.002,0.002 h -0.002 c -0.0591,0.0429 -0.1062,0.0991 -0.13867,0.16407 -0.033,0.066 -0.0488,0.13967 -0.0488,0.21679 v 0.004 0.004 c 0.005,0.066 0.0192,0.1305 0.0449,0.1914 l 0.002,0.004 0.004,0.004 c 0.0318,0.0583 0.0746,0.11045 0.12695,0.15235 l 0.002,0.002 h 0.002 c 0.058,0.0421 0.13271,0.0811 0.23047,0.12109 0.10066,0.0412 0.22497,0.0784 0.37304,0.11329 0.20669,0.0539 0.37344,0.11247 0.5,0.17578 l 0.002,0.002 h 0.002 c 0.13171,0.0599 0.23128,0.12801 0.30078,0.20117 l 0.002,0.002 0.002,0.002 c 0.074,0.0703 0.12345,0.14798 0.15234,0.23828 0.0303,0.0949 0.0469,0.20486 0.0469,0.32812 0,0.17215 -0.0494,0.31994 -0.14844,0.45704 -0.0958,0.13413 -0.22513,0.23956 -0.39453,0.31836 -0.16866,0.0784 -0.35746,0.11914 -0.57031,0.11914 -0.26912,0 -0.50722,-0.0469 -0.71875,-0.13868 -0.18026,-0.0782 -0.32014,-0.20233 -0.44727,-0.34375 l 0.29688,-0.2539 c 0.11538,0.11805 0.23424,0.2274 0.36914,0.28906 l 0.002,0.002 c 0.16679,0.0695 0.35412,0.10352 0.55664,0.10352 0.084,0 0.16291,-0.01 0.23633,-0.0293 h 0.002 l 0.002,-0.002 c 0.0775,-0.0242 0.14524,-0.0604 0.20313,-0.10742 h 0.002 c 0.0597,-0.0456 0.10849,-0.10165 0.14063,-0.16602 l 0.002,-0.002 c 0.0317,-0.0686 0.0469,-0.14354 0.0469,-0.2207 0,-0.13496 -0.055,-0.26046 -0.15625,-0.34571 l -0.004,-0.002 -0.004,-0.002 c -0.0548,-0.0384 -0.12641,-0.0729 -0.2207,-0.10743 l -0.006,-0.002 c -0.0954,-0.0405 -0.21409,-0.0787 -0.35937,-0.11719 -0.24179,-0.0625 -0.43794,-0.13298 -0.58594,-0.20898 -0.14867,-0.0763 -0.25807,-0.16124 -0.33203,-0.25 -0.0563,-0.0716 -0.0972,-0.14526 -0.12305,-0.22656 -0.0266,-0.0874 -0.0391,-0.18287 -0.0391,-0.28907 0,-0.12623 0.0263,-0.23783 0.0781,-0.33789 0.0574,-0.10637 0.13307,-0.19708 0.22852,-0.27343 0.10022,-0.081 0.21635,-0.14418 0.34961,-0.1875 0.13873,-0.0436 0.28687,-0.0645 0.44336,-0.0645 z"
           id="path13108" /></g><g
         id="path13037"><path
           style="color:#000000;-inkscape-font-specification:Lexend;stroke:none;stroke-linecap:butt;-inkscape-stroke:none"
           d="m -308.41949,-245.14021 q -0.49128,0 -0.88048,-0.22331 -0.38282,-0.22969 -0.60613,-0.61889 -0.22331,-0.39558 -0.22331,-0.89962 0,-0.50404 0.22331,-0.89324 0.22331,-0.39558 0.60613,-0.61889 0.3892,-0.22969 0.88048,-0.22969 0.4849,0 0.86772,0.22969 0.3892,0.22331 0.61251,0.61889 0.22331,0.3892 0.22331,0.89324 0,0.50404 -0.22331,0.89962 -0.22331,0.3892 -0.61251,0.61889 -0.38282,0.22331 -0.86772,0.22331 z m 0,-0.59975 q 0.29987,0 0.53594,-0.14674 0.23607,-0.15313 0.37006,-0.40834 0.13399,-0.26159 0.12761,-0.58699 0.006,-0.33177 -0.12761,-0.58699 -0.13399,-0.26159 -0.37006,-0.40834 -0.23607,-0.14674 -0.53594,-0.14674 -0.29988,0 -0.54233,0.15312 -0.23607,0.14675 -0.37005,0.40834 -0.13399,0.25522 -0.12761,0.58061 -0.006,0.3254 0.12761,0.58699 0.13398,0.25521 0.37005,0.40834 0.24245,0.14674 0.54233,0.14674 z"
           id="path13112" /><path
           style="color:#000000;-inkscape-font-specification:Lexend;stroke:none;stroke-linecap:butt;-inkscape-stroke:none"
           d="m -308.41992,-248.72461 c -0.34243,0 -0.65476,0.0823 -0.92969,0.24414 -0.2701,0.15756 -0.48759,0.37824 -0.64453,0.65625 h 0.002 c -0.15814,0.27563 -0.23633,0.59061 -0.23633,0.94141 0,0.35079 0.0766,0.66966 0.23438,0.94922 h 0.002 c 0.15693,0.27349 0.3714,0.49471 0.64063,0.65625 h 0.002 c 0.27522,0.15791 0.58702,0.23632 0.92969,0.23632 0.33862,0 0.64688,-0.0782 0.91797,-0.23632 h 0.002 c 0.27355,-0.16144 0.49131,-0.3824 0.64844,-0.65625 0.15781,-0.27956 0.23633,-0.59843 0.23633,-0.94922 0,-0.3508 -0.0782,-0.66578 -0.23633,-0.94141 -0.15714,-0.27836 -0.37598,-0.4988 -0.65039,-0.65625 -0.2708,-0.16206 -0.57959,-0.24414 -0.91797,-0.24414 z m 0,0.20117 c 0.30747,0 0.57716,0.0713 0.8164,0.21485 h 0.002 v 0.002 c 0.24452,0.1403 0.43556,0.331 0.57617,0.58008 v 0.002 c 0.1396,0.2433 0.20898,0.52054 0.20898,0.8418 0,0.32126 -0.0691,0.60367 -0.20898,0.85156 -0.14062,0.24508 -0.33274,0.43722 -0.57813,0.58203 -0.23894,0.13899 -0.50918,0.20899 -0.8164,0.20899 -0.31237,0 -0.58637,-0.0711 -0.83008,-0.21094 -0.24003,-0.14456 -0.42997,-0.33547 -0.57031,-0.58008 h 0.002 c -0.13993,-0.24789 -0.21094,-0.5303 -0.21094,-0.85156 0,-0.32126 0.0694,-0.5985 0.20899,-0.8418 l 0.002,-0.002 c 0.14081,-0.24943 0.32804,-0.44185 0.56836,-0.58203 0.24361,-0.14377 0.51814,-0.21485 0.83008,-0.21485 z m 0,0.39844 c -0.21628,0 -0.41677,0.0586 -0.59375,0.16992 -0.1728,0.10742 -0.30953,0.25842 -0.40625,0.44727 -0.0966,0.1847 -0.14257,0.39417 -0.13867,0.62304 v 0.002 c 10e-6,6.8e-4 -2e-5,0.001 0,0.002 -0.004,0.22954 0.0403,0.44209 0.13672,0.63086 h 0.002 v 0.002 c 0.0967,0.18426 0.23288,0.33413 0.4043,0.44532 l 0.002,0.002 c 0.17726,0.10728 0.37752,0.16016 0.59375,0.16016 0.21622,0 0.41634,-0.0543 0.58984,-0.16211 0.17141,-0.11119 0.30756,-0.26106 0.4043,-0.44532 h 0.002 v -0.002 c 0.0973,-0.18994 0.14321,-0.40359 0.13867,-0.63477 0.004,-0.23343 -0.0436,-0.44548 -0.14062,-0.63085 -0.0967,-0.18765 -0.23228,-0.34034 -0.4043,-0.44727 -0.1735,-0.10785 -0.37362,-0.16211 -0.58984,-0.16211 z m 0,0.20117 c 0.1836,0 0.34312,0.0431 0.48437,0.13086 0.14196,0.0882 0.25207,0.2092 0.33399,0.36914 v 0.002 c 0.0805,0.15382 0.11898,0.32981 0.11523,0.5371 v 0.002 0.002 c 0.004,0.20199 -0.0344,0.38063 -0.11523,0.53906 -0.0819,0.15603 -0.19259,0.27811 -0.33594,0.3711 -0.14085,0.0871 -0.29951,0.13086 -0.48242,0.13086 -0.18361,0 -0.34423,-0.0444 -0.49024,-0.13282 -0.14141,-0.0923 -0.25071,-0.21325 -0.33203,-0.36718 -0.0811,-0.1589 -0.12092,-0.33826 -0.11718,-0.54102 v -0.002 -0.002 c -0.004,-0.20269 0.0343,-0.37716 0.11523,-0.53125 h 0.002 v -0.002 c 0.0819,-0.15993 0.19203,-0.27894 0.33399,-0.36719 v -0.002 c 0.14589,-0.0921 0.30538,-0.13672 0.48828,-0.13672 z"
           id="path13114" /></g><g
         id="path13039"><path
           style="color:#000000;-inkscape-font-specification:Lexend;stroke:none;stroke-linecap:butt;-inkscape-stroke:none"
           d="m -306.00136,-245.20401 v -3.34966 h 0.65717 v 0.68907 l -0.11485,0.0766 q 0.0638,-0.22331 0.24884,-0.40834 0.18502,-0.19141 0.44024,-0.30626 0.25521,-0.12122 0.52318,-0.12122 0.38282,0 0.63803,0.15313 0.25521,0.14674 0.38282,0.453 0.12761,0.30625 0.12761,0.77201 v 2.0417 h -0.65718 v -1.99703 q 0,-0.28712 -0.0766,-0.47215 -0.0766,-0.19141 -0.23607,-0.27435 -0.15951,-0.0893 -0.39558,-0.0766 -0.19141,0 -0.35092,0.0638 -0.1595,0.0574 -0.28073,0.16589 -0.11484,0.10846 -0.18503,0.25521 -0.0638,0.14037 -0.0638,0.30625 v 2.02894 h -0.3254 q -0.0829,0 -0.16588,0 -0.083,0 -0.16589,0 z m 1.95875,-3.92388 q -0.1276,0 -0.21693,-0.0511 -0.0829,-0.051 -0.17865,-0.1276 -0.12122,-0.10847 -0.18503,-0.14675 -0.0574,-0.0447 -0.10846,-0.0447 -0.083,0 -0.14675,0.0957 -0.0638,0.0893 -0.0893,0.27436 l -0.43386,-0.0638 q 0.0128,-0.31263 0.19779,-0.54232 0.19141,-0.22969 0.50404,-0.22969 0.12761,0 0.21055,0.051 0.0893,0.051 0.18503,0.1276 0.1276,0.10209 0.18503,0.14675 0.0574,0.0447 0.10846,0.0447 0.0893,0 0.14675,-0.0957 0.0638,-0.0957 0.0893,-0.27435 l 0.43386,0.0638 q -0.006,0.20417 -0.0957,0.38282 -0.0893,0.17865 -0.24245,0.28711 -0.15313,0.10209 -0.36368,0.10209 z"
           id="path13118" /><path
           style="color:#000000;-inkscape-font-specification:Lexend;stroke:none;stroke-linecap:butt;-inkscape-stroke:none"
           d="m -303.85937,-250.07812 -0.0137,0.0996 c -0.0157,0.11003 -0.0442,0.18936 -0.0742,0.23438 l -0.002,0.002 v 0.002 c -0.0265,0.0442 -0.0367,0.0469 -0.0605,0.0469 -0.005,0 -0.0219,-0.002 -0.0488,-0.0234 -0.0375,-0.0291 -0.0987,-0.0786 -0.1836,-0.14648 -0.0665,-0.0532 -0.13113,-0.0979 -0.19531,-0.13477 -0.0748,-0.046 -0.16332,-0.0664 -0.26172,-0.0664 -0.23291,0 -0.43728,0.0919 -0.58203,0.26562 v 0.002 c -0.13652,0.16951 -0.21141,0.37446 -0.2207,0.60156 l -0.004,0.0898 0.62305,0.0918 0.0137,-0.10156 c 0.0158,-0.11436 0.0451,-0.19045 0.0723,-0.22852 v -0.002 l 0.002,-0.002 c 0.0314,-0.0471 0.0456,-0.0508 0.0625,-0.0508 0.005,0 0.0199,0.002 0.0469,0.0234 l 0.006,0.004 0.006,0.004 c 0.0308,0.0185 0.0913,0.0644 0.16992,0.13477 l 0.002,0.002 0.002,0.002 c 0.0664,0.0531 0.12784,0.0981 0.1875,0.13477 h 0.002 l 0.002,0.002 c 0.0774,0.0443 0.16721,0.0645 0.26562,0.0645 h 0.0996 v -0.0273 c 0.11417,-0.0142 0.22895,-0.0309 0.32031,-0.0918 v -0.002 h 0.002 c 0.11575,-0.082 0.2073,-0.19191 0.27343,-0.32422 0.0663,-0.13195 0.10302,-0.27394 0.10743,-0.42382 l 0.002,-0.0899 z m -0.83985,0.21484 c 0.0718,0 0.1224,0.0131 0.1582,0.0352 v 0.002 h 0.002 c 0.0542,0.0309 0.11144,0.0708 0.17187,0.11914 0.0852,0.0682 0.1484,0.11803 0.1875,0.14844 0.0496,0.0386 0.1067,0.0645 0.16992,0.0645 0.0934,0 0.17802,-0.0598 0.22852,-0.14063 v -0.002 c 0.0379,-0.0572 0.0553,-0.13793 0.0742,-0.2168 l 0.24414,0.0371 c -0.012,0.0878 -0.0226,0.17455 -0.0625,0.25391 -0.0529,0.10589 -0.12249,0.18736 -0.21094,0.25 -0.0842,0.0557 -0.18317,0.084 -0.30664,0.084 -0.0717,0 -0.12427,-0.0132 -0.16601,-0.0371 -0.049,-0.0303 -0.10349,-0.0686 -0.16211,-0.11524 l -0.004,-0.004 c -0.0781,-0.0697 -0.13928,-0.11842 -0.19141,-0.15039 -0.0488,-0.0372 -0.1043,-0.0625 -0.16601,-0.0625 -0.0938,0 -0.17492,0.0602 -0.22852,0.14063 -0.0392,0.056 -0.0536,0.13896 -0.0723,0.21875 l -0.23633,-0.0352 c 0.0211,-0.14688 0.0539,-0.28596 0.14453,-0.39843 0.1101,-0.13105 0.24286,-0.19141 0.42578,-0.19141 z m 0.45313,1.13867 c -0.19373,0 -0.38402,0.0442 -0.56641,0.13086 -0.16606,0.0749 -0.30635,0.18085 -0.43164,0.30273 v -0.36328 h -0.85742 v 3.45118 l 0.0957,-0.0762 -0.0195,0.17188 0.125,0.0312 v -0.0274 h 0.0645 0.16602 0.42578 v -2.1289 c 0,-0.0971 0.0188,-0.18407 0.0547,-0.26367 v -0.002 c 0.0417,-0.0867 0.0949,-0.16114 0.16211,-0.22461 0.0706,-0.0628 0.15193,-0.11064 0.24609,-0.14453 h 0.002 0.002 c 0.0935,-0.0374 0.19795,-0.0566 0.31445,-0.0566 h 0.002 0.002 c 0.14361,-0.008 0.25556,0.0162 0.34179,0.0645 h 0.002 c 0.0842,0.0438 0.14542,0.11264 0.18945,0.22265 l 0.002,0.002 c 0.0441,0.10647 0.0684,0.25108 0.0684,0.4336 v 2.09765 h 0.85742 v -2.14257 c 0,-0.31964 -0.0428,-0.58977 -0.13476,-0.81055 -0.092,-0.22079 -0.23583,-0.39078 -0.42578,-0.5 -0.18878,-0.11282 -0.41968,-0.16797 -0.6875,-0.16797 z m 0,0.20117 c 0.24188,0 0.43471,0.0479 0.58593,0.13867 h 0.002 c 0.15032,0.0864 0.26169,0.21869 0.33984,0.40625 0.0781,0.18756 0.11914,0.43105 0.11914,0.73243 v 1.9414 h -0.45703 v -1.89648 c 0,-0.20031 -0.0259,-0.36952 -0.084,-0.50977 -0.0577,-0.14427 -0.1521,-0.25725 -0.2793,-0.32422 -0.12645,-0.0708 -0.27808,-0.0971 -0.44922,-0.0879 -0.13631,7.1e-4 -0.26551,0.0234 -0.38281,0.0703 -0.11594,0.0423 -0.2211,0.10354 -0.31055,0.18359 l -0.002,0.002 c -0.0855,0.0808 -0.15522,0.17683 -0.20703,0.28516 v 0.002 c -0.0487,0.10709 -0.0723,0.22425 -0.0723,0.34766 v 1.92773 h -0.22656 -0.16602 -0.0645 v -3.14843 h 0.45703 V -248 c -0.0341,0.0626 -0.092,0.11587 -0.11133,0.18359 l -0.0762,0.26172 0.38672,-0.25586 v -0.14257 c 0.0359,-0.0569 0.0522,-0.11864 0.10547,-0.17188 v -0.002 c 0.11432,-0.11828 0.25072,-0.21341 0.41015,-0.28516 h 0.002 c 0.15789,-0.075 0.3169,-0.11133 0.48047,-0.11133 z"
           id="path13120" /></g><g
         id="path13041"><path
           style="color:#000000;-inkscape-font-specification:Lexend;stroke:none;stroke-linecap:butt;-inkscape-stroke:none"
           d="m -300.91626,-245.14021 q -0.41472,0 -0.75926,-0.22969 -0.33816,-0.22969 -0.54233,-0.62527 -0.20417,-0.39558 -0.20417,-0.89324 0,-0.50404 0.20417,-0.89324 0.21055,-0.39558 0.56147,-0.61889 0.3573,-0.22331 0.79754,-0.22331 0.26159,0 0.47852,0.0766 0.21693,0.0766 0.37644,0.21693 0.16589,0.13399 0.26797,0.31264 0.10847,0.17865 0.13399,0.38282 l -0.14675,-0.0511 v -0.86772 h 0.66355 v 3.34966 h -0.66355 v -0.79754 l 0.15313,-0.0447 q -0.0383,0.17227 -0.15951,0.33816 -0.11485,0.1595 -0.29987,0.28711 -0.17865,0.12761 -0.40196,0.20417 -0.21693,0.0766 -0.45938,0.0766 z m 0.17226,-0.60613 q 0.29988,0 0.52957,-0.14674 0.22969,-0.14675 0.3573,-0.40196 0.13398,-0.26159 0.13398,-0.59337 0,-0.32539 -0.13398,-0.58061 -0.12761,-0.25521 -0.3573,-0.40196 -0.22969,-0.14674 -0.52957,-0.14674 -0.29349,0 -0.52318,0.14674 -0.22331,0.14675 -0.3573,0.40196 -0.1276,0.25522 -0.1276,0.58061 0,0.33178 0.1276,0.59337 0.13399,0.25521 0.3573,0.40196 0.22969,0.14674 0.52318,0.14674 z"
           id="path13124" /><path
           style="color:#000000;-inkscape-font-specification:Lexend;stroke:none;stroke-linecap:butt;-inkscape-stroke:none"
           d="m -300.85937,-248.72461 c -0.31041,0 -0.59576,0.0816 -0.84961,0.24024 h -0.002 c -0.24887,0.15836 -0.44817,0.37907 -0.5957,0.65625 -0.14436,0.27519 -0.21484,0.58992 -0.21484,0.93945 0,0.34545 0.0709,0.66054 0.21484,0.93945 0.14281,0.27671 0.33444,0.49925 0.57422,0.66211 h 0.002 c 0.2451,0.1634 0.51951,0.24609 0.81445,0.24609 0.17217,0 0.33655,-0.0271 0.49219,-0.082 0.1564,-0.0536 0.29887,-0.12451 0.42578,-0.21484 l 0.002,-0.002 c 0.0591,-0.0409 0.0967,-0.0944 0.14648,-0.14063 v 0.37695 h 0.86524 v -3.55078 h -0.86524 v 0.35352 c -0.0332,-0.0337 -0.0542,-0.0771 -0.0918,-0.10742 -0.11575,-0.10107 -0.25224,-0.17804 -0.40625,-0.23242 -0.15652,-0.0553 -0.32756,-0.084 -0.51171,-0.084 z m 0,0.20117 c 0.16463,0 0.31259,0.0234 0.44531,0.0703 0.1338,0.0472 0.24751,0.1126 0.34375,0.19726 l 0.002,0.002 0.002,0.002 c 0.0902,0.0729 0.1581,0.1585 0.2168,0.25195 v 0.38477 l 0.36719,0.12695 -0.0195,-0.1582 c -0.0185,-0.1478 -0.0691,-0.28889 -0.14649,-0.41797 -3.2e-4,-5.4e-4 3.3e-4,-0.001 0,-0.002 v -0.38671 h 0.46289 v 3.14843 h -0.46289 v -0.39843 c 0.068,-0.10388 0.12568,-0.2111 0.15039,-0.32227 l 0.0371,-0.16406 -0.38867,0.11328 v 0.32422 c -0.0677,0.0903 -0.15231,0.17258 -0.26172,0.24804 l -0.002,0.002 c -0.11076,0.0791 -0.23647,0.14324 -0.37695,0.1914 -0.1336,0.0472 -0.27468,0.0703 -0.42579,0.0703 -0.25801,0 -0.48884,-0.07 -0.70312,-0.21289 -0.21111,-0.14339 -0.38036,-0.33716 -0.50977,-0.5879 -0.12827,-0.24853 -0.19336,-0.52955 -0.19336,-0.84765 0,-0.32253 0.0655,-0.60196 0.19336,-0.8457 0.13321,-0.25027 0.30637,-0.44266 0.52539,-0.58204 0.22255,-0.13909 0.46756,-0.20703 0.74415,-0.20703 z m 0.11523,0.40625 c -0.21233,0 -0.40676,0.0539 -0.57617,0.16211 h -0.002 c -0.16343,0.10741 -0.29433,0.25606 -0.39062,0.43946 v 0.002 h -0.002 c -0.0927,0.18535 -0.13672,0.395 -0.13672,0.625 0,0.234 0.0444,0.44735 0.13672,0.63672 l 0.002,0.002 v 0.002 c 0.0963,0.1834 0.22719,0.33205 0.39062,0.43946 h 0.002 c 0.16941,0.10823 0.36384,0.16211 0.57617,0.16211 0.21623,0 0.41422,-0.0537 0.58398,-0.16211 0.16821,-0.10747 0.3002,-0.25666 0.39258,-0.44141 0.0971,-0.18966 0.14453,-0.40402 0.14453,-0.63867 0,-0.23065 -0.049,-0.44132 -0.14648,-0.62695 -0.0923,-0.18356 -0.2232,-0.33249 -0.39063,-0.43946 -0.16976,-0.10845 -0.36775,-0.16211 -0.58398,-0.16211 z m 0,0.19922 c 0.18361,0 0.34007,0.0437 0.47656,0.13086 0.13805,0.0882 0.24255,0.20775 0.32031,0.36328 h 0.002 v 0.002 c 0.0812,0.15466 0.12304,0.33 0.12304,0.5332 0,0.20772 -0.0415,0.3897 -0.12304,0.54883 h -0.002 c -0.0778,0.15553 -0.18226,0.27508 -0.32031,0.36328 -0.13649,0.0872 -0.29295,0.13086 -0.47656,0.13086 -0.17899,0 -0.33191,-0.0434 -0.46875,-0.13086 -0.13391,-0.088 -0.24,-0.2071 -0.32227,-0.36328 v -0.002 c -0.0772,-0.15903 -0.11718,-0.33921 -0.11718,-0.54687 0,-0.20315 0.0402,-0.37865 0.11718,-0.5332 v -0.002 c 0.0823,-0.15618 0.18836,-0.27528 0.32227,-0.36328 0.13684,-0.0874 0.28976,-0.13086 0.46875,-0.13086 z"
           id="path13126" /></g><g
         id="path13043"><path
           style="color:#000000;-inkscape-font-specification:Lexend;stroke:none;stroke-linecap:butt;-inkscape-stroke:none"
           d="m -296.76907,-245.14021 q -0.45938,0 -0.82306,-0.22331 -0.3573,-0.22969 -0.56785,-0.61889 -0.21055,-0.39558 -0.21055,-0.89962 0,-0.50404 0.20417,-0.89324 0.21055,-0.39558 0.56785,-0.61889 0.3573,-0.22969 0.8103,-0.22969 0.24883,0 0.47852,0.0829 0.23607,0.0766 0.4211,0.21693 0.18503,0.13399 0.28711,0.29988 0.10847,0.1595 0.10847,0.32539 l -0.19141,0.0128 v -2.23948 h 0.65717 v 4.72142 h -0.65717 v -0.79754 h 0.1276 q 0,0.15313 -0.10208,0.30626 -0.10209,0.14674 -0.27435,0.27435 -0.16589,0.12761 -0.3892,0.20417 -0.21693,0.0766 -0.44662,0.0766 z m 0.0893,-0.56784 q 0.29988,0 0.52957,-0.15313 0.22969,-0.15313 0.35729,-0.41472 0.13399,-0.26797 0.13399,-0.60613 0,-0.33815 -0.13399,-0.59975 -0.1276,-0.26797 -0.35729,-0.4211 -0.22969,-0.15312 -0.52957,-0.15312 -0.29987,0 -0.52956,0.15312 -0.22969,0.15313 -0.36368,0.4211 -0.12761,0.2616 -0.12761,0.59975 0,0.33816 0.12761,0.60613 0.13399,0.26159 0.36368,0.41472 0.22969,0.15313 0.52956,0.15313 z"
           id="path13130" /><path
           style="color:#000000;-inkscape-font-specification:Lexend;stroke:none;stroke-linecap:butt;-inkscape-stroke:none"
           d="m -295.78516,-250.02539 v 1.66797 c -0.0178,-0.0142 -0.026,-0.0332 -0.0449,-0.0469 -0.13121,-0.0993 -0.28046,-0.17649 -0.44531,-0.23047 -0.16397,-0.0592 -0.33668,-0.0898 -0.51367,-0.0898 -0.3189,0 -0.60891,0.0826 -0.86328,0.24609 -0.25322,0.15826 -0.45384,0.37871 -0.60157,0.65625 h -0.002 c -0.14436,0.2752 -0.21484,0.58993 -0.21484,0.93946 0,0.34995 0.074,0.66799 0.22265,0.94726 0.14772,0.27305 0.34927,0.49407 0.60157,0.65625 h 0.002 v 0.002 c 0.229,0.14061 0.49543,0.19295 0.77539,0.20898 v 0.0273 h 0.0996 c 0.16424,0 0.3254,-0.0273 0.48047,-0.082 0.15781,-0.0541 0.29589,-0.12634 0.41601,-0.21875 0.0356,-0.0264 0.0562,-0.0581 0.0879,-0.0859 v 0.32421 h 0.85743 v -4.92187 z m 0.20118,0.19922 h 0.45703 v 4.52148 h -0.45703 v -0.32617 c 0.002,-0.003 0.006,-0.005 0.008,-0.008 v -0.002 c 0.0766,-0.11489 0.11914,-0.23703 0.11914,-0.36133 v -0.0996 h -0.32813 v 0.39453 c -0.0566,0.0707 -0.1186,0.13957 -0.20703,0.20508 l -0.002,0.002 c -0.10107,0.0777 -0.22139,0.14148 -0.36133,0.18945 -0.13417,0.0474 -0.27205,0.0703 -0.41406,0.0703 -0.29005,0 -0.54308,-0.0699 -0.76953,-0.20899 -0.223,-0.1439 -0.40065,-0.33505 -0.53321,-0.58008 -0.13209,-0.24817 -0.19921,-0.53141 -0.19921,-0.85351 0,-0.32253 0.0655,-0.60197 0.19336,-0.84571 0.13301,-0.24989 0.31002,-0.44059 0.5332,-0.58007 v -0.002 c 0.22203,-0.14273 0.47076,-0.21289 0.75586,-0.21289 0.15478,0 0.30303,0.0248 0.44531,0.0762 h 0.002 l 0.002,0.002 c 0.14762,0.0479 0.2766,0.1147 0.39062,0.20117 h 0.002 v 0.002 c 0.0714,0.0517 0.11226,0.11042 0.16211,0.16797 v 0.45313 c -0.0858,-0.1404 -0.17719,-0.27633 -0.31054,-0.36524 -0.16984,-0.11322 -0.36705,-0.16992 -0.58399,-0.16992 -0.21693,0 -0.4161,0.0567 -0.58593,0.16992 -0.16806,0.11204 -0.30035,0.26671 -0.39649,0.45899 v 0.002 c -0.0925,0.18966 -0.13867,0.40457 -0.13867,0.64258 0,0.23802 0.0446,0.457 0.13672,0.65039 h 0.002 v 0.002 c 0.0963,0.18798 0.22896,0.34144 0.39649,0.45313 0.16983,0.11322 0.369,0.16992 0.58593,0.16992 0.21694,0 0.41415,-0.0567 0.58399,-0.16992 0.16747,-0.11165 0.30055,-0.26503 0.39258,-0.45313 v -0.002 c 0.0963,-0.19329 0.14453,-0.41243 0.14453,-0.65039 0,-0.23796 -0.0478,-0.45301 -0.14453,-0.64258 v -0.002 c -0.0107,-0.0225 -0.0351,-0.0313 -0.0469,-0.0527 l 0.35742,-0.0254 v -0.0937 c 0,-0.13239 -0.0456,-0.26119 -0.12695,-0.38086 -0.0158,-0.0254 -0.0461,-0.0441 -0.0645,-0.0684 z m -1.09571,1.87109 c 0.1829,0 0.3382,0.0438 0.47461,0.13477 0.13784,0.0919 0.24404,0.21656 0.32227,0.38086 v 0.002 0.002 c 0.0813,0.15884 0.12304,0.34051 0.12304,0.55274 0,0.21223 -0.0412,0.3989 -0.12304,0.5625 -0.0781,0.16005 -0.1839,0.28275 -0.32227,0.375 -0.13641,0.0909 -0.29171,0.13672 -0.47461,0.13672 -0.18289,0 -0.33819,-0.0458 -0.47461,-0.13672 -0.13755,-0.0917 -0.246,-0.21422 -0.32812,-0.37305 v -0.002 c -4.6e-4,-8.8e-4 -0.002,-0.001 -0.002,-0.002 -0.0769,-0.16303 -0.11719,-0.34924 -0.11719,-0.56054 0,-0.21286 0.0415,-0.39555 0.11914,-0.55469 h -0.002 c 0.0825,-0.16502 0.19188,-0.29068 0.33007,-0.38281 0.13642,-0.0909 0.29172,-0.13477 0.47461,-0.13477 z"
           id="path13132" /></g><g
         id="path13045"><path
           style="color:#000000;-inkscape-font-specification:Lexend;stroke:none;stroke-linecap:butt;-inkscape-stroke:none"
           d="m -292.61549,-245.14021 q -0.49129,0 -0.88049,-0.22331 -0.38281,-0.22969 -0.60612,-0.61889 -0.22332,-0.39558 -0.22332,-0.89962 0,-0.50404 0.22332,-0.89324 0.22331,-0.39558 0.60612,-0.61889 0.3892,-0.22969 0.88049,-0.22969 0.4849,0 0.86772,0.22969 0.38919,0.22331 0.6125,0.61889 0.22332,0.3892 0.22332,0.89324 0,0.50404 -0.22332,0.89962 -0.22331,0.3892 -0.6125,0.61889 -0.38282,0.22331 -0.86772,0.22331 z m 0,-0.59975 q 0.29987,0 0.53594,-0.14674 0.23607,-0.15313 0.37006,-0.40834 0.13398,-0.26159 0.1276,-0.58699 0.006,-0.33177 -0.1276,-0.58699 -0.13399,-0.26159 -0.37006,-0.40834 -0.23607,-0.14674 -0.53594,-0.14674 -0.29988,0 -0.54233,0.15312 -0.23607,0.14675 -0.37006,0.40834 -0.13398,0.25522 -0.1276,0.58061 -0.006,0.3254 0.1276,0.58699 0.13399,0.25521 0.37006,0.40834 0.24245,0.14674 0.54233,0.14674 z"
           id="path13136" /><path
           style="color:#000000;-inkscape-font-specification:Lexend;stroke:none;stroke-linecap:butt;-inkscape-stroke:none"
           d="m -292.61523,-248.72461 c -0.34311,0 -0.65632,0.0817 -0.93164,0.24414 -0.2701,0.15756 -0.48564,0.37824 -0.64258,0.65625 -0.15816,0.27563 -0.23633,0.59061 -0.23633,0.94141 0,0.35079 0.0785,0.66966 0.23633,0.94922 0.15692,0.27349 0.37336,0.49471 0.64258,0.65625 h 0.002 c 0.27522,0.15791 0.58701,0.23632 0.92969,0.23632 0.33861,0 0.64688,-0.0782 0.91796,-0.23632 0.27355,-0.16144 0.49131,-0.3824 0.64844,-0.65625 0.15782,-0.27956 0.23633,-0.59843 0.23633,-0.94922 0,-0.3508 -0.0782,-0.66578 -0.23633,-0.94141 -0.15714,-0.27836 -0.37403,-0.4988 -0.64844,-0.65625 -0.27118,-0.16271 -0.57891,-0.24414 -0.91796,-0.24414 z m 0,0.20117 c 0.30747,0 0.57716,0.0713 0.8164,0.21485 l 0.002,0.002 c 0.24451,0.1403 0.43361,0.331 0.57421,0.58008 v 0.002 c 0.13961,0.2433 0.21094,0.52054 0.21094,0.8418 0,0.32126 -0.071,0.60367 -0.21094,0.85156 -0.14062,0.24508 -0.33079,0.43722 -0.57617,0.58203 -0.23934,0.13962 -0.50849,0.20899 -0.8164,0.20899 -0.31238,0 -0.58637,-0.0711 -0.83008,-0.21094 -0.24061,-0.14464 -0.42973,-0.33506 -0.57031,-0.58008 -0.13995,-0.24789 -0.20899,-0.5303 -0.20899,-0.85156 0,-0.32126 0.0694,-0.5985 0.20899,-0.8418 v -0.002 c 0.1408,-0.24944 0.32999,-0.44185 0.57031,-0.58203 0.2436,-0.14377 0.51813,-0.21485 0.83008,-0.21485 z m 0,0.39844 c -0.21694,0 -0.41834,0.0579 -0.59571,0.16992 -0.1728,0.10742 -0.30952,0.25842 -0.40625,0.44727 -0.0966,0.1847 -0.14257,0.39417 -0.13867,0.62304 v 0.002 c 10e-6,6.8e-4 -1e-5,0.001 0,0.002 -0.004,0.22954 0.0423,0.44208 0.13867,0.63086 v 0.002 c 0.0967,0.18426 0.23289,0.33413 0.4043,0.44532 h 0.002 l 0.002,0.002 c 0.17725,0.10728 0.37751,0.16016 0.59375,0.16016 0.21622,0 0.41438,-0.0543 0.58789,-0.16211 h 0.002 c 0.17141,-0.11119 0.30756,-0.26106 0.4043,-0.44532 v -0.002 c 0.0973,-0.18994 0.1432,-0.40359 0.13867,-0.63477 0.004,-0.23273 -0.0422,-0.44392 -0.13867,-0.6289 v -0.002 c -0.0967,-0.18822 -0.23387,-0.34011 -0.40625,-0.44727 -0.17351,-0.10785 -0.37167,-0.16211 -0.58789,-0.16211 z m 0,0.20117 c 0.1836,0 0.34116,0.0431 0.48242,0.13086 0.14196,0.0882 0.25206,0.2092 0.33398,0.36914 v 0.002 c 0.0805,0.15382 0.12094,0.3298 0.11719,0.5371 v 0.002 0.002 c 0.004,0.20199 -0.0364,0.38063 -0.11719,0.53906 -0.0819,0.15603 -0.19259,0.27811 -0.33594,0.3711 -0.14085,0.0871 -0.29756,0.13086 -0.48046,0.13086 -0.18361,0 -0.34423,-0.0444 -0.49024,-0.13282 -0.14178,-0.0925 -0.25259,-0.21266 -0.33398,-0.36718 v -0.002 c -0.0806,-0.15847 -0.11896,-0.337 -0.11524,-0.53906 v -0.002 -0.002 c -0.004,-0.20269 0.0344,-0.37716 0.11524,-0.53125 v -0.002 c 0.0819,-0.15994 0.19202,-0.27894 0.33398,-0.36719 v -0.002 h 0.002 c 0.1459,-0.0921 0.30539,-0.13672 0.48829,-0.13672 z"
           id="path13138" /></g><g
         id="path13047"><path
           style="color:#000000;-inkscape-font-specification:Lexend;stroke:none;stroke-linecap:butt;-inkscape-stroke:none"
           d="m -288.41087,-245.20401 v -3.34966 h 0.65717 v 0.68907 l -0.11485,0.0766 q 0.0638,-0.22331 0.24883,-0.40834 0.18503,-0.19141 0.44025,-0.30626 0.25521,-0.12122 0.52318,-0.12122 0.38282,0 0.63803,0.15313 0.25521,0.14674 0.38282,0.453 0.1276,0.30625 0.1276,0.77201 v 2.0417 h -0.65717 v -1.99703 q 0,-0.28712 -0.0766,-0.47215 -0.0766,-0.19141 -0.23607,-0.27435 -0.15951,-0.0893 -0.39558,-0.0766 -0.19141,0 -0.35092,0.0638 -0.1595,0.0574 -0.28073,0.16589 -0.11485,0.10846 -0.18503,0.25521 -0.0638,0.14037 -0.0638,0.30625 v 2.02894 h -0.3254 q -0.0829,0 -0.16588,0 -0.0829,0 -0.16589,0 z"
           id="path13142" /><path
           style="color:#000000;-inkscape-font-specification:Lexend;stroke:none;stroke-linecap:butt;-inkscape-stroke:none"
           d="m -286.65625,-248.72461 c -0.19373,0 -0.38401,0.0442 -0.56641,0.13086 -0.16606,0.0749 -0.30635,0.18085 -0.43164,0.30273 v -0.36328 h -0.85742 v 3.45118 l 0.0977,-0.0762 -0.0215,0.17188 0.125,0.0312 v -0.0274 h 0.0664 0.16406 0.42578 v -2.1289 c 0,-0.0971 0.0188,-0.18407 0.0547,-0.26367 v -0.002 c 0.0417,-0.0867 0.0968,-0.16114 0.16406,-0.22461 0.0707,-0.0628 0.15194,-0.11064 0.2461,-0.14453 h 0.002 c 0.0935,-0.0374 0.19796,-0.0566 0.31445,-0.0566 h 0.002 0.004 c 0.14362,-0.008 0.25362,0.0162 0.33985,0.0645 h 0.002 0.002 c 0.0842,0.0438 0.14543,0.11264 0.18946,0.22265 v 0.002 c 0.0441,0.10647 0.0684,0.25108 0.0684,0.4336 v 2.09765 h 0.85742 v -2.14257 c 0,-0.31964 -0.0428,-0.58977 -0.13477,-0.81055 -0.092,-0.22079 -0.23582,-0.39078 -0.42578,-0.5 -0.18878,-0.11282 -0.41967,-0.16797 -0.6875,-0.16797 z m 0,0.20117 c 0.24188,0 0.43471,0.0479 0.58594,0.13867 h 0.002 c 0.15032,0.0864 0.26169,0.21869 0.33984,0.40625 0.0781,0.18756 0.1211,0.43105 0.1211,0.73243 v 1.9414 h -0.45703 v -1.89648 c 0,-0.20031 -0.0259,-0.36952 -0.084,-0.50977 -0.0577,-0.14428 -0.15404,-0.25725 -0.28125,-0.32422 -0.12645,-0.0708 -0.27808,-0.0971 -0.44922,-0.0879 -0.13631,7.1e-4 -0.26551,0.0234 -0.38281,0.0703 -0.11593,0.0423 -0.2211,0.10354 -0.31055,0.18359 v 0.002 h -0.002 c -0.0855,0.0808 -0.15327,0.17682 -0.20508,0.28516 h -0.002 v 0.002 c -0.0487,0.10709 -0.0723,0.22425 -0.0723,0.34766 v 1.92773 h -0.22656 -0.16406 -0.0664 v -3.14843 h 0.45703 V -248 c -0.0341,0.0626 -0.092,0.11587 -0.11132,0.18359 l -0.0742,0.26172 0.38476,-0.25586 v -0.14062 c 0.0361,-0.0575 0.0517,-0.12003 0.10547,-0.17383 v -0.002 h 0.002 c 0.11433,-0.11828 0.24876,-0.21341 0.4082,-0.28516 h 0.002 c 0.15789,-0.075 0.3169,-0.11133 0.48047,-0.11133 z"
           id="path13144" /></g><g
         id="path13049"><path
           style="color:#000000;-inkscape-font-specification:Lexend;stroke:none;stroke-linecap:butt;-inkscape-stroke:none"
           d="m -283.32578,-245.14021 q -0.41472,0 -0.75926,-0.22969 -0.33815,-0.22969 -0.54232,-0.62527 -0.20417,-0.39558 -0.20417,-0.89324 0,-0.50404 0.20417,-0.89324 0.21055,-0.39558 0.56147,-0.61889 0.35729,-0.22331 0.79753,-0.22331 0.2616,0 0.47853,0.0766 0.21693,0.0766 0.37643,0.21693 0.16589,0.13399 0.26798,0.31264 0.10846,0.17865 0.13398,0.38282 l -0.14674,-0.0511 v -0.86772 h 0.66355 v 3.34966 h -0.66355 v -0.79754 l 0.15312,-0.0447 q -0.0383,0.17227 -0.15951,0.33816 -0.11484,0.1595 -0.29987,0.28711 -0.17865,0.12761 -0.40196,0.20417 -0.21693,0.0766 -0.45938,0.0766 z m 0.17227,-0.60613 q 0.29987,0 0.52956,-0.14674 0.22969,-0.14675 0.3573,-0.40196 0.13399,-0.26159 0.13399,-0.59337 0,-0.32539 -0.13399,-0.58061 -0.12761,-0.25521 -0.3573,-0.40196 -0.22969,-0.14674 -0.52956,-0.14674 -0.2935,0 -0.52319,0.14674 -0.22331,0.14675 -0.35729,0.40196 -0.12761,0.25522 -0.12761,0.58061 0,0.33178 0.12761,0.59337 0.13398,0.25521 0.35729,0.40196 0.22969,0.14674 0.52319,0.14674 z"
           id="path13148" /><path
           style="color:#000000;-inkscape-font-specification:Lexend;stroke:none;stroke-linecap:butt;-inkscape-stroke:none"
           d="m -283.26758,-248.72461 c -0.3104,0 -0.59771,0.0816 -0.85156,0.24024 -0.24887,0.15836 -0.44818,0.37907 -0.5957,0.65625 h -0.002 c -0.14436,0.27519 -0.21484,0.58992 -0.21484,0.93945 0,0.34545 0.0709,0.66054 0.21484,0.93945 0.14282,0.27671 0.33641,0.49925 0.57618,0.66211 0.2451,0.1634 0.51951,0.24609 0.81445,0.24609 0.17217,0 0.33654,-0.0271 0.49219,-0.082 0.15639,-0.0536 0.29887,-0.12451 0.42578,-0.21484 l 0.002,-0.002 c 0.0599,-0.0415 0.0982,-0.0956 0.14844,-0.14258 v 0.3789 h 0.86328 v -3.55078 h -0.86328 v 0.35352 c -0.0327,-0.0332 -0.053,-0.0756 -0.0899,-0.10547 -0.11643,-0.10244 -0.25276,-0.17949 -0.4082,-0.23437 -0.15652,-0.0553 -0.32756,-0.084 -0.51172,-0.084 z m 0,0.20117 c 0.16464,0 0.31259,0.0234 0.44531,0.0703 0.1338,0.0472 0.24753,0.1126 0.34375,0.19726 v 0.002 l 0.002,0.002 c 0.091,0.0735 0.15981,0.1595 0.21875,0.2539 v 0.38282 l 0.36523,0.12695 -0.0195,-0.1582 c -0.0185,-0.1478 -0.0691,-0.28889 -0.14648,-0.41797 -3.3e-4,-5.4e-4 3.2e-4,-0.001 0,-0.002 v -0.38671 h 0.46484 v 3.14843 h -0.46484 v -0.39843 c 0.068,-0.10388 0.12567,-0.2111 0.15039,-0.32227 l 0.0371,-0.16406 -0.38672,0.11328 v 0.32226 c -0.0679,0.0911 -0.15342,0.17396 -0.26367,0.25 v 0.002 h -0.002 c -0.11076,0.0791 -0.23451,0.14324 -0.375,0.1914 h -0.002 c -0.13359,0.0472 -0.27468,0.0703 -0.42578,0.0703 -0.25802,0 -0.48884,-0.07 -0.70313,-0.21289 -0.2111,-0.14339 -0.38035,-0.33716 -0.50976,-0.5879 -0.12828,-0.24853 -0.19336,-0.52955 -0.19336,-0.84765 0,-0.32253 0.0655,-0.60196 0.19336,-0.8457 0.1332,-0.25027 0.30832,-0.44266 0.52734,-0.58204 0.22211,-0.13841 0.46823,-0.20703 0.74414,-0.20703 z m 0.11328,0.40625 c -0.21233,0 -0.40676,0.0539 -0.57617,0.16211 h -0.002 c -0.16344,0.10741 -0.29435,0.25605 -0.39063,0.43946 v 0.002 c -0.0927,0.18535 -0.13867,0.395 -0.13867,0.625 0,0.23401 0.0463,0.44735 0.13867,0.63672 v 0.002 0.002 c 0.0963,0.1834 0.22719,0.33205 0.39063,0.43946 h 0.002 c 0.16941,0.10823 0.36384,0.16211 0.57617,0.16211 0.21623,0 0.41422,-0.0537 0.58399,-0.16211 0.16821,-0.10747 0.3002,-0.25666 0.39258,-0.44141 0.0971,-0.18966 0.14453,-0.40402 0.14453,-0.63867 0,-0.22997 -0.0477,-0.43977 -0.14453,-0.625 v -0.002 c -0.0924,-0.18412 -0.22479,-0.33225 -0.39258,-0.43946 -0.16977,-0.10845 -0.36776,-0.16211 -0.58399,-0.16211 z m 0,0.19922 c 0.1836,0 0.34008,0.0437 0.47657,0.13086 0.13804,0.0882 0.24449,0.20775 0.32226,0.36328 v 0.002 c 0.0812,0.15466 0.12305,0.33 0.12305,0.5332 0,0.20772 -0.0415,0.3897 -0.12305,0.54883 -0.0778,0.15553 -0.18422,0.27508 -0.32226,0.36328 -0.13649,0.0872 -0.29297,0.13086 -0.47657,0.13086 -0.17831,0 -0.33035,-0.0441 -0.46679,-0.13086 -0.13356,-0.0878 -0.2401,-0.20771 -0.32227,-0.36328 -0.0778,-0.15942 -0.11914,-0.34047 -0.11914,-0.54883 0,-0.20315 0.0403,-0.37865 0.11719,-0.5332 v -0.002 c 0.0823,-0.15619 0.19031,-0.27528 0.32422,-0.36328 0.13644,-0.0867 0.28848,-0.13086 0.46679,-0.13086 z"
           id="path13150" /></g><g
         id="path13051"><path
           style="color:#000000;-inkscape-font-specification:Lexend;stroke:none;stroke-linecap:butt;-inkscape-stroke:none"
           d="m -279.17858,-245.14021 q -0.45939,0 -0.82306,-0.22331 -0.3573,-0.22969 -0.56785,-0.61889 -0.21055,-0.39558 -0.21055,-0.89962 0,-0.50404 0.20417,-0.89324 0.21055,-0.39558 0.56785,-0.61889 0.35729,-0.22969 0.8103,-0.22969 0.24883,0 0.47852,0.0829 0.23607,0.0766 0.4211,0.21693 0.18503,0.13399 0.28711,0.29988 0.10847,0.1595 0.10847,0.32539 l -0.19141,0.0128 v -2.23948 h 0.65717 v 4.72142 h -0.65717 v -0.79754 h 0.1276 q 0,0.15313 -0.10208,0.30626 -0.10209,0.14674 -0.27435,0.27435 -0.16589,0.12761 -0.3892,0.20417 -0.21693,0.0766 -0.44662,0.0766 z m 0.0893,-0.56784 q 0.29987,0 0.52957,-0.15313 0.22969,-0.15313 0.35729,-0.41472 0.13399,-0.26797 0.13399,-0.60613 0,-0.33815 -0.13399,-0.59975 -0.1276,-0.26797 -0.35729,-0.4211 -0.2297,-0.15312 -0.52957,-0.15312 -0.29987,0 -0.52956,0.15312 -0.2297,0.15313 -0.36368,0.4211 -0.12761,0.2616 -0.12761,0.59975 0,0.33816 0.12761,0.60613 0.13398,0.26159 0.36368,0.41472 0.22969,0.15313 0.52956,0.15313 z"
           id="path13154" /><path
           style="color:#000000;-inkscape-font-specification:Lexend;stroke:none;stroke-linecap:butt;-inkscape-stroke:none"
           d="m -278.19336,-250.02539 v 1.66992 c -0.0185,-0.0149 -0.0272,-0.0346 -0.0469,-0.0488 -0.13167,-0.0996 -0.27979,-0.17646 -0.44532,-0.23047 -0.16397,-0.0592 -0.33472,-0.0898 -0.51172,-0.0898 -0.31824,0 -0.60929,0.0833 -0.86328,0.24609 -0.25321,0.15826 -0.45579,0.37871 -0.60351,0.65625 -0.14437,0.2752 -0.2168,0.58993 -0.2168,0.93946 0,0.34995 0.074,0.66799 0.22266,0.94726 0.14771,0.27305 0.34926,0.49407 0.60156,0.65625 h 0.002 v 0.002 c 0.22852,0.14032 0.4961,0.19272 0.77539,0.20898 v 0.0273 h 0.10157 c 0.16424,0 0.32344,-0.0273 0.47851,-0.082 0.15693,-0.0538 0.29635,-0.12512 0.41602,-0.21679 l 0.002,-0.002 c 0.0359,-0.0267 0.0559,-0.0597 0.0879,-0.0879 v 0.32617 h 0.85742 v -4.92187 z m 0.19922,0.19922 h 0.45703 v 4.52148 h -0.45703 v -0.32617 c 0.002,-0.003 0.006,-0.005 0.008,-0.008 l 0.002,-0.002 c 0.0766,-0.11489 0.11718,-0.23703 0.11718,-0.36133 v -0.0996 h -0.32617 v 0.39258 c -0.0568,0.0714 -0.11972,0.1409 -0.20898,0.20703 v 0.002 h -0.002 c -0.10106,0.0777 -0.21944,0.14148 -0.35937,0.18945 h -0.002 c -0.13418,0.0474 -0.2701,0.0703 -0.41211,0.0703 -0.29006,0 -0.54504,-0.0699 -0.77149,-0.20899 -0.22299,-0.1439 -0.40065,-0.33505 -0.5332,-0.58008 h 0.002 c -0.13209,-0.24817 -0.19922,-0.53141 -0.19922,-0.85351 0,-0.32253 0.0636,-0.60197 0.19141,-0.84571 0.13301,-0.24989 0.31002,-0.44059 0.5332,-0.58007 v -0.002 h 0.002 c 0.22202,-0.14273 0.47075,-0.21289 0.75585,-0.21289 0.15479,0 0.30108,0.0248 0.44336,0.0762 h 0.002 l 0.002,0.002 c 0.14762,0.0479 0.27661,0.1147 0.39063,0.20117 h 0.002 v 0.002 c 0.072,0.0521 0.11398,0.11186 0.16406,0.16992 v 0.45118 c -0.0858,-0.1404 -0.17719,-0.27633 -0.31055,-0.36524 -0.16984,-0.11322 -0.369,-0.16992 -0.58593,-0.16992 -0.21694,0 -0.41415,0.0567 -0.58399,0.16992 -0.16807,0.11204 -0.3023,0.26671 -0.39844,0.45899 v 0.002 c -0.0925,0.18966 -0.13867,0.40457 -0.13867,0.64258 0,0.23802 0.0466,0.457 0.13867,0.65039 v 0.002 c 0.0963,0.18799 0.23091,0.34144 0.39844,0.45313 0.16984,0.11322 0.36705,0.16992 0.58399,0.16992 0.21693,0 0.41609,-0.0567 0.58593,-0.16992 0.16747,-0.11165 0.2986,-0.26504 0.39063,-0.45313 v -0.002 c 0.0963,-0.19329 0.14453,-0.41243 0.14453,-0.65039 0,-0.23864 -0.0472,-0.45457 -0.14453,-0.64453 -0.0106,-0.022 -0.0333,-0.0317 -0.0449,-0.0527 l 0.35547,-0.0254 v -0.0937 c 0,-0.13096 -0.0433,-0.25837 -0.12305,-0.37695 l -0.002,-0.002 c -0.0162,-0.0262 -0.0475,-0.0454 -0.0664,-0.0703 z m -1.0957,1.87109 c 0.18289,0 0.33818,0.0438 0.47461,0.13477 0.13783,0.0919 0.24403,0.21656 0.32226,0.38086 v 0.002 l 0.002,0.002 c 0.0814,0.15884 0.12305,0.34051 0.12305,0.55274 0,0.21223 -0.0412,0.3989 -0.12305,0.5625 h -0.002 c -0.0781,0.16005 -0.18389,0.28275 -0.32226,0.375 -0.13643,0.0909 -0.29172,0.13672 -0.47461,0.13672 -0.1829,0 -0.33625,-0.0458 -0.47266,-0.13672 -0.13873,-0.0925 -0.24772,-0.21615 -0.33008,-0.37696 -0.077,-0.16311 -0.11719,-0.34909 -0.11719,-0.56054 0,-0.21286 0.0396,-0.39555 0.11719,-0.55469 0.0825,-0.16502 0.19188,-0.29068 0.33008,-0.38281 0.13641,-0.0909 0.28976,-0.13477 0.47266,-0.13477 z"
           id="path13156" /></g><g
         id="path13053"><path
           style="color:#000000;-inkscape-font-specification:Lexend;stroke:none;stroke-linecap:butt;-inkscape-stroke:none"
           d="m -275.24194,-245.14021 q -0.41472,0 -0.75925,-0.22969 -0.33816,-0.22969 -0.54233,-0.62527 -0.20417,-0.39558 -0.20417,-0.89324 0,-0.50404 0.20417,-0.89324 0.21055,-0.39558 0.56147,-0.61889 0.3573,-0.22331 0.79754,-0.22331 0.26159,0 0.47852,0.0766 0.21693,0.0766 0.37644,0.21693 0.16588,0.13399 0.26797,0.31264 0.10846,0.17865 0.13399,0.38282 l -0.14675,-0.0511 v -0.86772 h 0.66355 v 3.34966 h -0.66355 v -0.79754 l 0.15313,-0.0447 q -0.0383,0.17227 -0.15951,0.33816 -0.11485,0.1595 -0.29988,0.28711 -0.17864,0.12761 -0.40195,0.20417 -0.21694,0.0766 -0.45939,0.0766 z m 0.17227,-0.60613 q 0.29988,0 0.52957,-0.14674 0.22969,-0.14675 0.35729,-0.40196 0.13399,-0.26159 0.13399,-0.59337 0,-0.32539 -0.13399,-0.58061 -0.1276,-0.25521 -0.35729,-0.40196 -0.22969,-0.14674 -0.52957,-0.14674 -0.29349,0 -0.52318,0.14674 -0.22331,0.14675 -0.3573,0.40196 -0.12761,0.25522 -0.12761,0.58061 0,0.33178 0.12761,0.59337 0.13399,0.25521 0.3573,0.40196 0.22969,0.14674 0.52318,0.14674 z"
           id="path13161" /><path
           style="color:#000000;-inkscape-font-specification:Lexend;stroke:none;stroke-linecap:butt;-inkscape-stroke:none"
           d="m -275.18359,-248.72461 c -0.3104,0 -0.59771,0.0816 -0.85157,0.24024 -0.24886,0.15836 -0.44817,0.37907 -0.5957,0.65625 h -0.002 c -0.14437,0.27519 -0.21485,0.58992 -0.21485,0.93945 0,0.34545 0.0709,0.66054 0.21485,0.93945 0.14281,0.27671 0.3364,0.49925 0.57617,0.66211 0.24509,0.1634 0.51951,0.24609 0.81445,0.24609 0.17217,0 0.33654,-0.0271 0.49219,-0.082 0.1564,-0.0536 0.29888,-0.12451 0.42578,-0.21484 l 0.002,-0.002 c 0.06,-0.0415 0.0982,-0.0956 0.14844,-0.14258 v 0.3789 h 0.86328 v -3.55078 h -0.86328 v 0.35547 c -0.0338,-0.0345 -0.0555,-0.0784 -0.0937,-0.10937 -0.11575,-0.10106 -0.25029,-0.17805 -0.40429,-0.23242 -0.15652,-0.0553 -0.32757,-0.084 -0.51172,-0.084 z m 0,0.20117 c 0.16463,0 0.31064,0.0234 0.44336,0.0703 0.13379,0.0472 0.24751,0.1126 0.34375,0.19726 l 0.002,0.002 0.002,0.002 c 0.091,0.0735 0.15981,0.1595 0.21875,0.2539 v 0.38282 l 0.36524,0.12695 -0.0195,-0.1582 c -0.0185,-0.14779 -0.0691,-0.28889 -0.14649,-0.41797 -3.2e-4,-5.4e-4 3.2e-4,-0.001 0,-0.002 v -0.38671 h 0.46289 v 3.14843 h -0.46289 v -0.39843 c 0.068,-0.10388 0.12567,-0.2111 0.15039,-0.32227 l 0.0371,-0.16406 -0.38672,0.11328 v 0.32226 c -0.0679,0.0911 -0.15341,0.17396 -0.26367,0.25 v 0.002 h -0.002 c -0.11076,0.0791 -0.23452,0.14324 -0.375,0.1914 h -0.002 c -0.13359,0.0472 -0.27468,0.0703 -0.42578,0.0703 -0.25802,0 -0.48884,-0.07 -0.70312,-0.21289 -0.21111,-0.14339 -0.38036,-0.33716 -0.50977,-0.5879 -0.12827,-0.24853 -0.19336,-0.52955 -0.19336,-0.84765 0,-0.32253 0.0655,-0.60196 0.19336,-0.8457 0.13321,-0.25027 0.30832,-0.44266 0.52735,-0.58204 0.22211,-0.13841 0.46822,-0.20703 0.74414,-0.20703 z m 0.11328,0.40625 c -0.21233,0 -0.40676,0.0539 -0.57617,0.16211 h -0.002 c -0.16343,0.10741 -0.29433,0.25606 -0.39062,0.43946 v 0.002 c -0.0927,0.18535 -0.13867,0.395 -0.13867,0.625 0,0.23401 0.0463,0.44735 0.13867,0.63672 v 0.002 0.002 c 0.0963,0.1834 0.22719,0.33205 0.39062,0.43946 h 0.002 c 0.16941,0.10823 0.36384,0.16211 0.57617,0.16211 0.21623,0 0.41422,-0.0537 0.58398,-0.16211 0.16821,-0.10747 0.30021,-0.25666 0.39258,-0.44141 0.0971,-0.18966 0.14453,-0.40402 0.14453,-0.63867 0,-0.22997 -0.0476,-0.43977 -0.14453,-0.625 v -0.002 c -0.0923,-0.18412 -0.22478,-0.33225 -0.39258,-0.43946 -0.16976,-0.10845 -0.36775,-0.16211 -0.58398,-0.16211 z m 0,0.19922 c 0.18361,0 0.34007,0.0437 0.47656,0.13086 0.13804,0.0882 0.2445,0.20775 0.32227,0.36328 v 0.002 c 0.0812,0.15466 0.12304,0.33 0.12304,0.5332 0,0.20772 -0.0415,0.3897 -0.12304,0.54883 -0.0778,0.15553 -0.18423,0.27508 -0.32227,0.36328 -0.13649,0.0872 -0.29295,0.13086 -0.47656,0.13086 -0.1783,0 -0.33036,-0.0441 -0.4668,-0.13086 -0.13355,-0.0878 -0.24009,-0.20771 -0.32226,-0.36328 -0.0778,-0.15942 -0.11915,-0.34047 -0.11915,-0.54883 0,-0.20315 0.0403,-0.37865 0.11719,-0.5332 v -0.002 c 0.0823,-0.15619 0.19031,-0.27528 0.32422,-0.36328 0.13644,-0.0867 0.2885,-0.13086 0.4668,-0.13086 z"
           id="path13163" /></g></g><path
       sodipodi:type="star"
       style="display:inline;fill:#3a4058;fill-opacity:1;stroke:none;stroke-width:1.8;stroke-linecap:round;stroke-dasharray:none;stroke-opacity:1;paint-order:stroke markers fill"
       id="path28166"
       inkscape:flatsided="false"
       sodipodi:sides="4"
       sodipodi:cx="403.25388"
       sodipodi:cy="-197.29655"
       sodipodi:r1="1.4899863"
       sodipodi:r2="0.95359123"
       sodipodi:arg1="1.2133467"
       sodipodi:arg2="1.9987448"
       inkscape:rounded="0.19"
       inkscape:randomized="0"
       inkscape:transform-center-x="-4.6270414e-06"
       transform="matrix(0.62656739,0,0,0.62656739,-752.19474,-107.77823)"
       d="m 403.7752,-195.90075 c -0.18837,0.0704 -0.73412,-0.44476 -0.91707,-0.52821 -0.18295,-0.0834 -0.92971,-0.1579 -1.00006,-0.34627 -0.0704,-0.18837 0.44476,-0.73412 0.52821,-0.91707 0.0835,-0.18295 0.1579,-0.92971 0.34627,-1.00006 0.18837,-0.0704 0.73413,0.44476 0.91707,0.52821 0.18295,0.0834 0.92971,0.1579 1.00006,0.34627 0.0704,0.18837 -0.44476,0.73412 -0.52821,0.91707 -0.0834,0.18295 -0.1579,0.92971 -0.34627,1.00006 z"
       inkscape:transform-center-y="-5.6751019e-06" /><path
       sodipodi:type="star"
       style="display:inline;fill:#3a4058;fill-opacity:1;stroke:none;stroke-width:1.8;stroke-linecap:round;stroke-dasharray:none;stroke-opacity:1;paint-order:stroke markers fill"
       id="path28168"
       inkscape:flatsided="false"
       sodipodi:sides="4"
       sodipodi:cx="403.25388"
       sodipodi:cy="-197.29655"
       sodipodi:r1="1.4899863"
       sodipodi:r2="0.95359123"
       sodipodi:arg1="1.2133467"
       sodipodi:arg2="1.9987448"
       inkscape:rounded="0.19"
       inkscape:randomized="0"
       inkscape:transform-center-x="-4.6270414e-06"
       transform="matrix(0.62656739,0,0,0.62656739,-666.46974,-131.92547)"
       d="m 403.7752,-195.90075 c -0.18837,0.0704 -0.73412,-0.44476 -0.91707,-0.52821 -0.18295,-0.0834 -0.92971,-0.1579 -1.00006,-0.34627 -0.0704,-0.18837 0.44476,-0.73412 0.52821,-0.91707 0.0835,-0.18295 0.1579,-0.92971 0.34627,-1.00006 0.18837,-0.0704 0.73413,0.44476 0.91707,0.52821 0.18295,0.0834 0.92971,0.1579 1.00006,0.34627 0.0704,0.18837 -0.44476,0.73412 -0.52821,0.91707 -0.0834,0.18295 -0.1579,0.92971 -0.34627,1.00006 z"
       inkscape:transform-center-y="-5.6751019e-06" /><path
       sodipodi:type="star"
       style="display:inline;fill:#3a4058;fill-opacity:1;stroke:none;stroke-width:1.8;stroke-linecap:round;stroke-dasharray:none;stroke-opacity:1;paint-order:stroke markers fill"
       id="path28170"
       inkscape:flatsided="false"
       sodipodi:sides="4"
       sodipodi:cx="403.25388"
       sodipodi:cy="-197.29655"
       sodipodi:r1="1.4899863"
       sodipodi:r2="0.95359123"
       sodipodi:arg1="1.2133467"
       sodipodi:arg2="1.9987448"
       inkscape:rounded="0.19"
       inkscape:randomized="0"
       inkscape:transform-center-x="-4.6270414e-06"
       transform="matrix(0.62656739,0,0,0.62656739,-684.11753,-167.9088)"
       d="m 403.7752,-195.90075 c -0.18837,0.0704 -0.73412,-0.44476 -0.91707,-0.52821 -0.18295,-0.0834 -0.92971,-0.1579 -1.00006,-0.34627 -0.0704,-0.18837 0.44476,-0.73412 0.52821,-0.91707 0.0835,-0.18295 0.1579,-0.92971 0.34627,-1.00006 0.18837,-0.0704 0.73413,0.44476 0.91707,0.52821 0.18295,0.0834 0.92971,0.1579 1.00006,0.34627 0.0704,0.18837 -0.44476,0.73412 -0.52821,0.91707 -0.0834,0.18295 -0.1579,0.92971 -0.34627,1.00006 z"
       inkscape:transform-center-y="-5.6751019e-06" /><path
       sodipodi:type="star"
       style="display:inline;fill:#3a4058;fill-opacity:1;stroke:none;stroke-width:1.8;stroke-linecap:round;stroke-dasharray:none;stroke-opacity:1;paint-order:stroke markers fill"
       id="path28172"
       inkscape:flatsided="false"
       sodipodi:sides="4"
       sodipodi:cx="403.25388"
       sodipodi:cy="-197.29655"
       sodipodi:r1="1.4899863"
       sodipodi:r2="0.95359123"
       sodipodi:arg1="1.2133467"
       sodipodi:arg2="1.9987448"
       inkscape:rounded="0.19"
       inkscape:randomized="0"
       inkscape:transform-center-x="5.3729589e-06"
       transform="matrix(0.62656739,0,0,-0.62656739,-739.93067,-400.10227)"
       d="m 403.7752,-195.90075 c -0.18837,0.0704 -0.73412,-0.44476 -0.91707,-0.52821 -0.18295,-0.0834 -0.92971,-0.1579 -1.00006,-0.34627 -0.0704,-0.18837 0.44476,-0.73412 0.52821,-0.91707 0.0835,-0.18295 0.1579,-0.92971 0.34627,-1.00006 0.18837,-0.0704 0.73413,0.44476 0.91707,0.52821 0.18295,0.0834 0.92971,0.1579 1.00006,0.34627 0.0704,0.18837 -0.44476,0.73412 -0.52821,0.91707 -0.0834,0.18295 -0.1579,0.92971 -0.34627,1.00006 z" /><path
       sodipodi:type="star"
       style="display:inline;fill:#3a4058;fill-opacity:1;stroke:none;stroke-width:1.8;stroke-linecap:round;stroke-dasharray:none;stroke-opacity:1;paint-order:stroke markers fill"
       id="path28174"
       inkscape:flatsided="false"
       sodipodi:sides="4"
       sodipodi:cx="403.25388"
       sodipodi:cy="-197.29655"
       sodipodi:r1="1.4899863"
       sodipodi:r2="0.95359123"
       sodipodi:arg1="1.2133467"
       sodipodi:arg2="1.9987448"
       inkscape:rounded="0.19"
       inkscape:randomized="0"
       inkscape:transform-center-x="5.3729589e-06"
       transform="matrix(0.62656739,0,0,-0.62656739,-710.56192,-367.48692)"
       d="m 403.7752,-195.90075 c -0.18837,0.0704 -0.73412,-0.44476 -0.91707,-0.52821 -0.18295,-0.0834 -0.92971,-0.1579 -1.00006,-0.34627 -0.0704,-0.18837 0.44476,-0.73412 0.52821,-0.91707 0.0835,-0.18295 0.1579,-0.92971 0.34627,-1.00006 0.18837,-0.0704 0.73413,0.44476 0.91707,0.52821 0.18295,0.0834 0.92971,0.1579 1.00006,0.34627 0.0704,0.18837 -0.44476,0.73412 -0.52821,0.91707 -0.0834,0.18295 -0.1579,0.92971 -0.34627,1.00006 z" /><path
       sodipodi:type="star"
       style="display:inline;fill:#3a4058;fill-opacity:1;stroke:none;stroke-width:1.8;stroke-linecap:round;stroke-dasharray:none;stroke-opacity:1;paint-order:stroke markers fill"
       id="path28176"
       inkscape:flatsided="false"
       sodipodi:sides="4"
       sodipodi:cx="403.25388"
       sodipodi:cy="-197.29655"
       sodipodi:r1="1.4899863"
       sodipodi:r2="0.95359123"
       sodipodi:arg1="1.2133467"
       sodipodi:arg2="1.9987448"
       inkscape:rounded="0.19"
       inkscape:randomized="0"
       inkscape:transform-center-x="5.3729589e-06"
       transform="matrix(0.62656739,0,0,-0.62656739,-636.28041,-397.64942)"
       d="m 403.7752,-195.90075 c -0.18837,0.0704 -0.73412,-0.44476 -0.91707,-0.52821 -0.18295,-0.0834 -0.92971,-0.1579 -1.00006,-0.34627 -0.0704,-0.18837 0.44476,-0.73412 0.52821,-0.91707 0.0835,-0.18295 0.1579,-0.92971 0.34627,-1.00006 0.18837,-0.0704 0.73413,0.44476 0.91707,0.52821 0.18295,0.0834 0.92971,0.1579 1.00006,0.34627 0.0704,0.18837 -0.44476,0.73412 -0.52821,0.91707 -0.0834,0.18295 -0.1579,0.92971 -0.34627,1.00006 z" /><path
       sodipodi:type="star"
       style="display:inline;fill:#3a4058;fill-opacity:1;stroke:none;stroke-width:1.8;stroke-linecap:round;stroke-dasharray:none;stroke-opacity:1;paint-order:stroke markers fill"
       id="path28178"
       inkscape:flatsided="false"
       sodipodi:sides="4"
       sodipodi:cx="403.25388"
       sodipodi:cy="-197.29655"
       sodipodi:r1="1.4899863"
       sodipodi:r2="0.95359123"
       sodipodi:arg1="1.2133467"
       sodipodi:arg2="1.9987448"
       inkscape:rounded="0.19"
       inkscape:randomized="0"
       inkscape:transform-center-x="5.3729589e-06"
       transform="matrix(0.62656739,0,0,-0.62656739,-625.16791,-424.41898)"
       d="m 403.7752,-195.90075 c -0.18837,0.0704 -0.73412,-0.44476 -0.91707,-0.52821 -0.18295,-0.0834 -0.92971,-0.1579 -1.00006,-0.34627 -0.0704,-0.18837 0.44476,-0.73412 0.52821,-0.91707 0.0835,-0.18295 0.1579,-0.92971 0.34627,-1.00006 0.18837,-0.0704 0.73413,0.44476 0.91707,0.52821 0.18295,0.0834 0.92971,0.1579 1.00006,0.34627 0.0704,0.18837 -0.44476,0.73412 -0.52821,0.91707 -0.0834,0.18295 -0.1579,0.92971 -0.34627,1.00006 z" /><path
       style="fill:#434a66;fill-opacity:1;stroke:none;stroke-width:2.91499;stroke-linecap:round;stroke-dasharray:none;stroke-opacity:1;paint-order:normal"
       d="m -354.20321,-187.61815 c 0,0 6.26086,15.64492 0.78167,17.67001 -2.42881,0.89767 -4.98857,-3.53791 -4.98857,-3.53791 z"
       id="path21449"
       sodipodi:nodetypes="cscc" /><path
       style="fill:#3a4058;fill-opacity:1;stroke:none;stroke-width:3.52504;stroke-linecap:round;stroke-dasharray:none;stroke-opacity:1;paint-order:normal"
       d="m -432.33049,-195.0268 c 0,0 -7.57114,-18.9191 -0.94526,-21.368 2.93711,-1.08553 6.03258,4.27833 6.03258,4.27833 z"
       id="path22181"
       sodipodi:nodetypes="cscc" /><path
       sodipodi:type="star"
       style="fill:#3a4058;fill-opacity:1;stroke:none;stroke-width:0.499999;stroke-linecap:butt;stroke-dasharray:none;stroke-opacity:1;paint-order:stroke markers fill"
       id="path28158"
       inkscape:flatsided="false"
       sodipodi:sides="4"
       sodipodi:cx="18.533472"
       sodipodi:cy="53.285191"
       sodipodi:r1="0.42354"
       sodipodi:r2="0.20922875"
       sodipodi:arg1="1.5707963"
       sodipodi:arg2="2.3561945"
       inkscape:rounded="0.19"
       inkscape:randomized="0"
       d="m 18.533472,53.708731 c -0.05943,0 -0.105923,-0.233569 -0.147947,-0.275593 -0.04202,-0.04202 -0.275593,-0.08852 -0.275593,-0.147947 0,-0.05943 0.233569,-0.105924 0.275593,-0.147947 0.04202,-0.04202 0.08852,-0.275593 0.147947,-0.275593 0.05943,0 0.105923,0.233569 0.147947,0.275593 0.04202,0.04202 0.275593,0.08852 0.275593,0.147947 0,0.05943 -0.233569,0.105923 -0.275593,0.147947 -0.04202,0.04202 -0.08852,0.275593 -0.147947,0.275593 z"
       transform="matrix(7.5983413,0,0,7.5983413,-644.44955,-664.52101)" /><path
       sodipodi:type="star"
       style="fill:#3a4058;fill-opacity:1;stroke:none;stroke-width:0.499999;stroke-linecap:butt;stroke-dasharray:none;stroke-opacity:1;paint-order:stroke markers fill"
       id="path28160"
       inkscape:flatsided="false"
       sodipodi:sides="4"
       sodipodi:cx="18.533472"
       sodipodi:cy="53.285191"
       sodipodi:r1="0.42354"
       sodipodi:r2="0.20922875"
       sodipodi:arg1="1.5707963"
       sodipodi:arg2="2.3561945"
       inkscape:rounded="0.19"
       inkscape:randomized="0"
       d="m 18.533472,53.708731 c -0.05943,0 -0.105923,-0.233569 -0.147947,-0.275593 -0.04202,-0.04202 -0.275593,-0.08852 -0.275593,-0.147947 0,-0.05943 0.233569,-0.105924 0.275593,-0.147947 0.04202,-0.04202 0.08852,-0.275593 0.147947,-0.275593 0.05943,0 0.105923,0.233569 0.147947,0.275593 0.04202,0.04202 0.275593,0.08852 0.275593,0.147947 0,0.05943 -0.233569,0.105923 -0.275593,0.147947 -0.04202,0.04202 -0.08852,0.275593 -0.147947,0.275593 z"
       transform="matrix(7.5983413,0,0,7.5983413,-561.37039,-688.44216)" /><path
       sodipodi:type="star"
       style="fill:#3a4058;fill-opacity:1;stroke:none;stroke-width:0.499999;stroke-linecap:butt;stroke-dasharray:none;stroke-opacity:1;paint-order:stroke markers fill"
       id="path28162"
       inkscape:flatsided="false"
       sodipodi:sides="4"
       sodipodi:cx="18.533472"
       sodipodi:cy="53.285191"
       sodipodi:r1="0.42354"
       sodipodi:r2="0.20922875"
       sodipodi:arg1="1.5707963"
       sodipodi:arg2="2.3561945"
       inkscape:rounded="0.19"
       inkscape:randomized="0"
       d="m 18.533472,53.708731 c -0.05943,0 -0.105923,-0.233569 -0.147947,-0.275593 -0.04202,-0.04202 -0.275593,-0.08852 -0.275593,-0.147947 0,-0.05943 0.233569,-0.105924 0.275593,-0.147947 0.04202,-0.04202 0.08852,-0.275593 0.147947,-0.275593 0.05943,0 0.105923,0.233569 0.147947,0.275593 0.04202,0.04202 0.275593,0.08852 0.275593,0.147947 0,0.05943 -0.233569,0.105923 -0.275593,0.147947 -0.04202,0.04202 -0.08852,0.275593 -0.147947,0.275593 z"
       transform="matrix(7.5983413,0,0,7.5983413,-586.24122,-664.52101)" /><path
       sodipodi:type="star"
       style="fill:#3a4058;fill-opacity:1;stroke:none;stroke-width:0.499999;stroke-linecap:butt;stroke-dasharray:none;stroke-opacity:1;paint-order:stroke markers fill"
       id="path28164"
       inkscape:flatsided="false"
       sodipodi:sides="4"
       sodipodi:cx="18.533472"
       sodipodi:cy="53.285191"
       sodipodi:r1="0.42354"
       sodipodi:r2="0.20922875"
       sodipodi:arg1="1.5707963"
       sodipodi:arg2="2.3561945"
       inkscape:rounded="0.19"
       inkscape:randomized="0"
       d="m 18.533472,53.708731 c -0.05943,0 -0.105923,-0.233569 -0.147947,-0.275593 -0.04202,-0.04202 -0.275593,-0.08852 -0.275593,-0.147947 0,-0.05943 0.233569,-0.105924 0.275593,-0.147947 0.04202,-0.04202 0.08852,-0.275593 0.147947,-0.275593 0.05943,0 0.105923,0.233569 0.147947,0.275593 0.04202,0.04202 0.275593,0.08852 0.275593,0.147947 0,0.05943 -0.233569,0.105923 -0.275593,0.147947 -0.04202,0.04202 -0.08852,0.275593 -0.147947,0.275593 z"
       transform="matrix(7.5983413,0,0,7.5983413,-480.93705,-706.55715)" /><circle
       style="fill:#292d3e;fill-opacity:1;stroke:none;stroke-width:8.00309;stroke-dasharray:none;stroke-opacity:1;paint-order:normal"
       id="circle12085"
       cx="379.65887"
       cy="-218.59781"
       r="3.5131836"
       transform="scale(-1,1)" /><circle
       style="fill:#292d3e;fill-opacity:1;stroke:none;stroke-width:8.00309;stroke-dasharray:none;stroke-opacity:1;paint-order:normal"
       id="circle12087"
       cx="408.62805"
       cy="-220.05302"
       r="3.5131836"
       transform="scale(-1,1)" /><path
       style="fill:#292d3e;fill-opacity:1;stroke:#292d3e;stroke-width:2.915;stroke-linecap:round;stroke-dasharray:none;stroke-opacity:1;paint-order:normal"
       d="m -394.19571,-212.91237 h -5.24948"
       id="path12089" /><path
       style="fill:#434a66;fill-opacity:1;stroke:none;stroke-width:1.43705;stroke-linecap:round;stroke-dasharray:none;stroke-opacity:1;paint-order:stroke markers fill"
       d="m -355.65912,-212.49989 c 10.97028,23.19157 -1.50474,48.89562 -24.08884,56.28818 -17.86925,5.84923 -41.26138,-0.96775 -50.36568,-23.09059 6.20132,14.23843 22.93233,18.2025 39.59242,16.17272 22.81348,-2.7795 42.51359,-23.31912 34.8621,-49.37031 z"
       id="path4553"
       sodipodi:nodetypes="cscsc"
       clip-path="none" /></g></svg>
