<?xml version="1.0" encoding="UTF-8" standalone="no"?>
<!-- Created with Inkscape (http://www.inkscape.org/) -->

<svg
   width="17.058624"
   height="15.042734"
   viewBox="0 0 4.5134276 3.9800569"
   version="1.1"
   id="svg5"
   xml:space="preserve"
   inkscape:version="1.2.2 (732a01da63, 2022-12-09)"
   sodipodi:docname="diseñosOniria.svg"
   inkscape:export-filename="svg\private-icon.svg"
   inkscape:export-xdpi="96"
   inkscape:export-ydpi="96"
   xmlns:inkscape="http://www.inkscape.org/namespaces/inkscape"
   xmlns:sodipodi="http://sodipodi.sourceforge.net/DTD/sodipodi-0.dtd"
   xmlns="http://www.w3.org/2000/svg"
   xmlns:svg="http://www.w3.org/2000/svg"><sodipodi:namedview
     id="namedview7"
     pagecolor="#505050"
     bordercolor="#eeeeee"
     borderopacity="1"
     inkscape:showpageshadow="0"
     inkscape:pageopacity="0"
     inkscape:pagecheckerboard="0"
     inkscape:deskcolor="#505050"
     inkscape:document-units="mm"
     showgrid="false"
     inkscape:zoom="4.0000001"
     inkscape:cx="2134.1249"
     inkscape:cy="948.24997"
     inkscape:window-width="1920"
     inkscape:window-height="1009"
     inkscape:window-x="-8"
     inkscape:window-y="-8"
     inkscape:window-maximized="1"
     inkscape:current-layer="layer6"
     showguides="true"><sodipodi:guide
       position="-307.34108,-364.5265"
       orientation="0,-1"
       id="guide21335"
       inkscape:locked="false" /><sodipodi:guide
       position="-724.4399,469.45346"
       orientation="1,0"
       id="guide49534"
       inkscape:locked="false" /><sodipodi:guide
       position="-608.96608,392.18186"
       orientation="1,0"
       id="guide37938"
       inkscape:locked="false" /><sodipodi:guide
       position="-550.36088,392.84331"
       orientation="1,0"
       id="guide37940"
       inkscape:locked="false" /><sodipodi:guide
       position="-579.74116,433.19226"
       orientation="1,0"
       id="guide37944"
       inkscape:locked="false" /></sodipodi:namedview><defs
     id="defs2" /><g
     inkscape:groupmode="layer"
     id="layer6"
     inkscape:label="ICONOS"
     style="display:inline"
     transform="translate(-601.02858,-198.23095)"><path
       sodipodi:type="star"
       style="display:inline;fill:#292d3e;fill-opacity:1;stroke:none;stroke-width:1.8;stroke-linecap:round;stroke-dasharray:none;stroke-opacity:1;paint-order:stroke markers fill"
       id="path3628"
       inkscape:flatsided="false"
       sodipodi:sides="4"
       sodipodi:cx="403.25388"
       sodipodi:cy="-197.29655"
       sodipodi:r1="1.4899863"
       sodipodi:r2="0.95359123"
       sodipodi:arg1="1.2133467"
       sodipodi:arg2="1.9987448"
       inkscape:rounded="0.19"
       inkscape:randomized="0"
       inkscape:transform-center-x="5.3729589e-06"
       transform="matrix(0.62656739,0,0,0.62656739,351.99755,322.72921)"
       d="m 403.7752,-195.90075 c -0.18837,0.0704 -0.73412,-0.44476 -0.91707,-0.52821 -0.18295,-0.0834 -0.92971,-0.1579 -1.00006,-0.34627 -0.0704,-0.18837 0.44476,-0.73412 0.52821,-0.91707 0.0835,-0.18295 0.1579,-0.92971 0.34627,-1.00006 0.18837,-0.0704 0.73413,0.44476 0.91707,0.52821 0.18295,0.0834 0.92971,0.1579 1.00006,0.34627 0.0704,0.18837 -0.44476,0.73412 -0.52821,0.91707 -0.0834,0.18295 -0.1579,0.92971 -0.34627,1.00006 z"
       inkscape:transform-center-y="2.4998923e-06" /><path
       sodipodi:type="star"
       style="display:inline;fill:#292d3e;fill-opacity:1;stroke:none;stroke-width:1.8;stroke-linecap:round;stroke-dasharray:none;stroke-opacity:1;paint-order:stroke markers fill"
       id="path3630"
       inkscape:flatsided="false"
       sodipodi:sides="4"
       sodipodi:cx="403.25388"
       sodipodi:cy="-197.29655"
       sodipodi:r1="1.4899863"
       sodipodi:r2="0.95359123"
       sodipodi:arg1="1.2133467"
       sodipodi:arg2="1.9987448"
       inkscape:rounded="0.19"
       inkscape:randomized="0"
       inkscape:transform-center-x="-4.6270414e-06"
       transform="matrix(0.62656739,0,0,-0.62656739,349.24155,77.71272)"
       d="m 403.7752,-195.90075 c -0.18837,0.0704 -0.73412,-0.44476 -0.91707,-0.52821 -0.18295,-0.0834 -0.92971,-0.1579 -1.00006,-0.34627 -0.0704,-0.18837 0.44476,-0.73412 0.52821,-0.91707 0.0835,-0.18295 0.1579,-0.92971 0.34627,-1.00006 0.18837,-0.0704 0.73413,0.44476 0.91707,0.52821 0.18295,0.0834 0.92971,0.1579 1.00006,0.34627 0.0704,0.18837 -0.44476,0.73412 -0.52821,0.91707 -0.0834,0.18295 -0.1579,0.92971 -0.34627,1.00006 z"
       inkscape:transform-center-y="5.8250062e-06" /></g></svg>
